<svg xmlns="http://www.w3.org/2000/svg" width="142" height="44" fill="#fff" fill-rule="nonzero"><path d="M12.243 43.262h-4.54c-.462 0-.67-.202-.67-.65V20.32c0-.405-.2-.6-.63-.6H.726c-.464 0-.673-.202-.673-.648v-3.366c0-.405.2-.607.673-.607h18.492c.42 0 .673.202.673.607v3.366c0 .445-.252.648-.673.648h-5.673c-.42 0-.63.202-.63.6v22.293c0 .447-.253.65-.673.65m16.64-23.51c-.505 0-.67.243-.67.65v7.457c0 .243.084.648.714.648h2.185c2.142-.16 3.827-1.054 3.827-4.377 0-3.243-2.144-4.38-4.12-4.38h-1.936v.002zm12.188 23.5h-4.96c-.2 0-.505-.202-.63-.488l-3.32-8.958c-.127-.364-.42-.648-.926-.648h-2.27c-.67.04-.755.486-.755.73v8.715c0 .406-.212.65-.632.65h-4.58c-.42 0-.673-.243-.673-.65V15.698c0-.405.252-.607.673-.607h7.944c5.8 0 10.004 2.635 10.004 8.795 0 3.972-1.43 6.203-3.068 7.5-.127.122-.2.323-.252.527 0 .16 0 .323.086.486l3.866 9.9c.04.122.125.243.125.365-.002.405-.2.607-.632.607zm21.265-7.124c0 4.945-3.404 7.782-9.332 7.782S43.6 41.073 43.6 36.128v-20.43c0-.405.2-.607.632-.607h4.58c.462 0 .674.202.674.607v20.066c0 1.742.922 3.527 3.53 3.527 2.7 0 3.447-1.783 3.447-3.527V15.698c0-.405.2-.607.673-.607h4.583c.42 0 .63.202.63.607l-.002 20.43zm17.598-20.43v3.366c0 .445-.2.65-.674.65h-7.355c-.42 0-.632.2-.632.6v6.04c0 .406.378.568.6.568h6.303c.423 0 .632.202.632.648v3.364c0 .406-.2.6-.632.6h-6.26c-.42 0-.632.202-.632.607v5.837c0 .405.212.607.632.607h7.355c.464 0 .674.202.674.6v3.405c0 .447-.2.65-.674.65H66.064c-.464 0-.673-.202-.673-.65V15.698c0-.405.2-.607.673-.607H79.26c.462 0 .673.202.673.607M86.82 24c-.07-.142-.166-.2-.3-.2-.212 0-.357.12-.357.357v7.05c0 .26-.118.378-.357.378H83.44c-.262 0-.382-.117-.382-.378v-15.7a.31.31 0 0 1 .359-.355h2.4c.143 0 .262.07.334.234l3.734 7.145c.048.12.166.215.334.215a.31.31 0 0 0 .357-.355v-6.884a.31.31 0 0 1 .359-.355h2.353c.264 0 .382.117.382.355V31.24c0 .238-.143.355-.382.355h-2.212c-.14 0-.262-.07-.334-.238L86.82 24zm14.135 7.97c-3.878 0-5.494-2.27-5.494-4.872V19.8c0-2.603 1.595-5.062 5.47-5.062s5.494 2.27 5.494 4.874v7.285c0 2.603-1.593 5.062-5.47 5.062zm-2.142-4.918c0 1.065.5 2.223 2.142 2.223 1.595 0 2.118-1.183 2.118-2.27V19.67c0-1.063-.5-2.223-2.142-2.223-1.6 0-2.118 1.183-2.118 2.27v7.333zm20.014 4.54h-2.806c-.12 0-.287-.117-.357-.284l-1.88-5.23a.52.52 0 0 0-.523-.378h-1.284c-.382.023-.428.284-.428.426v5.087c0 .234-.12.378-.357.378h-2.594c-.24 0-.382-.142-.382-.378V15.507c0-.238.143-.355.382-.355h4.495c3.282 0 5.662 1.536 5.662 5.133 0 2.317-.808 3.62-1.736 4.377-.07.07-.12.188-.143.307 0 .094 0 .2.046.286l2.2 5.77c.025.07.07.142.07.215a.31.31 0 0 1-.357.353zM111.93 17.87c-.285 0-.38.142-.38.378v4.354c0 .142.046.38.405.38h1.236c1.215-.096 2.166-.616 2.166-2.557 0-1.9-1.213-2.555-2.332-2.555h-1.095zm14.04 13.722h-2.57c-.262 0-.38-.117-.38-.378V18.203a.31.31 0 0 0-.357-.355h-3.2c-.262 0-.382-.12-.382-.38v-1.962c0-.238.12-.355.382-.355h10.466c.235 0 .38.117.38.355v1.962c0 .26-.143.38-.38.38h-3.2a.31.31 0 0 0-.359.355v13.012c.002.26-.14.378-.378.378zm8.382 0h-2.594c-.262 0-.382-.142-.382-.378v-15.7c0-.238.12-.355.382-.355h2.594a.31.31 0 0 1 .357.355v6.197a.31.31 0 0 0 .357.357h3.234c.24 0 .36-.12.36-.357v-6.197a.31.31 0 0 1 .357-.355h2.592c.264 0 .382.117.382.355v15.7c0 .234-.118.378-.382.378h-2.592c-.24 0-.357-.142-.357-.378V25.1a.31.31 0 0 0-.359-.355h-3.234c-.24 0-.357.117-.357.355v6.105c0 .234-.12.378-.357.378zM47.293 7.1a.4.4 0 0 0-.005-.055l-.67-3.634-.3-1.395c-.004-.018-.025-.053-.027-.053-.02-.025-.05-.04-.084-.04-.057 0-.105.046-.1.103l-.002.03-.193 2.138c-.01.13-.105.8-.244.94-.1.105-.294.257-.528.45l-.268.222a.48.48 0 0 1-.318.119.66.66 0 0 1-.319-.092l-1.05-.758h.004c-.012-.007-.023-.016-.034-.023l-.833-.6c-1.3-.974-2.578-2.05-4.014-2.482a3.19 3.19 0 0 0-1.582-.062 3.13 3.13 0 0 0-.321.078 3.24 3.24 0 0 0-.747.302c-.635.32-1.013.86-1.497 1.118h-.075c-.483-.26-.86-.797-1.497-1.118a3.16 3.16 0 0 0-.747-.302 2.71 2.71 0 0 0-.321-.078 3.19 3.19 0 0 0-1.582.062c-1.436.433-2.722 1.508-4.014 2.482l-.833.6c-.012.007-.023.016-.036.023h.004L24 5.823a.66.66 0 0 1-.319.092.49.49 0 0 1-.318-.119l-.27-.222-.528-.45c-.14-.133-.235-.813-.244-.94l-.196-2.168c-.005-.06-.054-.103-.1-.103-.034 0-.064.016-.084.04 0 0-.023.035-.025.053-.064.176-.186.72-.3 1.395l-.67 3.634c-.004.02-.005.04-.005.055-.007.087.057.154.1.177l3.66 1.545c.1.046.246.035.366.016l1.072-.224c.915-.158 1.8-.465 2.75-.44l2.155-.046s.194-.01.282-.046L33.97 6.95c.027-.01.057-.02.1-.02h.004c.034.002.064.01.1.02l2.663 1.123a1.23 1.23 0 0 0 .282.046l1.9.05.344-.004h.107c.872.016 1.634.3 2.5.44L43 8.83a.93.93 0 0 0 .212.016.53.53 0 0 0 .232-.032L47.18 7.27c.054-.023.116-.1.107-.174m70.684-2.553V2.166h.6c.262 0 .394.135.394.405v1.567c0 .27-.13.405-.394.405h-.6zm-2.34-4.297v10.113h2.337v-4.02h.573l.774 4.02h2.2l-1.245-4.726c.296-.135.52-.33.673-.587s.228-.507.228-.752V2.1a1.67 1.67 0 0 0-.196-.829 1.79 1.79 0 0 0-.52-.575 2.23 2.23 0 0 0-.737-.335 3.32 3.32 0 0 0-.831-.108h-3.265v.002zm8.038 1.1h.67a.2.2 0 0 1 .175.092.37.37 0 0 1 .062.204.41.41 0 0 1-.064.234c-.045.064-.102.096-.173.096h-.67v-.626zm0 1.682V2.24h.4l.442.797h.335l-.475-.802a.56.56 0 0 0 .357-.206.6.6 0 0 0 .132-.387.62.62 0 0 0-.137-.389c-.093-.117-.227-.176-.403-.176h-.963v1.96h.3zm-1.015-.986c0-.405.136-.743.405-1.015s.608-.408 1.015-.408.744.135 1 .405.4.6.4 1.017-.134.747-.4 1.018a1.36 1.36 0 0 1-1.011.408c-.407 0-.746-.137-1.015-.408a1.38 1.38 0 0 1-.405-1.017zm3.106 0a1.61 1.61 0 0 0-.483-1.194c-.323-.32-.724-.483-1.202-.483a1.63 1.63 0 0 0-1.202.483c-.323.32-.485.72-.485 1.194a1.62 1.62 0 0 0 .485 1.196 1.64 1.64 0 0 0 1.202.48 1.64 1.64 0 0 0 1.202-.481c.323-.32.483-.72.483-1.196z"/><path d="M79.8 10.356h4.692v-1.92h-2.307v-2.3h1.53v-1.92h-1.53V2.04h2.307V.245H79.8zm28.23 0h4.692v-1.92h-2.307v-2.3h1.53v-1.92h-1.53V2.04h2.307V.245h-4.692zm-3.96-9.67c-.216-.15-.462-.263-.737-.335a3.32 3.32 0 0 0-.833-.106h-3.24v10.1h3.24a3.33 3.33 0 0 0 .833-.106 2.23 2.23 0 0 0 .737-.335c.216-.153.4-.344.52-.575s.196-.507.196-.83V6.387c0-.245-.077-.468-.228-.67s-.382-.37-.685-.506c.305-.135.533-.305.685-.513s.228-.428.228-.664V2.1a1.67 1.67 0 0 0-.196-.829 1.79 1.79 0 0 0-.52-.575zm-1.48 7.358c0 .27-.136.405-.407.405h-.585V6.2h.585c.127 0 .227.03.298.1s.1.16.1.303v1.44zm0-4.097c0 .26-.136.392-.407.392h-.585V2.166h.585c.27 0 .407.135.407.405v1.377zm-10.788.9L90.798.245h-3.302v10.1h2.096V3.9l1.258 6.446h1.474l1.474-6.433v6.433h2.34V.245h-3.354zm-35.522 0L55.277.245h-3.304v10.1h2.096V3.9l1.26 6.446h1.474l1.474-6.433v6.433h2.337V.245H57.26zM68.085.795c-.262-.215-.57-.392-.922-.53s-.74-.208-1.16-.208a3.21 3.21 0 0 0-1.165.208 3.38 3.38 0 0 0-.93.53 2.51 2.51 0 0 0-.615.72c-.148.266-.223.525-.223.777V8.3c0 .252.075.5.223.777a2.51 2.51 0 0 0 .615.72c.262.215.57.392.93.53a3.22 3.22 0 0 0 1.165.208 3.16 3.16 0 0 0 1.16-.208c.353-.138.66-.316.922-.53a2.51 2.51 0 0 0 .615-.72c.148-.266.223-.525.223-.777V2.292a1.59 1.59 0 0 0-.223-.777 2.56 2.56 0 0 0-.615-.72zm-1.598 7.35c0 .135-.048.24-.144.318a.53.53 0 0 1-.341.114.55.55 0 0 1-.353-.114.38.38 0 0 1-.144-.318V2.457c0-.135.048-.24.144-.318a.55.55 0 0 1 .353-.114c.13 0 .244.037.34.114a.38.38 0 0 1 .144.318v5.686zm7.73-2.25l-.62-5.65h-2.54l1.984 10.1h2.248L77.27.245h-2.34z"/></svg>