<svg xmlns="http://www.w3.org/2000/svg" width="228" height="71" fill="#fff" fill-rule="nonzero"><path d="M19.658 69.8h-7.3c-.742 0-1.077-.326-1.077-1.048V32.8c0-.653-.338-.982-1-.982H1.166c-.745 0-1.08-.326-1.08-1.045v-5.43c0-.653.335-.98 1.08-.98h29.692c.673 0 1.08.326 1.08.98v5.43c0 .72-.404 1.045-1.08 1.045h-9.1c-.673 0-1 .326-1 .982v35.972c0 .72-.407 1.048-1.08 1.048m26.718-37.937c-.8 0-1.077.392-1.077 1.048v12.033c0 .392.135 1.045 1.146 1.045h3.5c3.44-.26 6.144-1.7 6.144-7.063 0-5.233-3.443-7.066-6.614-7.066h-3.108v.003zm19.57 37.936h-7.963c-.338 0-.8-.326-1-.787l-5.33-14.455c-.203-.587-.676-1.045-1.487-1.045H46.5c-1.077.066-1.212.784-1.212 1.177v14.063c0 .656-.34 1.048-1.014 1.048h-7.356c-.676 0-1.08-.392-1.08-1.048V25.33c0-.653.404-.98 1.08-.98h12.755c9.312 0 16.063 4.25 16.063 14.2 0 6.4-2.294 10-4.927 12.1-.203.198-.338.52-.404.85 0 .26 0 .52.137.784l6.207 15.96c.066.198.2.392.2.6-.003.653-.338.98-1.014.98zm34.142-11.51c0 7.98-5.465 12.557-14.983 12.557S70 66.277 70 58.298V25.33c0-.653.338-.98 1.014-.98h7.356c.742 0 1.083.326 1.083.98V57.7c0 2.8 1.48 5.7 5.666 5.7 4.32 0 5.534-2.877 5.534-5.7V25.33c0-.653.335-.98 1.08-.98h7.358c.673 0 1 .326 1 .98l-.003 32.966zm28.257-32.968v5.43c0 .72-.338 1.048-1.083 1.048h-11.8c-.673 0-1.014.324-1.014.982v9.745c0 .656.607.916.948.916h10.12c.68 0 1.014.326 1.014 1.045v5.428c0 .656-.335.982-1.014.982h-10.05c-.673 0-1.014.326-1.014.98v9.42c0 .653.34.98 1.014.98h11.8c.745 0 1.083.326 1.083.982v5.494c0 .72-.338 1.048-1.083 1.048h-21.2c-.745 0-1.08-.326-1.08-1.048V25.33c0-.653.335-.98 1.08-.98h21.2c.742 0 1.08.326 1.08.98M139.4 38.726a.49.49 0 0 0-.498-.306.52.52 0 0 0-.573.575v11.377c0 .42-.2.6-.573.6h-3.78c-.42 0-.613-.2-.613-.6v-25.35c0-.384.192-.573.576-.573h3.855c.23 0 .42.112.536.378l5.995 11.53a.56.56 0 0 0 .536.346c.384 0 .573-.192.573-.573V25.022c0-.384.192-.573.576-.573h3.778c.424 0 .613.2.613.573v25.385c0 .384-.23.573-.613.573h-3.552c-.226 0-.42-.115-.536-.384l-6.3-11.87zm22.698 12.86c-6.227 0-8.822-3.662-8.822-7.862V31.967c0-4.2 2.56-8.168 8.782-8.168 6.227 0 8.822 3.665 8.822 7.864V43.42c0 4.2-2.558 8.168-8.782 8.168zm-3.44-7.936c0 1.718.802 3.587 3.44 3.587 2.56 0 3.4-1.9 3.4-3.665V31.74c0-1.715-.802-3.587-3.44-3.587-2.555 0-3.4 1.9-3.4 3.665V43.65zm32.135 7.33h-4.506c-.192 0-.46-.2-.573-.458l-3.02-8.44c-.115-.34-.378-.6-.84-.6h-2.062c-.613.037-.687.458-.687.687v8.208c0 .378-.192.6-.573.6h-4.165c-.384 0-.613-.23-.613-.6V25.022c0-.384.23-.573.613-.573h7.218c5.27 0 9.1 2.48 9.1 8.282 0 3.74-1.298 5.84-2.787 7.063-.115.112-.192.303-.23.495 0 .152 0 .306.074.46l3.515 9.313c.04.115.115.23.115.346 0 .378-.2.57-.573.57zm-11.076-22.142c-.458 0-.6.23-.6.6v7.026c0 .23.074.613.65.613h1.985c1.95-.155 3.477-.993 3.477-4.125 0-3.052-1.948-4.123-3.744-4.123h-1.76zm22.54 22.142h-4.127c-.42 0-.6-.2-.6-.6V29.373c0-.384-.2-.573-.573-.573h-5.156c-.42 0-.613-.192-.613-.613V25.02c0-.384.192-.573.613-.573h16.805c.378 0 .6.2.6.573v3.166c0 .42-.23.613-.6.613h-5.156c-.384 0-.576.2-.576.573V50.37c.003.418-.223.6-.607.6zm13.457 0h-4.165c-.42 0-.613-.23-.613-.6V25.022c0-.384.192-.573.613-.573h4.165c.378 0 .573.2.573.573v10c0 .384.2.575.573.575h5.193c.384 0 .576-.192.576-.575v-10c0-.384.2-.573.573-.573h4.162c.424 0 .613.2.613.573V50.37c0 .378-.2.6-.613.6h-4.162c-.384 0-.573-.23-.573-.6v-9.85c0-.384-.192-.573-.576-.573h-5.193c-.384 0-.573.2-.573.573v9.85c0 .378-.192.6-.573.6zM75.936 11.443a.54.54 0 0 0-.009-.089L74.853 5.5l-.498-2.25a.29.29 0 0 0-.043-.086c-.034-.04-.08-.066-.135-.066-.092 0-.17.074-.178.166l-.003.05-.3 3.45c-.014.2-.17 1.305-.392 1.517a20.23 20.23 0 0 1-.848.727l-.43.358a.77.77 0 0 1-.51.192c-.212 0-.398-.083-.513-.15L69.3 8.176h.006c-.02-.01-.037-.026-.054-.037l-1.338-.953c-2.07-1.572-4.14-3.307-6.445-4.005a5.1 5.1 0 0 0-2.54-.1c-.24.046-.42.097-.516.126a5.18 5.18 0 0 0-1.2.487c-1.02.518-1.627 1.386-2.403 1.804h-.12c-.776-.418-1.38-1.285-2.403-1.804-.338-.192-.73-.36-1.2-.487a4.72 4.72 0 0 0-.516-.126c-.805-.166-1.664-.166-2.54.1-2.306.7-4.37 2.433-6.445 4.005l-1.338.953c-.02.01-.037.026-.057.037h.006L38.522 9.4c-.115.066-.3.15-.513.15a.74.74 0 0 1-.5-.192L37.076 9l-.848-.727c-.223-.215-.378-1.3-.392-1.517l-.3-3.45-.006-.05a.18.18 0 0 0-.178-.166c-.054 0-.103.026-.135.066 0 0-.037.057-.04.086-.103.283-.298 1.162-.498 2.25l-1.077 5.863a.54.54 0 0 0-.009.089c-.01.14.092.25.175.286l5.878 2.494c.175.074.395.057.587.026l1.72-.36c1.47-.255 2.904-.75 4.417-.7l3.46-.074s.312-.017.453-.074l4.276-1.812a.39.39 0 0 1 .146-.031h.006c.054.003.103.014.146.03l4.276 1.812c.14.057.453.074.453.074l3.033.08.553-.006h.172c1.4.026 2.624.47 3.996.7l1.72.36c.1.02.226.03.34.026.13.006.26-.003.372-.052l6-2.494c.086-.037.186-.143.172-.28M189.42 7.33V3.496h.98c.42 0 .633.218.633.653v2.528c0 .435-.2.653-.633.653h-.98zM185.665.395v16.32h3.752v-6.487h.92l1.243 6.484h3.55l-2-7.627c.475-.218.836-.533 1.08-.948s.367-.82.367-1.214v-3.55c0-.515-.106-.962-.315-1.337s-.5-.68-.836-.928-.742-.427-1.183-.54-.888-.175-1.335-.175h-5.242v.003zm12.905 1.792h1.077a.32.32 0 0 1 .281.149c.066.1.1.2.1.33a.66.66 0 0 1-.103.378c-.07.103-.163.155-.278.155h-1.077v-1zm0 2.714V3.616h.66l.7 1.285h.538l-.762-1.294c.24-.034.43-.146.573-.332a1 1 0 0 0 .212-.624c0-.23-.074-.438-.22-.627s-.364-.283-.647-.283h-1.547V4.9h.484zm-1.63-1.6c0-.653.218-1.2.65-1.638s.977-.658 1.63-.658 1.194.218 1.624.653.642.982.642 1.64-.215 1.205-.642 1.643-.97.658-1.624.658-1.197-.22-1.63-.658-.65-.982-.65-1.64zm4.987 0c0-.767-.258-1.4-.776-1.927s-1.163-.78-1.93-.78-1.412.258-1.93.78-.78 1.16-.78 1.927a2.62 2.62 0 0 0 .779 1.93c.518.518 1.163.776 1.93.776s1.4-.258 1.93-.776.776-1.162.776-1.93z"/><path d="M128.13 16.7h7.533v-3.1h-3.704V9.9h2.455V6.8h-2.455V3.3h3.704V.395h-7.533zm45.325 0h7.533v-3.1h-3.704V9.9h2.455V6.8h-2.455V3.3h3.704V.395h-7.533zm-6.36-15.602c-.347-.243-.742-.424-1.183-.54a5.31 5.31 0 0 0-1.338-.172h-5.202V16.7h5.202c.45 0 .894-.057 1.338-.172s.836-.295 1.183-.54a2.83 2.83 0 0 0 .836-.928c.212-.373.315-.82.315-1.337v-3.427a1.77 1.77 0 0 0-.367-1.082c-.243-.326-.613-.598-1.1-.816.5-.218.856-.492 1.1-.827s.367-.7.367-1.07V3.373c0-.515-.106-.962-.315-1.337s-.5-.68-.836-.928zM164.72 12.98c0 .435-.218.653-.653.653h-.94v-3.6h.94c.203 0 .364.05.478.143s.175.258.175.5V13zm0-6.6c0 .42-.218.633-.653.633h-.94V3.496h.94c.435 0 .653.218.653.653v2.22zM147.4 7.84L145.788.395h-5.302V16.7h3.366V6.3l2.02 10.4h2.366l2.366-10.38V16.7h3.755V.395h-5.385zm-57.034 0L88.754.395H83.45V16.7h3.366V6.3l2.022 10.4h2.366L93.57 6.33V16.7h3.752V.395h-5.385zm18.954-6.557c-.42-.346-.914-.633-1.48-.856s-1.2-.335-1.862-.335a5.12 5.12 0 0 0-1.87.335c-.576.223-1.07.5-1.492.856s-.75.733-.988 1.162-.358.847-.358 1.254v9.708c0 .407.12.825.358 1.254s.567.816.988 1.162a5.41 5.41 0 0 0 1.492.856 5.11 5.11 0 0 0 1.87.335 5.06 5.06 0 0 0 1.862-.335c.57-.223 1.06-.5 1.48-.856s.75-.733.988-1.162.358-.847.358-1.254V3.7c0-.407-.12-.827-.358-1.254s-.57-.816-.988-1.162zm-2.566 11.858a.62.62 0 0 1-.232.512c-.155.123-.335.183-.547.183a.88.88 0 0 1-.567-.183c-.155-.123-.232-.292-.232-.512V3.965a.62.62 0 0 1 .232-.512.88.88 0 0 1 .567-.183.85.85 0 0 1 .547.183c.155.123.232.292.232.512v9.176zm12.4-3.63l-.997-9.115h-4.08l3.185 16.316h3.6L124.068.395H120.3z"/></svg>