<svg xmlns="http://www.w3.org/2000/svg" xmlns:xlink="http://www.w3.org/1999/xlink" width="100" height="48"><defs><path d="M13.414 40.816v4c0 .6.13 1.023.39 1.263s.622.363 1.086.363.83-.123 1.093-.363.393-.663.393-1.263h.007v-4h.965v4c0 .893-.22 1.538-.66 1.94s-1.036.6-1.793.6c-.74 0-1.33-.198-1.776-.6s-.668-1.048-.668-1.94v-4h.965zm50.974-.204c.393 0 .747.064 1.067.193s.58.308.785.522a2.93 2.93 0 0 1 .514.773c.14.297.236.6.3.912a5.11 5.11 0 0 1 .09.966c0 .333-.03.655-.1.966s-.16.615-.3.912-.31.558-.514.773-.466.393-.785.522-.674.197-1.067.197-.747-.064-1.067-.197-.58-.304-.785-.522a2.93 2.93 0 0 1-.514-.773c-.14-.297-.24-.6-.3-.912a4.84 4.84 0 0 1-.09-.966 4.89 4.89 0 0 1 .09-.966c.063-.31.16-.615.3-.912a2.93 2.93 0 0 1 .514-.773c.205-.218.466-.4.785-.522s.674-.193 1.067-.193zm18.507 0c.57 0 1.038.125 1.415.376s.636.558.786.916l-.878.408c-.167-.268-.352-.46-.55-.587s-.46-.186-.77-.186c-.306 0-.576.072-.803.222a1.46 1.46 0 0 0-.526.594 3.15 3.15 0 0 0-.274.776c-.06.268-.09.547-.09.84 0 .644.142 1.212.434 1.702a1.38 1.38 0 0 0 1.258.733c.544 0 .98-.28 1.312-.826l.896.343c-.405.95-1.14 1.423-2.207 1.423-.387 0-.736-.064-1.05-.197s-.57-.304-.768-.522-.37-.476-.505-.773a3.92 3.92 0 0 1-.284-.912c-.057-.308-.085-.63-.085-.966a4.55 4.55 0 0 1 .149-1.162 4.18 4.18 0 0 1 .448-1.073c.203-.34.48-.612.842-.82s.775-.31 1.25-.31zm-10.65.204v4.266c0 .427-.06.794-.186 1.104a1.66 1.66 0 0 1-.508.706c-.21.162-.435.28-.663.35a2.5 2.5 0 0 1-.732.106c-.452 0-.856-.102-1.202-.3s-.61-.508-.79-.9l.808-.402c.22.466.615.7 1.184.7.345 0 .625-.106.84-.318s.318-.6.318-1.16v-4.14h.932zm18.98 0v.904h-1.78v5.423h-.932V41.72h-1.78v-.904h4.5zm-49.82 0c.544 0 1.02.1 1.43.27s.732.424.967.73.41.643.52 1.008.17.747.17 1.158c0 .393-.057.76-.164 1.116s-.277.685-.505 1-.55.57-.974.758-.917.285-1.482.285h-1.774v-6.327h1.813zm-30.792 0v.886h-2.95v1.735h1.904v.886H7.663v2.82h-.928v-6.327h3.878zm40.537 0c.726 0 1.263.188 1.6.563.346.372.515.83.515 1.373 0 .504-.176.956-.533 1.345s-.885.587-1.587.587h-1.622v2.458h-.952v-6.327h2.578zm6.612 0c.714 0 1.234.177 1.553.532s.482.803.482 1.338a1.91 1.91 0 0 1-.347 1.109c-.232.334-.572.56-1.023.68l1.297 2.666h-1.07l-1.245-2.586h-1.37v2.586h-.936v-6.327h2.66zm-37.4 0l2.726 4.22a6.24 6.24 0 0 1 .267.487c-.02-.18-.028-.34-.028-.48v-4.227h.96v6.327h-.906l-2.8-4.293c-.09-.136-.174-.292-.26-.473l.028.473v4.293h-.96v-6.327h.974zm7.982 0c.544 0 1.02.1 1.43.27s.732.424.967.73a3.25 3.25 0 0 1 .519 1.008c.114.362.17.747.17 1.158 0 .393-.057.76-.164 1.116s-.277.685-.505 1-.55.57-.974.758-.917.285-1.482.285H26.53v-6.327h1.813zm9.01 0v.886H34.4v1.735h1.908v.886H34.4v1.936h3.152v.883H33.47v-6.327h3.885zm41.02 0v.886H75.42v1.735h1.908v.886H75.42v1.936h3.152v.883H74.5v-6.327h3.885zm-13.987.73c-.313 0-.59.08-.83.23s-.427.354-.56.6a3.17 3.17 0 0 0-.292.776 3.69 3.69 0 0 0-.094.833c0 .297.03.583.094.858s.16.533.292.776a1.55 1.55 0 0 0 .559.579 1.56 1.56 0 0 0 .83.218c.313 0 .59-.08.83-.23s.427-.354.56-.6a3.17 3.17 0 0 0 .292-.776 3.48 3.48 0 0 0 .097-.833c0-.297-.035-.583-.097-.858s-.16-.533-.292-.776a1.55 1.55 0 0 0-.559-.579 1.56 1.56 0 0 0-.83-.218zm-35.82.154h-1.073v4.554h.97c.352 0 .66-.066.924-.202s.47-.316.618-.542a2.41 2.41 0 0 0 .323-.723c.068-.254.103-.525.103-.8 0-.633-.16-1.17-.473-1.613s-.778-.664-1.393-.664zm13.065 0H40.56v4.554h.97c.352 0 .66-.066.924-.202s.47-.316.618-.542a2.41 2.41 0 0 0 .323-.723c.068-.254.1-.525.103-.8 0-.633-.16-1.17-.473-1.613s-.778-.664-1.393-.664zm9.57.02h-1.68v2.06h1.68c.367 0 .638-.1.81-.302s.26-.445.26-.727c0-.27-.08-.51-.25-.72s-.444-.313-.822-.313zm6.576 0h-1.74v1.933h1.74c.36 0 .627-.1.794-.275s.253-.417.253-.692a1.02 1.02 0 0 0-.239-.681c-.16-.19-.43-.285-.808-.285zM19.092 19.388c.57 0 1.095.092 1.577.282a4.72 4.72 0 0 1 1.254.723c.354.29.634.617.836.98a2.15 2.15 0 0 1 .301 1.058v8.2c0 .342-.1.698-.3 1.058a3.5 3.5 0 0 1-.836.981c-.358.29-.776.533-1.254.72a4.32 4.32 0 0 1-1.577.282c-.57 0-1.102-.092-1.588-.282s-.907-.43-1.265-.723a3.5 3.5 0 0 1-.836-.981 2.15 2.15 0 0 1-.301-1.058v-8.198a2.15 2.15 0 0 1 .301-1.058 3.5 3.5 0 0 1 .836-.981c.358-.293.776-.533 1.265-.723s1.017-.282 1.588-.282zm71.64.204a4.39 4.39 0 0 1 1.124.147 3.03 3.03 0 0 1 .994.452 2.45 2.45 0 0 1 .703.777c.176.315.267.686.267 1.12v2.976c0 .33-.105.67-.31 1.015s-.5.613-.907.795l1.68 6.392h-2.983l-1.047-5.436h-.773v5.436h-3.156V19.592h4.407zm-46.65 0v2.426h-3.11v2.94h2.064v2.597H40.97v3.112h3.11v2.597h-6.327V19.592h6.327zm38.163 0v2.426h-3.112v2.94h2.063v2.597h-2.063v3.112h3.112v2.597h-6.327V19.592h6.327zm-13.737 0a4.63 4.63 0 0 1 1.138.147c.373.095.71.25 1.006.452a2.38 2.38 0 0 1 .711.777c.18.315.27.686.27 1.12v2.632c0 .315-.107.616-.313.896s-.523.51-.94.693c.42.182.73.4.94.683s.313.578.313.907v2.87c0 .434-.092.81-.27 1.12a2.38 2.38 0 0 1-.711.777c-.295.203-.63.354-1.006.452a4.51 4.51 0 0 1-1.138.147h-4.426V19.592h4.426zm-15.897 0l1.353 6.238 1.318-6.238h4.514v13.673H56.65v-8.703l-1.984 8.703H52.68l-1.693-8.717v8.717h-2.825V19.592h4.448zm-48.163 0l1.35 6.238 1.318-6.238h4.518v13.673H8.485v-8.703l-1.984 8.703H4.518L2.82 24.55v8.717H0V19.592h4.448zm24.888 0l.838 7.638.96-7.638h3.15l-2.67 13.673H28.59l-2.67-13.673h3.418zM19.09 22.07c-.19 0-.35.053-.482.155s-.195.25-.195.434v7.746c0 .183.064.328.195.43s.29.155.482.155c.177 0 .333-.05.464-.155s.195-.247.195-.43v-7.746a.52.52 0 0 0-.195-.434c-.13-.102-.287-.155-.464-.155zm48.985 5.59h-.796v3.025h.796c.37 0 .555-.182.555-.546v-1.95c0-.193-.046-.33-.146-.4a.65.65 0 0 0-.409-.119zm22.23-5.468h-.822v3.214h.822c.355 0 .53-.182.53-.546v-2.12c0-.364-.176-.546-.53-.546zm-22.23 0h-.796v2.94h.796c.37 0 .555-.18.555-.532v-1.862c0-.364-.185-.546-.555-.546zm29.68-2.393c.637 0 1.17.215 1.6.644s.644.963.644 1.6-.215 1.17-.644 1.6-.963.644-1.6.644-1.17-.215-1.6-.644-.644-.963-.644-1.6.215-1.17.644-1.6.963-.644 1.6-.644zm0 .336c-.54 0-.99.184-1.35.547s-.54.818-.54 1.358c0 .547.18 1 .54 1.365s.81.547 1.35.547.987-.184 1.344-.547.534-.818.534-1.368-.18-1-.534-1.36-.804-.54-1.344-.54zm.286.684c.24 0 .424.077.547.238s.187.333.187.526a.83.83 0 0 1-.18.522.7.7 0 0 1-.484.28l.646 1.086h-.455l-.6-1.08h-.558v1.08h-.4v-2.653h1.306zm.014.375h-.91v.848h.91c.095 0 .173-.046.233-.13s.088-.19.088-.315c0-.102-.028-.193-.085-.277s-.134-.126-.237-.126zM40.948.83c.873-.27 1.73-.27 2.534-.102.244.046.42.095.516.127a5.08 5.08 0 0 1 1.198.493c1.018.524 1.622 1.4 2.396 1.823h.12c.774-.422 1.378-1.298 2.396-1.823a5.08 5.08 0 0 1 1.198-.493l.516-.127c.802-.165 1.66-.165 2.534.102 2.3.704 4.36 2.46 6.428 4.046l1.336.96c.018.014.035.025.057.04L63.85 7.11c.113.067.3.15.51.15.184 0 .357-.063.51-.194l.43-.362.845-.732c.223-.218.378-1.323.392-1.534l.31-3.533.012-.054c.026-.068.09-.115.164-.115.053 0 .102.025.134.063.004 0 .04.06.042.088.102.285.3 1.175.498 2.273l1.07 5.925.007.09a.3.3 0 0 1-.177.289l-5.982 2.52c-.113.046-.24.056-.37.05-.113.007-.233-.007-.332-.02l-1.717-.366c-1.368-.243-2.587-.693-3.986-.718h-.173l-.55.007c-1.004.007-2.01-.046-3.025-.08 0 0-.31-.018-.452-.077l-4.262-1.83a.34.34 0 0 0-.148-.035.39.39 0 0 0-.155.035l-4.265 1.83c-.14.06-.452.077-.452.077l-3.45.074c-1.505-.042-2.94.457-4.403.714l-1.717.366c-.19.035-.4.05-.587-.025l-.43-.183-5.43-2.336c-.085-.035-.187-.144-.173-.28-.004-.035-.004-.063.004-.1l1.074-5.925L28.107.9c.007-.028.042-.088.042-.088.032-.04.08-.063.134-.063.092 0 .166.074.177.17l.004.05.31 3.483c.014.21.166 1.316.39 1.534l.845.732.43.362a.76.76 0 0 0 .509.194c.208 0 .396-.084.51-.15l1.682-1.235c.01-.014.028-.025.05-.04l1.336-.96C36.587 3.3 38.65 1.538 40.948.83z" id="B"/></defs><g fill-rule="evenodd"><g fill="#000" fill-rule="nonzero"><path d="M13.414 40.816v4c0 .6.13 1.023.39 1.263s.622.363 1.086.363.83-.123 1.093-.363.393-.663.393-1.263h.007v-4h.965v4c0 .893-.22 1.538-.66 1.94s-1.036.6-1.793.6c-.74 0-1.33-.198-1.776-.6s-.668-1.048-.668-1.94v-4h.965zm50.974-.204c.393 0 .747.064 1.067.193s.58.308.785.522a2.93 2.93 0 0 1 .514.773c.14.297.236.6.3.912a5.11 5.11 0 0 1 .09.966c0 .333-.03.655-.1.966s-.16.615-.3.912-.31.558-.514.773-.466.393-.785.522-.674.197-1.067.197-.747-.064-1.067-.197-.58-.304-.785-.522a2.93 2.93 0 0 1-.514-.773c-.14-.297-.24-.6-.3-.912a4.84 4.84 0 0 1-.09-.966 4.89 4.89 0 0 1 .09-.966c.063-.31.16-.615.3-.912a2.93 2.93 0 0 1 .514-.773c.205-.218.466-.4.785-.522s.674-.193 1.067-.193zm18.507 0c.57 0 1.038.125 1.415.376s.636.558.786.916l-.878.408c-.167-.268-.352-.46-.55-.587s-.46-.186-.77-.186c-.306 0-.576.072-.803.222a1.46 1.46 0 0 0-.526.594 3.15 3.15 0 0 0-.274.776c-.06.268-.09.547-.09.84 0 .644.142 1.212.434 1.702a1.38 1.38 0 0 0 1.258.733c.544 0 .98-.28 1.312-.826l.896.343c-.405.95-1.14 1.423-2.207 1.423-.387 0-.736-.064-1.05-.197s-.57-.304-.768-.522-.37-.476-.505-.773a3.92 3.92 0 0 1-.284-.912c-.057-.308-.085-.63-.085-.966a4.55 4.55 0 0 1 .149-1.162 4.18 4.18 0 0 1 .448-1.073c.203-.34.48-.612.842-.82s.775-.31 1.25-.31zm-10.65.204v4.266c0 .427-.06.794-.186 1.104a1.66 1.66 0 0 1-.508.706c-.21.162-.435.28-.663.35a2.5 2.5 0 0 1-.732.106c-.452 0-.856-.102-1.202-.3s-.61-.508-.79-.9l.808-.402c.22.466.615.7 1.184.7.345 0 .625-.106.84-.318s.318-.6.318-1.16v-4.14h.932zm18.98 0v.904h-1.78v5.423h-.932V41.72h-1.78v-.904h4.5zm-49.82 0c.544 0 1.02.1 1.43.27s.732.424.967.73.41.643.52 1.008.17.747.17 1.158c0 .393-.057.76-.164 1.116s-.277.685-.505 1-.55.57-.974.758-.917.285-1.482.285h-1.774v-6.327h1.813zm-30.792 0v.886h-2.95v1.735h1.904v.886H7.663v2.82h-.928v-6.327h3.878zm40.537 0c.726 0 1.263.188 1.6.563.346.372.515.83.515 1.373 0 .504-.176.956-.533 1.345s-.885.587-1.587.587h-1.622v2.458h-.952v-6.327h2.578zm6.612 0c.714 0 1.234.177 1.553.532s.482.803.482 1.338a1.91 1.91 0 0 1-.347 1.109c-.232.334-.572.56-1.023.68l1.297 2.666h-1.07l-1.245-2.586h-1.37v2.586h-.936v-6.327h2.66zm-37.4 0l2.726 4.22a6.24 6.24 0 0 1 .267.487c-.02-.18-.028-.34-.028-.48v-4.227h.96v6.327h-.906l-2.8-4.293c-.09-.136-.174-.292-.26-.473l.028.473v4.293h-.96v-6.327h.974zm7.982 0c.544 0 1.02.1 1.43.27s.732.424.967.73a3.25 3.25 0 0 1 .519 1.008c.114.362.17.747.17 1.158 0 .393-.057.76-.164 1.116s-.277.685-.505 1-.55.57-.974.758-.917.285-1.482.285H26.53v-6.327h1.813zm9.01 0v.886H34.4v1.735h1.908v.886H34.4v1.936h3.152v.883H33.47v-6.327h3.885zm41.02 0v.886H75.42v1.735h1.908v.886H75.42v1.936h3.152v.883H74.5v-6.327h3.885zm-13.987.73c-.313 0-.59.08-.83.23s-.427.354-.56.6a3.17 3.17 0 0 0-.292.776 3.69 3.69 0 0 0-.094.833c0 .297.03.583.094.858s.16.533.292.776a1.55 1.55 0 0 0 .559.579 1.56 1.56 0 0 0 .83.218c.313 0 .59-.08.83-.23s.427-.354.56-.6a3.17 3.17 0 0 0 .292-.776 3.48 3.48 0 0 0 .097-.833c0-.297-.035-.583-.097-.858s-.16-.533-.292-.776a1.55 1.55 0 0 0-.559-.579 1.56 1.56 0 0 0-.83-.218zm-35.82.154h-1.073v4.554h.97c.352 0 .66-.066.924-.202s.47-.316.618-.542a2.41 2.41 0 0 0 .323-.723c.068-.254.103-.525.103-.8 0-.633-.16-1.17-.473-1.613s-.778-.664-1.393-.664zm13.065 0H40.56v4.554h.97c.352 0 .66-.066.924-.202s.47-.316.618-.542a2.41 2.41 0 0 0 .323-.723c.068-.254.1-.525.103-.8 0-.633-.16-1.17-.473-1.613s-.778-.664-1.393-.664zm9.57.02h-1.68v2.06h1.68c.367 0 .638-.1.81-.302s.26-.445.26-.727c0-.27-.08-.51-.25-.72s-.444-.313-.822-.313zm6.576 0h-1.74v1.933h1.74c.36 0 .627-.1.794-.275s.253-.417.253-.692a1.02 1.02 0 0 0-.239-.681c-.16-.19-.43-.285-.808-.285zM19.092 19.388c.57 0 1.095.092 1.577.282a4.72 4.72 0 0 1 1.254.723c.354.29.634.617.836.98a2.15 2.15 0 0 1 .301 1.058v8.2c0 .342-.1.698-.3 1.058a3.5 3.5 0 0 1-.836.981c-.358.29-.776.533-1.254.72a4.32 4.32 0 0 1-1.577.282c-.57 0-1.102-.092-1.588-.282s-.907-.43-1.265-.723a3.5 3.5 0 0 1-.836-.981 2.15 2.15 0 0 1-.301-1.058v-8.198a2.15 2.15 0 0 1 .301-1.058 3.5 3.5 0 0 1 .836-.981c.358-.293.776-.533 1.265-.723s1.017-.282 1.588-.282zm71.64.204a4.39 4.39 0 0 1 1.124.147 3.03 3.03 0 0 1 .994.452 2.45 2.45 0 0 1 .703.777c.176.315.267.686.267 1.12v2.976c0 .33-.105.67-.31 1.015s-.5.613-.907.795l1.68 6.392h-2.983l-1.047-5.436h-.773v5.436h-3.156V19.592h4.407zm-46.65 0v2.426h-3.11v2.94h2.064v2.597H40.97v3.112h3.11v2.597h-6.327V19.592h6.327zm38.163 0v2.426h-3.112v2.94h2.063v2.597h-2.063v3.112h3.112v2.597h-6.327V19.592h6.327zm-13.737 0a4.63 4.63 0 0 1 1.138.147c.373.095.71.25 1.006.452a2.38 2.38 0 0 1 .711.777c.18.315.27.686.27 1.12v2.632c0 .315-.107.616-.313.896s-.523.51-.94.693c.42.182.73.4.94.683s.313.578.313.907v2.87c0 .434-.092.81-.27 1.12a2.38 2.38 0 0 1-.711.777c-.295.203-.63.354-1.006.452a4.51 4.51 0 0 1-1.138.147h-4.426V19.592h4.426zm-15.897 0l1.353 6.238 1.318-6.238h4.514v13.673H56.65v-8.703l-1.984 8.703H52.68l-1.693-8.717v8.717h-2.825V19.592h4.448zm-48.163 0l1.35 6.238 1.318-6.238h4.518v13.673H8.485v-8.703l-1.984 8.703H4.518L2.82 24.55v8.717H0V19.592h4.448zm24.888 0l.838 7.638.96-7.638h3.15l-2.67 13.673H28.59l-2.67-13.673h3.418zM19.09 22.07c-.19 0-.35.053-.482.155s-.195.25-.195.434v7.746c0 .183.064.328.195.43s.29.155.482.155c.177 0 .333-.05.464-.155s.195-.247.195-.43v-7.746a.52.52 0 0 0-.195-.434c-.13-.102-.287-.155-.464-.155zm48.985 5.59h-.796v3.025h.796c.37 0 .555-.182.555-.546v-1.95c0-.193-.046-.33-.146-.4a.65.65 0 0 0-.409-.119zm22.23-5.468h-.822v3.214h.822c.355 0 .53-.182.53-.546v-2.12c0-.364-.176-.546-.53-.546zm-22.23 0h-.796v2.94h.796c.37 0 .555-.18.555-.532v-1.862c0-.364-.185-.546-.555-.546zm29.68-2.393c.637 0 1.17.215 1.6.644s.644.963.644 1.6-.215 1.17-.644 1.6-.963.644-1.6.644-1.17-.215-1.6-.644-.644-.963-.644-1.6.215-1.17.644-1.6.963-.644 1.6-.644zm0 .336c-.54 0-.99.184-1.35.547s-.54.818-.54 1.358c0 .547.18 1 .54 1.365s.81.547 1.35.547.987-.184 1.344-.547.534-.818.534-1.368-.18-1-.534-1.36-.804-.54-1.344-.54zm.286.684c.24 0 .424.077.547.238s.187.333.187.526a.83.83 0 0 1-.18.522.7.7 0 0 1-.484.28l.646 1.086h-.455l-.6-1.08h-.558v1.08h-.4v-2.653h1.306zm.014.375h-.91v.848h.91c.095 0 .173-.046.233-.13s.088-.19.088-.315c0-.102-.028-.193-.085-.277s-.134-.126-.237-.126zM40.948.83c.873-.27 1.73-.27 2.534-.102.244.046.42.095.516.127a5.08 5.08 0 0 1 1.198.493c1.018.524 1.622 1.4 2.396 1.823h.12c.774-.422 1.378-1.298 2.396-1.823a5.08 5.08 0 0 1 1.198-.493l.516-.127c.802-.165 1.66-.165 2.534.102 2.3.704 4.36 2.46 6.428 4.046l1.336.96c.018.014.035.025.057.04L63.85 7.11c.113.067.3.15.51.15.184 0 .357-.063.51-.194l.43-.362.845-.732c.223-.218.378-1.323.392-1.534l.31-3.533.012-.054c.026-.068.09-.115.164-.115.053 0 .102.025.134.063.004 0 .04.06.042.088.102.285.3 1.175.498 2.273l1.07 5.925.007.09a.3.3 0 0 1-.177.289l-5.982 2.52c-.113.046-.24.056-.37.05-.113.007-.233-.007-.332-.02l-1.717-.366c-1.368-.243-2.587-.693-3.986-.718h-.173l-.55.007c-1.004.007-2.01-.046-3.025-.08 0 0-.31-.018-.452-.077l-4.262-1.83a.34.34 0 0 0-.148-.035.39.39 0 0 0-.155.035l-4.265 1.83c-.14.06-.452.077-.452.077l-3.45.074c-1.505-.042-2.94.457-4.403.714l-1.717.366c-.19.035-.4.05-.587-.025l-.43-.183-5.43-2.336c-.085-.035-.187-.144-.173-.28-.004-.035-.004-.063.004-.1l1.074-5.925L28.107.9c.007-.028.042-.088.042-.088.032-.04.08-.063.134-.063.092 0 .166.074.177.17l.004.05.31 3.483c.014.21.166 1.316.39 1.534l.845.732.43.362a.76.76 0 0 0 .509.194c.208 0 .396-.084.51-.15l1.682-1.235c.01-.014.028-.025.05-.04l1.336-.96C36.587 3.3 38.65 1.538 40.948.83z" id="B"/></g><mask id="C" fill="#fff"><use xlink:href="#B"/></mask><g mask="url(#C)" fill="#fff" fill-rule="nonzero"><path d="M0 0h100v47.347H0z"/></g></g></svg>