<?xml version="1.0" encoding="UTF-8"?>
<svg width="108px" height="48px" viewBox="0 0 108 48" version="1.1" xmlns="http://www.w3.org/2000/svg" xmlns:xlink="http://www.w3.org/1999/xlink">
    <!-- Generator: Sketch 48.2 (47327) - http://www.bohemiancoding.com/sketch -->
    <title>Combined-Shape</title>
    <desc>Created with Sketch.</desc>
    <defs></defs>
    <g id="Page-1" stroke="none" stroke-width="1" fill="none" fill-rule="evenodd">
        <g id="mo-funded" fill="#000000" fill-rule="nonzero">
            <g id="Combined-Shape">
                <path d="M14.486652,40.8163265 L14.486652,44.8066682 C14.486652,45.4064543 14.6255527,45.8298327 14.907212,46.0697472 C15.1850132,46.3131898 15.5785648,46.433147 16.08015,46.433147 C16.5817354,46.433147 16.975287,46.3096616 17.2608047,46.0697472 C17.5424642,45.8263046 17.685223,45.4064543 17.685223,44.8066682 L17.6929397,44.8066682 L17.6929397,40.8163265 L18.7346939,40.8163265 L18.7346939,44.8066682 C18.7346939,45.6992911 18.4954763,46.3449432 18.0208994,46.7471527 C17.5463225,47.145834 16.9019783,47.3469388 16.0840084,47.3469388 C15.2853303,47.3469388 14.6487027,47.1493622 14.1664091,46.7471527 C13.6841156,46.3449432 13.444898,45.6992911 13.444898,44.8066682 L13.444898,40.8163265 L14.486652,40.8163265 Z M69.5387755,40.6122449 C69.9627764,40.6122449 70.3455028,40.6766233 70.690707,40.80538 C71.0359111,40.9377134 71.3173276,41.1129656 71.5387086,41.3275602 C71.7600896,41.5457314 71.9439484,41.8032449 72.0940371,42.1001008 C72.2441259,42.3969567 72.349188,42.7009657 72.416728,43.0121278 C72.4805157,43.3197134 72.5142857,43.6416053 72.5142857,43.9778035 C72.5142857,44.3104252 72.4805157,44.6323171 72.416728,44.9434793 C72.349188,45.2546414 72.2441259,45.5586504 72.0940371,45.8555063 C71.9439484,46.1559387 71.7600896,46.4134523 71.5387086,46.6280469 C71.3173276,46.846218 71.0359111,47.0214703 70.690707,47.1502271 C70.3455028,47.2825604 69.9627764,47.3469388 69.5387755,47.3469388 C69.1147746,47.3469388 68.7320482,47.2825604 68.3868441,47.1502271 C68.0416399,47.0178937 67.7602234,46.846218 67.5388424,46.6280469 C67.3174614,46.4098757 67.1336027,46.1523622 66.9835139,45.8555063 C66.8334251,45.5586504 66.7246108,45.2546414 66.660823,44.9434793 C66.5932831,44.6358937 66.5632653,44.3140018 66.5632653,43.9778035 C66.5632653,43.6451819 66.5932831,43.32329 66.660823,43.0121278 C66.728363,42.7009657 66.8334251,42.3969567 66.9835139,42.1001008 C67.1336027,41.8032449 67.3174614,41.5457314 67.5388424,41.3275602 C67.7602234,41.1093891 68.0416399,40.9377134 68.3868441,40.80538 C68.7320482,40.6766233 69.1147746,40.6122449 69.5387755,40.6122449 Z M89.526341,40.6122449 C90.1405409,40.6122449 90.6472557,40.7374251 91.0541631,40.9877854 C91.4572318,41.2381458 91.7412991,41.5457314 91.9025266,41.9033891 L90.9543556,42.3111188 C90.7739344,42.0428756 90.5743194,41.8497404 90.3593496,41.7245602 C90.1443797,41.5993801 89.864151,41.5385783 89.526341,41.5385783 C89.1962087,41.5385783 88.9044637,41.6101098 88.6587838,41.760326 C88.4131039,41.9069657 88.2211664,42.1072539 88.090649,42.3540377 C87.9562927,42.6008215 87.8564853,42.858335 87.7950653,43.1301549 C87.7298066,43.3983981 87.6990966,43.6773711 87.6990966,43.9706504 C87.6990966,44.6144342 87.8526465,45.1831099 88.167424,45.6731009 C88.4822013,46.1630919 88.9351737,46.4062991 89.526341,46.4062991 C90.1136696,46.4062991 90.5858357,46.1273261 90.9428394,45.5801099 L91.9102041,45.9234613 C91.4725867,46.8748307 90.6779658,47.3469388 89.526341,47.3469388 C89.1079174,47.3469388 88.73172,47.2825604 88.3939101,47.1502271 C88.0561002,47.0178937 87.7797104,46.846218 87.5647404,46.6280469 C87.3497705,46.4098757 87.1655105,46.1523622 87.019638,45.8555063 C86.8737655,45.5586504 86.7739581,45.2510648 86.7125382,44.9434793 C86.6511181,44.6358937 86.6204081,44.3140018 86.6204081,43.9778035 C86.6204081,43.5808035 86.6741507,43.1945333 86.7816356,42.8154161 C86.8891206,42.436299 87.050348,42.0786413 87.2653179,41.7424431 C87.4841267,41.4026683 87.783549,41.1308485 88.1751015,40.9234071 C88.5628151,40.7159656 89.0119487,40.6122449 89.526341,40.6122449 Z M78.0244898,40.8163265 L78.0244898,45.0818642 C78.0244898,45.5087708 77.9610898,45.8756987 77.8231016,46.1861763 C77.6851134,46.4966538 77.5023724,46.7295119 77.2748783,46.891807 C77.0473842,47.054102 76.8049725,47.1705311 76.5588315,47.2410942 C76.3089609,47.3116572 76.0441728,47.3469388 75.7681964,47.3469388 C75.2796436,47.3469388 74.8433026,47.2446223 74.4703616,47.0364613 C74.0936911,46.8283002 73.8102559,46.5284071 73.6163265,46.1367821 L74.4890086,45.7345726 C74.7276909,46.2002889 75.1528437,46.433147 75.7681964,46.433147 C76.1411375,46.433147 76.4432197,46.3273024 76.6744432,46.1156132 C76.9019372,45.903924 77.0175489,45.5158271 77.0175489,44.9548507 L77.0175489,40.8163265 L78.0244898,40.8163265 Z M98.522449,40.8163265 L98.522449,41.7201166 L96.6015071,41.7201166 L96.6015071,47.1428571 L95.5944113,47.1428571 L95.5944113,41.7201166 L93.6734694,41.7201166 L93.6734694,40.8163265 L98.522449,40.8163265 Z M44.7169455,40.8163265 C45.3042742,40.8163265 45.8186665,40.9067055 46.2601227,41.0874636 C46.7054175,41.2682216 47.0509049,41.5115497 47.3042623,41.8174479 C47.5576197,42.1268222 47.7457184,42.4605293 47.8647197,42.8255214 C47.9875596,43.1870375 48.0489796,43.5728863 48.0489796,43.983068 C48.0489796,44.375869 47.9875596,44.7443373 47.8723972,45.0989011 C47.7533959,45.4499888 47.5729748,45.7836959 47.3272948,46.1000224 C47.0816149,46.416349 46.7322887,46.6701054 46.2754777,46.8578157 C45.8186665,47.049002 45.2850804,47.1428571 44.6747194,47.1428571 L42.7591836,47.1428571 L42.7591836,40.8163265 L44.7169455,40.8163265 Z M11.4612245,40.8163265 L11.4612245,41.702736 L8.27585758,41.702736 L8.27585758,43.4373178 L10.3326096,43.4373178 L10.3326096,44.3237273 L8.27585758,44.3237273 L8.27585758,47.1428571 L7.27346939,47.1428571 L7.27346939,40.8163265 L11.4612245,40.8163265 Z M55.241307,40.8163265 C56.0259004,40.8163265 56.6048237,41.0040368 56.9704595,41.3794573 C57.3437127,41.7514017 57.5265306,42.2102489 57.5265306,42.752523 C57.5265306,43.2565598 57.3360953,43.7084548 56.951416,44.0977798 C56.5667366,44.4905808 55.9954308,44.6852433 55.2374982,44.6852433 L53.4854935,44.6852433 L53.4854935,47.1428571 L52.4571429,47.1428571 L52.4571429,40.8163265 L55.241307,40.8163265 Z M62.3818587,40.8163265 C63.1531245,40.8163265 63.7147258,40.9936084 64.0591746,41.3481722 C64.4073674,41.702736 64.5795919,42.151155 64.5795919,42.6864768 C64.5795919,43.0897062 64.4560395,43.4581745 64.205191,43.7953577 C63.9543424,44.1290648 63.5874296,44.3550123 63.1007085,44.4766764 L64.5009677,47.1428571 L63.344069,47.1428571 L61.9999699,44.556627 L60.5210864,44.556627 L60.5210864,47.1428571 L59.5102041,47.1428571 L59.5102041,40.8163265 L62.3818587,40.8163265 Z M21.9905927,40.8163265 L24.9349131,45.036331 C25.0078493,45.1440906 25.103818,45.3039919 25.2228192,45.5229872 C25.1997868,45.3422292 25.1921093,45.1823279 25.1921093,45.0432832 L25.1921093,40.8163265 L26.2285714,40.8163265 L26.2285714,47.1428571 L25.2496904,47.1428571 L22.2247563,42.8498542 C22.1287877,42.7142857 22.0366577,42.5578605 21.9445277,42.3771025 C21.9637214,42.6690962 21.9752377,42.8255214 21.9752377,42.8498542 L21.9752377,47.1428571 L20.9387755,47.1428571 L20.9387755,40.8163265 L21.9905927,40.8163265 Z M30.6108232,40.8163265 C31.1981517,40.8163265 31.712544,40.9067055 32.1540002,41.0874636 C32.599295,41.2682216 32.9447825,41.5115497 33.1981399,41.8174479 C33.4514973,42.1268222 33.6357573,42.4605293 33.7585972,42.8255214 C33.8814372,43.1870375 33.9428571,43.5728863 33.9428571,43.983068 C33.9428571,44.375869 33.8814372,44.7443373 33.7662747,45.0989011 C33.6472735,45.4499888 33.4668523,45.7836959 33.2211724,46.1000224 C32.9754925,46.416349 32.6261663,46.6701054 32.1693552,46.8578157 C31.712544,47.049002 31.1789579,47.1428571 30.5685969,47.1428571 L28.6530612,47.1428571 L28.6530612,40.8163265 L30.6108232,40.8163265 Z M40.3430638,40.8163265 L40.3430638,41.702736 L37.1513304,41.702736 L37.1513304,43.4373178 L39.2121932,43.4373178 L39.2121932,44.3237273 L37.1513304,44.3237273 L37.1513304,46.2599237 L40.555102,46.2599237 L40.555102,47.1428571 L36.1469388,47.1428571 L36.1469388,40.8163265 L40.3430638,40.8163265 Z M84.6451047,40.8163265 L84.6451047,41.702736 L81.4533713,41.702736 L81.4533713,43.4373178 L83.5142341,43.4373178 L83.5142341,44.3237273 L81.4533713,44.3237273 L81.4533713,46.2599237 L84.8571429,46.2599237 L84.8571429,47.1428571 L80.4489796,47.1428571 L80.4489796,40.8163265 L84.6451047,40.8163265 Z M69.5387755,41.5457314 C69.2010757,41.5457314 68.9008981,41.6244161 68.641995,41.7746323 C68.3830918,41.9284251 68.180472,42.1287134 68.0378876,42.3754972 C67.8953033,42.622281 67.7902411,42.8833711 67.7227012,43.1516143 C67.6551612,43.4234342 67.6213912,43.6988306 67.6213912,43.9849567 C67.6213912,44.2818126 67.6551612,44.5679387 67.7227012,44.8433351 C67.7902411,45.1187315 67.8953033,45.376245 68.0378876,45.6194522 C68.180472,45.8590829 68.3830918,46.052218 68.641995,46.1988577 C68.9008981,46.3454973 69.2010757,46.4170288 69.5387755,46.4170288 C69.8764753,46.4170288 70.1766529,46.3383442 70.435556,46.1881279 C70.6944592,46.0343351 70.897079,45.8340468 71.0396634,45.5872631 C71.1822477,45.3404793 71.2873099,45.0793892 71.3548498,44.8111459 C71.426142,44.5429027 71.459912,44.2639297 71.459912,43.9778035 C71.459912,43.6809477 71.4223898,43.3948216 71.3548498,43.1194251 C71.2873099,42.8440287 71.1822477,42.5865152 71.0396634,42.343308 C70.897079,42.1036774 70.6944592,41.9105422 70.435556,41.7639026 C70.1766529,41.6172629 69.8764753,41.5457314 69.5387755,41.5457314 Z M30.8526643,41.6992599 L29.6933622,41.6992599 L29.6933622,46.2529715 L30.7413406,46.2529715 C31.1213768,46.2529715 31.4553479,46.1869253 31.7394153,46.0513568 C32.0234827,45.9157883 32.2461301,45.7350303 32.4073576,45.5090828 C32.5685851,45.2831352 32.6837475,45.0432832 32.7566837,44.7860507 C32.82962,44.5322942 32.8680074,44.2611572 32.8680074,43.9761157 C32.8680074,43.3434627 32.6952638,42.8046647 32.3574538,42.363198 C32.019644,41.9217313 31.5167679,41.6992599 30.8526643,41.6992599 Z M44.9626256,41.6992599 L43.8033233,41.6992599 L43.8033233,46.2529715 L44.8513017,46.2529715 C45.231338,46.2529715 45.5653091,46.1869253 45.8493765,46.0513568 C46.1334439,45.9157883 46.3560913,45.7350303 46.5173188,45.5090828 C46.6785463,45.2831352 46.7937087,45.0432832 46.8666449,44.7860507 C46.9395812,44.5322942 46.9741299,44.2611572 46.9779686,43.9761157 C46.9779686,43.3434627 46.805225,42.8046647 46.467415,42.363198 C46.1296052,41.9217313 45.6267291,41.6992599 44.9626256,41.6992599 Z M55.2984376,41.7201166 L53.4854935,41.7201166 L53.4854935,43.7814532 L55.2984376,43.7814532 C55.694543,43.7814532 55.9878133,43.6806459 56.1744399,43.4790312 C56.3648752,43.2774165 56.4562842,43.0340884 56.4562842,42.752523 C56.4562842,42.481386 56.368684,42.241534 56.1858661,42.032967 C56.0030482,41.8244001 55.7059691,41.7201166 55.2984376,41.7201166 Z M62.4005788,41.7201166 L60.5210864,41.7201166 L60.5210864,43.652837 L62.4005788,43.652837 C62.7899557,43.652837 63.0782443,43.562458 63.2579568,43.3782238 C63.4414132,43.1939897 63.5312694,42.9610899 63.5312694,42.6864768 C63.5312694,42.422292 63.4451572,42.1928684 63.2729328,42.0051581 C63.1007085,41.8139717 62.8086757,41.7201166 62.4005788,41.7201166 Z M20.6196449,19.3877551 C21.2358261,19.3877551 21.8022534,19.4794659 22.3227543,19.6699421 C22.8394279,19.8604182 23.2910389,20.1002771 23.6775874,20.3930461 C24.0603086,20.6822877 24.3626584,21.0103301 24.5808094,21.3736458 C24.7989605,21.7334341 24.9061225,22.0861678 24.9061225,22.4318468 L24.9061225,30.632905 C24.9061225,30.9750567 24.7989605,31.3313177 24.5808094,31.6911061 C24.3626584,32.0508944 24.0603086,32.3789368 23.6775874,32.6717057 C23.2910389,32.9609473 22.8394279,33.2043336 22.3227543,33.3912824 C21.8022534,33.5782313 21.2358261,33.6734694 20.6196449,33.6734694 C20.0034638,33.6734694 19.429382,33.5817586 18.9050539,33.3912824 C18.3807258,33.2008062 17.9252876,32.9609473 17.5387392,32.6681784 C17.1560179,32.3754094 16.8536682,32.0473671 16.6355171,31.6875787 C16.417366,31.3277904 16.3102041,30.9750567 16.3102041,30.6293777 L16.3102041,22.4318468 C16.3102041,22.0861678 16.417366,21.7334341 16.6355171,21.3736458 C16.8536682,21.0138574 17.1560179,20.6858151 17.5387392,20.3930461 C17.9252876,20.1002771 18.3768987,19.8604182 18.9050539,19.6699421 C19.4332092,19.4829932 20.0034638,19.3877551 20.6196449,19.3877551 Z M97.9917178,19.5918367 C98.4015894,19.5918367 98.8038707,19.6408456 99.2061522,19.7388633 C99.6084336,19.8333804 99.9651737,19.9874082 100.280168,20.1904448 C100.591366,20.3969821 100.845639,20.6560289 101.039189,20.9675852 C101.228944,21.2826421 101.327617,21.6537091 101.327617,22.0877875 L101.327617,25.0633249 C101.327617,25.3923843 101.213764,25.7319456 100.993648,26.0785082 C100.769736,26.4250708 100.443357,26.6911188 100.01451,26.8731517 C100.310528,27.9793515 101.79062,33.1497853 101.828571,33.2653061 L98.6065253,33.2653061 L97.4755832,27.8288243 L96.6406596,27.8288243 L96.6406596,33.2653061 L93.232653,33.2653061 L93.232653,19.5918367 L97.9917178,19.5918367 Z M47.6081633,19.5918367 L47.6081633,22.0177749 L44.2487123,22.0177749 L44.2487123,24.9583059 L46.478235,24.9583059 L46.478235,27.555775 L44.2487123,27.555775 L44.2487123,30.667837 L47.6081633,30.667837 L47.6081633,33.2653061 L40.7755102,33.2653061 L40.7755102,19.5918367 L47.6081633,19.5918367 Z M88.8244898,19.5918367 L88.8244898,22.0177749 L85.4631125,22.0177749 L85.4631125,24.9583059 L87.6913987,24.9583059 L87.6913987,27.555775 L85.4631125,27.555775 L85.4631125,30.667837 L88.8244898,30.667837 L88.8244898,33.2653061 L81.9918367,33.2653061 L81.9918367,19.5918367 L88.8244898,19.5918367 Z M73.9883431,19.5918367 C74.4030093,19.5918367 74.813836,19.6443462 75.2169837,19.7388633 C75.6201314,19.8333804 75.9848841,19.9874082 76.3035628,20.1904448 C76.6222415,20.3969821 76.8794881,20.6560289 77.0714632,20.9675852 C77.2672778,21.2826421 77.3632653,21.6537091 77.3632653,22.0877875 L77.3632653,24.7202629 C77.3632653,25.0353198 77.2480802,25.3363742 77.0253892,25.6164248 C76.7988585,25.8964753 76.4609824,26.1275171 76.0117606,26.3095499 C76.4648219,26.4915828 76.7988585,26.7191239 77.0253892,26.9921732 C77.2519197,27.2652225 77.3632653,27.5697775 77.3632653,27.898837 L77.3632653,30.7693554 C77.3632653,31.2034338 77.2634382,31.5780014 77.0714632,31.8895577 C76.8794881,32.2011139 76.6222415,32.4601607 76.3035628,32.666698 C75.9848841,32.8697347 75.6239709,33.0202619 75.2169837,33.1182796 C74.8099965,33.2162973 74.3991698,33.2653061 73.9883431,33.2653061 L69.2081633,33.2653061 L69.2081633,19.5918367 L73.9883431,19.5918367 Z M56.8198166,19.5918367 L58.2809255,25.8299633 L59.7041819,19.5918367 L64.5795919,19.5918367 L64.5795919,33.2653061 L61.1804317,33.2653061 L61.1804317,24.5627345 L59.0379768,33.2653061 L56.8955218,33.2653061 L55.067243,24.5487319 L55.067243,33.2653061 L52.0163265,33.2653061 L52.0163265,19.5918367 L56.8198166,19.5918367 Z M4.80349011,19.5918367 L6.26081374,25.8299633 L7.68407008,19.5918367 L12.5632653,19.5918367 L12.5632653,33.2653061 L9.16410524,33.2653061 L9.16410524,24.5627345 L7.02165024,33.2653061 L4.87919523,33.2653061 L3.04713123,24.5487319 L3.04713123,33.2653061 L0,33.2653061 L0,19.5918367 L4.80349011,19.5918367 Z M31.683004,19.5918367 L32.5878132,27.2302162 L33.6251259,19.5918367 L37.0285714,19.5918367 L34.1437823,33.2653061 L30.876626,33.2653061 L27.9918367,19.5918367 L31.683004,19.5918367 Z M20.6158177,22.0685311 C20.4091483,22.0685311 20.2369237,22.1214412 20.0953169,22.2237339 C19.95371,22.329554 19.8848201,22.4741749 19.8848201,22.6575964 L19.8848201,30.4036281 C19.8848201,30.5870496 19.95371,30.7316704 20.0953169,30.8339632 C20.2369237,30.936256 20.4091483,30.989166 20.6158177,30.989166 C20.8071783,30.989166 20.9755756,30.9397833 21.1171824,30.8339632 C21.2587893,30.7316704 21.3276792,30.5870496 21.3276792,30.4036281 L21.3276792,22.6575964 C21.3276792,22.4706475 21.2587893,22.329554 21.1171824,22.2237339 C20.9755756,22.1214412 20.8071783,22.0685311 20.6158177,22.0685311 Z M73.5199239,27.6572933 L72.6598755,27.6572933 L72.6598755,30.6818396 L73.5199239,30.6818396 C73.9192321,30.6818396 74.1188862,30.4998067 74.1188862,30.1357409 L74.1188862,28.1858888 C74.1188862,27.993354 74.0689727,27.8568294 73.9614667,27.7763148 C73.8539605,27.6993009 73.7080595,27.6572933 73.5199239,27.6572933 Z M97.5287147,22.1893058 L96.6406596,22.1893058 L96.6406596,25.4028862 L97.5287147,25.4028862 C97.9120206,25.4028862 98.1017759,25.2208533 98.1017759,24.8567876 L98.1017759,22.7354045 C98.1017759,22.3713387 97.9120206,22.1893058 97.5287147,22.1893058 Z M73.5199239,22.1893058 L72.6598755,22.1893058 L72.6598755,25.1298369 L73.5199239,25.1298369 C73.9192321,25.1298369 74.1188862,24.9513046 74.1188862,24.5977408 L74.1188862,22.7354045 C74.1188862,22.3713387 73.9192321,22.1893058 73.5199239,22.1893058 Z M105.57551,19.7959184 C106.263946,19.7959184 106.840136,20.010708 107.304082,20.4402872 C107.768027,20.8698665 108,21.4033762 108,22.0408163 C108,22.6782565 107.768027,23.2117662 107.304082,23.6413454 C106.840136,24.0709247 106.263946,24.2857143 105.57551,24.2857143 C104.887075,24.2857143 104.310884,24.0709247 103.846939,23.6413454 C103.382993,23.2117662 103.15102,22.6782565 103.15102,22.0408163 C103.15102,21.4033762 103.382993,20.8698665 103.846939,20.4402872 C104.310884,20.010708 104.887075,19.7959184 105.57551,19.7959184 Z M105.57551,20.1319602 C104.991837,20.1319602 104.505442,20.3155707 104.116326,20.6793273 C103.727211,21.0430839 103.532653,21.4969136 103.532653,22.037352 C103.532653,22.5847191 103.727211,23.0385488 104.116326,23.4023054 C104.505442,23.766062 104.991837,23.9496725 105.57551,23.9496725 C106.159184,23.9496725 106.641837,23.766062 107.027211,23.4023054 C107.412585,23.0420131 107.603401,22.5847191 107.603401,22.0338876 C107.603401,21.4865205 107.408844,21.0326909 107.027211,20.6723986 C106.645578,20.3121063 106.159184,20.1319602 105.57551,20.1319602 Z M105.884387,20.8163265 C106.14369,20.8163265 106.341982,20.89343 106.475447,21.0546464 C106.608912,21.2123581 106.677551,21.3875933 106.677551,21.5803521 C106.677551,21.7731108 106.612725,21.948346 106.483073,22.102553 C106.353421,22.2602647 106.181823,22.3548918 105.960653,22.3829294 L106.658485,23.4693878 L106.16657,23.4693878 L105.518311,22.3899388 L104.915811,22.3899388 L104.915811,23.4693878 L104.473469,23.4693878 L104.473469,20.8163265 L105.884387,20.8163265 Z M105.89964,21.1913299 L104.915811,21.1913299 L104.915811,22.0394684 L105.89964,22.0394684 C106.002599,22.0394684 106.086491,21.9939072 106.151317,21.9097943 C106.216143,21.8256814 106.246649,21.7205403 106.246649,21.5943709 C106.246649,21.4927345 106.216143,21.4016122 106.15513,21.3174993 C106.094118,21.2333864 106.010225,21.1913299 105.89964,21.1913299 Z M44.2237779,0.830430663 C45.1664169,0.559508383 46.0937904,0.559508383 46.9601024,0.728394999 C47.2234307,0.774135124 47.4142483,0.82339372 47.5172898,0.855059961 C48.0210483,0.981724923 48.4446634,1.15413001 48.8110332,1.34764592 C49.9101426,1.87189813 50.5627389,2.74799745 51.39852,3.17021399 L51.5282759,3.17021399 C52.364057,2.74799745 53.0166533,1.87189813 54.1157627,1.34764592 C54.4821325,1.15413001 54.9057476,0.981724923 55.4095061,0.855059961 C55.5125476,0.826912191 55.7071815,0.774135124 55.9666935,0.728394999 C56.8330055,0.563026854 57.760379,0.563026854 58.7030179,0.830430663 C61.1874632,1.53412489 63.4123965,3.289842 65.6449625,4.8766725 C66.1449047,5.20740879 66.6295813,5.53110813 67.0875436,5.83721513 C67.1066253,5.85128901 67.1257071,5.86184442 67.1486053,5.87591831 C67.8660794,6.36146733 68.5034103,6.79423928 68.9575561,7.11090169 C69.0796794,7.17775264 69.2819461,7.26219595 69.5071109,7.26219595 C69.7055612,7.26219595 69.8925624,7.19886347 70.0566655,7.06868003 C70.2207687,6.94201507 70.3772391,6.81886858 70.5222606,6.7062775 C70.9267939,6.39313357 71.2435511,6.14684059 71.4343687,5.9744355 C71.6747989,5.75629029 71.8427183,4.65149034 71.8579838,4.44038207 C71.8694328,4.29260629 72.1594755,1.25968414 72.1900064,0.957095624 L72.1938228,0.907837028 L72.2070731,0.853793311 C72.23565,0.786238665 72.3052602,0.738950412 72.3846403,0.738950412 C72.4418856,0.738950412 72.4953146,0.763579711 72.5296617,0.802282893 C72.5334781,0.802282893 72.5716417,0.862096903 72.5754579,0.890244672 C72.6861321,1.17524084 72.8998479,2.06541404 73.1135636,3.16317704 C74.2699183,9.08828248 73.9035485,7.03701379 74.2699183,9.08828248 C74.2737346,9.12346719 74.277551,9.15161496 74.277551,9.17976273 C74.277551,9.17976273 74.2737346,9.1832812 74.2737346,9.18679967 C74.2890001,9.32402005 74.1783259,9.43309265 74.0867334,9.46827737 C71.9839234,10.3197474 69.7399083,11.160662 67.6256493,11.9875027 C67.503526,12.0332428 67.3661373,12.0437983 67.2249323,12.0367613 C67.102809,12.0437983 66.973053,12.0297244 66.8661952,12.0156505 C66.2441298,11.9100964 65.6335134,11.7517651 65.011448,11.6497295 C63.5345197,11.406955 62.2178782,10.9565907 60.7066028,10.9319614 L60.5196015,10.9319614 C60.3211512,10.9389983 60.1227009,10.9389983 59.9242507,10.9389983 C58.8404066,10.9460353 57.7527463,10.8932582 56.6574532,10.8580735 C56.6574532,10.8580735 56.3216142,10.8404811 56.1689601,10.7806671 L51.5664395,8.9510621 C51.5168268,8.92995128 51.4672143,8.91587739 51.4061527,8.91587739 C51.3374583,8.91939586 51.2840294,8.92995128 51.2382332,8.9510621 C49.7002433,9.55623914 48.169886,10.1754901 46.6318961,10.7806671 C46.479242,10.8404811 46.1434031,10.8580735 46.1434031,10.8580735 C44.8992723,10.8967767 43.6589579,10.9601091 42.4186434,10.9319614 C40.7928774,10.8897397 39.2434384,11.3893626 37.6634687,11.646211 C37.0414032,11.7482467 36.4269705,11.9065779 35.8087215,12.012132 C35.6026385,12.0473167 35.3660246,12.0613906 35.175207,11.9875027 C35.0301857,11.9312072 34.8737152,11.8678747 34.7096121,11.8045422 C32.7518234,11.033997 30.7940348,10.2564149 28.8438788,9.46827737 C28.7522864,9.43309265 28.6416122,9.32402005 28.6568776,9.18679967 C28.6530612,9.1832812 28.6530612,9.17976273 28.6530612,9.17976273 C28.6530612,9.15161496 28.6530612,9.12346719 28.660694,9.08828248 C29.0308801,7.03349532 28.660694,9.08828248 29.820865,3.16317704 C30.0345807,2.06541404 30.2444801,1.17524084 30.3551542,0.890244672 C30.3627869,0.862096903 30.4009505,0.802282893 30.4009505,0.802282893 C30.4352977,0.763579711 30.4887266,0.738950412 30.5459719,0.738950412 C30.645197,0.738950412 30.7253404,0.812838307 30.7367895,0.907837028 L30.7406058,0.957095624 C30.7711367,1.25616567 31.0649958,4.29260629 31.0764449,4.44038207 C31.0917102,4.65149034 31.2558133,5.75629029 31.4962436,5.9744355 C31.6870612,6.14332212 32.0038184,6.39313357 32.4083517,6.7062775 C32.5571895,6.81886858 32.7136599,6.94201507 32.8739467,7.06868003 C33.0380499,7.19886347 33.2212347,7.26219595 33.4235014,7.26219595 C33.6486662,7.26219595 33.8509328,7.17775264 33.9730561,7.11090169 C34.4310184,6.79423928 35.0683492,6.36146733 35.7896397,5.87591831 C35.8010888,5.86184442 35.8201706,5.85128901 35.8430686,5.83721513 C36.301031,5.53110813 36.789524,5.20740879 37.2856498,4.8766725 C39.5143995,3.289842 41.743149,1.53764337 44.2237779,0.830430663 Z" id="path-1"></path>
            </g>
        </g>
    </g>
</svg>