<?xml version="1.0" encoding="UTF-8"?>
<svg width="100px" height="48px" viewBox="0 0 100 48" version="1.1" xmlns="http://www.w3.org/2000/svg" xmlns:xlink="http://www.w3.org/1999/xlink">
    <!-- Generator: Sketch 48.2 (47327) - http://www.bohemiancoding.com/sketch -->
    <title>mo-funded</title>
    <desc>Created with Sketch.</desc>
    <defs>
        <path d="M13.4135667,40.8163265 L13.4135667,44.8066682 C13.4135667,45.4064543 13.5421784,45.8298327 13.8029741,46.0697472 C14.0601974,46.3131898 14.424597,46.433147 14.8890278,46.433147 C15.3534587,46.433147 15.7178583,46.3096616 15.9822266,46.0697472 C16.2430224,45.8263046 16.3752065,45.4064543 16.3752065,44.8066682 L16.3823516,44.8066682 L16.3823516,40.8163265 L17.3469388,40.8163265 L17.3469388,44.8066682 C17.3469388,45.6992911 17.125441,46.3449432 16.686018,46.7471527 C16.2465949,47.145834 15.6499799,47.3469388 14.8926004,47.3469388 C14.1530836,47.3469388 13.5636136,47.1493622 13.1170455,46.7471527 C12.6704774,46.3449432 12.4489796,45.6992911 12.4489796,44.8066682 L12.4489796,40.8163265 L13.4135667,40.8163265 Z M64.3877551,40.6122449 C64.7803485,40.6122449 65.1347248,40.6766233 65.4543583,40.80538 C65.7739918,40.9377134 66.0345626,41.1129656 66.239545,41.3275602 C66.4445274,41.5457314 66.614767,41.8032449 66.7537381,42.1001008 C66.8927092,42.3969567 66.9899889,42.7009657 67.0525259,43.0121278 C67.1115886,43.3197134 67.1428571,43.6416053 67.1428571,43.9778035 C67.1428571,44.3104252 67.1115886,44.6323171 67.0525259,44.9434793 C66.9899889,45.2546414 66.8927092,45.5586504 66.7537381,45.8555063 C66.614767,46.1559387 66.4445274,46.4134523 66.239545,46.6280469 C66.0345626,46.846218 65.7739918,47.0214703 65.4543583,47.1502271 C65.1347248,47.2825604 64.7803485,47.3469388 64.3877551,47.3469388 C63.9951617,47.3469388 63.6407854,47.2825604 63.3211519,47.1502271 C63.0015184,47.0178937 62.7409476,46.846218 62.5359652,46.6280469 C62.3309828,46.4098757 62.1607432,46.1523622 62.0217721,45.8555063 C61.882801,45.5586504 61.782047,45.2546414 61.7229843,44.9434793 C61.6604473,44.6358937 61.6326531,44.3140018 61.6326531,43.9778035 C61.6326531,43.6451819 61.6604473,43.32329 61.7229843,43.0121278 C61.7855213,42.7009657 61.882801,42.3969567 62.0217721,42.1001008 C62.1607432,41.8032449 62.3309828,41.5457314 62.5359652,41.3275602 C62.7409476,41.1093891 63.0015184,40.9377134 63.3211519,40.80538 C63.6407854,40.6766233 63.9951617,40.6122449 64.3877551,40.6122449 Z M82.8947602,40.6122449 C83.4634638,40.6122449 83.9326442,40.7374251 84.3094103,40.9877854 C84.682622,41.2381458 84.9456473,41.5457314 85.094932,41.9033891 L84.2169959,42.3111188 C84.0499393,42.0428756 83.8651106,41.8497404 83.6660644,41.7245602 C83.4670182,41.5993801 83.2075472,41.5385783 82.8947602,41.5385783 C82.5890821,41.5385783 82.3189479,41.6101098 82.0914665,41.760326 C81.8639851,41.9069657 81.6862652,42.1072539 81.5654157,42.3540377 C81.4410118,42.6008215 81.3485975,42.858335 81.2917271,43.1301549 C81.2313024,43.3983981 81.2028672,43.6773711 81.2028672,43.9706504 C81.2028672,44.6144342 81.3450431,45.1831099 81.6365037,45.6731009 C81.9279642,46.1630919 82.3473831,46.4062991 82.8947602,46.4062991 C83.438583,46.4062991 83.8757738,46.1273261 84.2063328,45.5801099 L85.1020408,45.9234613 C84.6968395,46.8748307 83.9610794,47.3469388 82.8947602,47.3469388 C82.5073309,47.3469388 82.159,47.2825604 81.8462131,47.1502271 C81.5334261,47.0178937 81.2775096,46.846218 81.0784633,46.6280469 C80.8794171,46.4098757 80.708806,46.1523622 80.5737389,45.8555063 C80.4386718,45.5586504 80.3462575,45.2510648 80.2893872,44.9434793 C80.2325168,44.6358937 80.2040816,44.3140018 80.2040816,43.9778035 C80.2040816,43.5808035 80.2538432,43.1945333 80.3533663,42.8154161 C80.4528894,42.436299 80.6021741,42.0786413 80.8012203,41.7424431 C81.003821,41.4026683 81.2810639,41.1308485 81.6436125,40.9234071 C82.0026066,40.7159656 82.418471,40.6122449 82.8947602,40.6122449 Z M72.244898,40.8163265 L72.244898,45.0818642 C72.244898,45.5087708 72.1861943,45.8756987 72.0584274,46.1861763 C71.9306606,46.4966538 71.7614559,46.7295119 71.5508132,46.891807 C71.3401706,47.054102 71.1157153,47.1705311 70.8878069,47.2410942 C70.6564453,47.3116572 70.4112711,47.3469388 70.1557374,47.3469388 C69.7033737,47.3469388 69.2993543,47.2446223 68.9540385,47.0364613 C68.6052695,46.8283002 68.3428295,46.5284071 68.1632653,46.1367821 L68.9713043,45.7345726 C69.1923064,46.2002889 69.5859664,46.433147 70.1557374,46.433147 C70.5010532,46.433147 70.780759,46.3273024 70.9948548,46.1156132 C71.2054974,45.903924 71.3125453,45.5158271 71.3125453,44.9548507 L71.3125453,40.8163265 L72.244898,40.8163265 Z M91.2244898,40.8163265 L91.2244898,41.7201166 L89.4458399,41.7201166 L89.4458399,47.1428571 L88.5133438,47.1428571 L88.5133438,41.7201166 L86.7346939,41.7201166 L86.7346939,40.8163265 L91.2244898,40.8163265 Z M41.4045792,40.8163265 C41.948402,40.8163265 42.4246912,40.9067055 42.8334469,41.0874636 C43.2457569,41.2682216 43.5656527,41.5115497 43.8002429,41.8174479 C44.0348331,42.1268222 44.2089985,42.4605293 44.3191849,42.8255214 C44.4329256,43.1870375 44.4897959,43.5728863 44.4897959,43.983068 C44.4897959,44.375869 44.4329256,44.7443373 44.3262937,45.0989011 C44.2161073,45.4499888 44.0490507,45.7836959 43.8215693,46.1000224 C43.5940879,46.416349 43.2706377,46.6701054 42.8476645,46.8578157 C42.4246912,47.049002 41.93063,47.1428571 41.3654809,47.1428571 L39.5918367,47.1428571 L39.5918367,40.8163265 L41.4045792,40.8163265 Z M10.6122449,40.8163265 L10.6122449,41.702736 L7.66283109,41.702736 L7.66283109,43.4373178 L9.56723115,43.4373178 L9.56723115,44.3237273 L7.66283109,44.3237273 L7.66283109,47.1428571 L6.73469388,47.1428571 L6.73469388,40.8163265 L10.6122449,40.8163265 Z M51.1493583,40.8163265 C51.8758337,40.8163265 52.4118738,41.0040368 52.7504255,41.3794573 C53.0960303,41.7514017 53.2653061,42.2102489 53.2653061,42.752523 C53.2653061,43.2565598 53.0889771,43.7084548 52.7327926,44.0977798 C52.376608,44.4905808 51.8476211,44.6852433 51.1458317,44.6852433 L49.5236051,44.6852433 L49.5236051,47.1428571 L48.5714286,47.1428571 L48.5714286,40.8163265 L51.1493583,40.8163265 Z M57.7609803,40.8163265 C58.4751153,40.8163265 58.9951165,40.9936084 59.3140506,41.3481722 C59.6364513,41.702736 59.7959184,42.151155 59.7959184,42.6864768 C59.7959184,43.0897062 59.6815181,43.4581745 59.4492509,43.7953577 C59.2169837,44.1290648 58.8772496,44.3550123 58.4265819,44.4766764 L59.7231182,47.1428571 L58.6519157,47.1428571 L57.4073795,44.556627 L56.038043,44.556627 L56.038043,47.1428571 L55.1020408,47.1428571 L55.1020408,40.8163265 L57.7609803,40.8163265 Z M20.3616599,40.8163265 L23.0878825,45.036331 C23.155416,45.1440906 23.2442759,45.3039919 23.3544622,45.5229872 C23.3331359,45.3422292 23.3260271,45.1823279 23.3260271,45.0432832 L23.3260271,40.8163265 L24.2857143,40.8163265 L24.2857143,47.1428571 L23.379343,47.1428571 L20.5784781,42.8498542 C20.4896182,42.7142857 20.4043127,42.5578605 20.3190071,42.3771025 C20.3367791,42.6690962 20.3474423,42.8255214 20.3474423,42.8498542 L20.3474423,47.1428571 L19.3877551,47.1428571 L19.3877551,40.8163265 L20.3616599,40.8163265 Z M28.3433548,40.8163265 C28.8871775,40.8163265 29.3634667,40.9067055 29.7722224,41.0874636 C30.1845324,41.2682216 30.5044282,41.5115497 30.7390184,41.8174479 C30.9736086,42.1268222 31.1442197,42.4605293 31.2579604,42.8255214 C31.3717011,43.1870375 31.4285714,43.5728863 31.4285714,43.983068 C31.4285714,44.375869 31.3717011,44.7443373 31.2650692,45.0989011 C31.1548829,45.4499888 30.9878262,45.7836959 30.7603448,46.1000224 C30.5328634,46.416349 30.2094132,46.6701054 29.78644,46.8578157 C29.3634667,47.049002 28.8694055,47.1428571 28.3042564,47.1428571 L26.5306122,47.1428571 L26.5306122,40.8163265 L28.3433548,40.8163265 Z M37.3546887,40.8163265 L37.3546887,41.702736 L34.39938,41.702736 L34.39938,43.4373178 L36.3075863,43.4373178 L36.3075863,44.3237273 L34.39938,44.3237273 L34.39938,46.2599237 L37.5510204,46.2599237 L37.5510204,47.1428571 L33.4693878,47.1428571 L33.4693878,40.8163265 L37.3546887,40.8163265 Z M78.3750969,40.8163265 L78.3750969,41.702736 L75.4197882,41.702736 L75.4197882,43.4373178 L77.3279945,43.4373178 L77.3279945,44.3237273 L75.4197882,44.3237273 L75.4197882,46.2599237 L78.5714286,46.2599237 L78.5714286,47.1428571 L74.4897959,47.1428571 L74.4897959,40.8163265 L78.3750969,40.8163265 Z M64.3877551,41.5457314 C64.0750701,41.5457314 63.7971279,41.6244161 63.5574028,41.7746323 C63.3176776,41.9284251 63.1300667,42.1287134 62.9980441,42.3754972 C62.8660216,42.622281 62.7687418,42.8833711 62.7062048,43.1516143 C62.6436678,43.4234342 62.6123993,43.6988306 62.6123993,43.9849567 C62.6123993,44.2818126 62.6436678,44.5679387 62.7062048,44.8433351 C62.7687418,45.1187315 62.8660216,45.376245 62.9980441,45.6194522 C63.1300667,45.8590829 63.3176776,46.052218 63.5574028,46.1988577 C63.7971279,46.3454973 64.0750701,46.4170288 64.3877551,46.4170288 C64.7004401,46.4170288 64.9783823,46.3383442 65.2181074,46.1881279 C65.4578326,46.0343351 65.6454435,45.8340468 65.7774661,45.5872631 C65.9094886,45.3404793 66.0067684,45.0793892 66.0693054,44.8111459 C66.1353167,44.5429027 66.1665852,44.2639297 66.1665852,43.9778035 C66.1665852,43.6809477 66.1318424,43.3948216 66.0693054,43.1194251 C66.0067684,42.8440287 65.9094886,42.5865152 65.7774661,42.343308 C65.6454435,42.1036774 65.4578326,41.9105422 65.2181074,41.7639026 C64.9783823,41.6172629 64.7004401,41.5457314 64.3877551,41.5457314 Z M28.5672818,41.6992599 L27.4938539,41.6992599 L27.4938539,46.2529715 L28.4642043,46.2529715 C28.8160896,46.2529715 29.1253221,46.1869253 29.3883475,46.0513568 C29.6513729,45.9157883 29.8575279,45.7350303 30.0068126,45.5090828 C30.1560973,45.2831352 30.2627292,45.0432832 30.3302627,44.7860507 C30.3977963,44.5322942 30.4333402,44.2611572 30.4333402,43.9761157 C30.4333402,43.3434627 30.2733924,42.8046647 29.9606054,42.363198 C29.6478185,41.9217313 29.1821925,41.6992599 28.5672818,41.6992599 Z M41.6320607,41.6992599 L40.5586327,41.6992599 L40.5586327,46.2529715 L41.5289831,46.2529715 C41.8808685,46.2529715 42.190101,46.1869253 42.4531264,46.0513568 C42.7161518,45.9157883 42.9223068,45.7350303 43.0715915,45.5090828 C43.2208762,45.2831352 43.3275081,45.0432832 43.3950416,44.7860507 C43.4625752,44.5322942 43.4945647,44.2611572 43.4981191,43.9761157 C43.4981191,43.3434627 43.3381713,42.8046647 43.0253843,42.363198 C42.7125974,41.9217313 42.2469714,41.6992599 41.6320607,41.6992599 Z M51.202257,41.7201166 L49.5236051,41.7201166 L49.5236051,43.7814532 L51.202257,43.7814532 C51.5690213,43.7814532 51.8405679,43.6806459 52.0133703,43.4790312 C52.1896993,43.2774165 52.2743372,43.0340884 52.2743372,42.752523 C52.2743372,42.481386 52.1932259,42.241534 52.0239501,42.032967 C51.8546743,41.8244001 51.579601,41.7201166 51.202257,41.7201166 Z M57.7783137,41.7201166 L56.038043,41.7201166 L56.038043,43.652837 L57.7783137,43.652837 C58.1388479,43.652837 58.4057818,43.562458 58.5721822,43.3782238 C58.7420493,43.1939897 58.8252494,42.9610899 58.8252494,42.6864768 C58.8252494,42.422292 58.7455159,42.1928684 58.5860489,42.0051581 C58.4265819,41.8139717 58.1561812,41.7201166 57.7783137,41.7201166 Z M19.0922638,19.3877551 C19.6628019,19.3877551 20.1872717,19.4794659 20.6692169,19.6699421 C21.1476184,19.8604182 21.5657768,20.1002771 21.923692,20.3930461 C22.2780635,20.6822877 22.558017,21.0103301 22.7600087,21.3736458 C22.9620005,21.7334341 23.0612245,22.0861678 23.0612245,22.4318468 L23.0612245,30.632905 C23.0612245,30.9750567 22.9620005,31.3313177 22.7600087,31.6911061 C22.558017,32.0508944 22.2780635,32.3789368 21.923692,32.6717057 C21.5657768,32.9609473 21.1476184,33.2043336 20.6692169,33.3912824 C20.1872717,33.5782313 19.6628019,33.6734694 19.0922638,33.6734694 C18.5217257,33.6734694 17.9901685,33.5817586 17.5046795,33.3912824 C17.0191906,33.2008062 16.5974885,32.9609473 16.2395733,32.6681784 C15.8852018,32.3754094 15.6052483,32.0473671 15.4032566,31.6875787 C15.2012648,31.3277904 15.1020408,30.9750567 15.1020408,30.6293777 L15.1020408,22.4318468 C15.1020408,22.0861678 15.2012648,21.7334341 15.4032566,21.3736458 C15.6052483,21.0138574 15.8852018,20.6858151 16.2395733,20.3930461 C16.5974885,20.1002771 17.0156469,19.8604182 17.5046795,19.6699421 C17.9937122,19.4829932 18.5217257,19.3877551 19.0922638,19.3877551 Z M90.733072,19.5918367 C91.1125828,19.5918367 91.4850655,19.6408456 91.8575483,19.7388633 C92.2300311,19.8333804 92.560346,19.9874082 92.852007,20.1904448 C93.1401541,20.3969821 93.3755913,20.6560289 93.5548047,20.9675852 C93.7305041,21.2826421 93.8218678,21.6537091 93.8218678,22.0877875 L93.8218678,25.0633249 C93.8218678,25.3923843 93.7164482,25.7319456 93.5126368,26.0785082 C93.3053115,26.4250708 93.0031085,26.6911188 92.6060278,26.8731517 C92.8801189,27.9793515 94.2505744,33.1497853 94.2857143,33.2653061 L91.3023382,33.2653061 L90.2551696,27.8288243 L89.4820922,27.8288243 L89.4820922,33.2653061 L86.3265306,33.2653061 L86.3265306,19.5918367 L90.733072,19.5918367 Z M44.0816327,19.5918367 L44.0816327,22.0177749 L40.9710299,22.0177749 L40.9710299,24.9583059 L43.0354028,24.9583059 L43.0354028,27.555775 L40.9710299,27.555775 L40.9710299,30.667837 L44.0816327,30.667837 L44.0816327,33.2653061 L37.755102,33.2653061 L37.755102,19.5918367 L44.0816327,19.5918367 Z M82.244898,19.5918367 L82.244898,22.0177749 L79.1325116,22.0177749 L79.1325116,24.9583059 L81.1957395,24.9583059 L81.1957395,27.555775 L79.1325116,27.555775 L79.1325116,30.667837 L82.244898,30.667837 L82.244898,33.2653061 L75.9183673,33.2653061 L75.9183673,19.5918367 L82.244898,19.5918367 Z M68.5077251,19.5918367 C68.8916753,19.5918367 69.2720704,19.6443462 69.6453553,19.7388633 C70.0186402,19.8333804 70.3563742,19.9874082 70.651447,20.1904448 C70.9465199,20.3969821 71.1847112,20.6560289 71.3624659,20.9675852 C71.5437757,21.2826421 71.6326531,21.6537091 71.6326531,22.0877875 L71.6326531,24.7202629 C71.6326531,25.0353198 71.5260002,25.3363742 71.3198048,25.6164248 C71.1100542,25.8964753 70.7972059,26.1275171 70.3812598,26.3095499 C70.800761,26.4915828 71.1100542,26.7191239 71.3198048,26.9921732 C71.5295553,27.2652225 71.6326531,27.5697775 71.6326531,27.898837 L71.6326531,30.7693554 C71.6326531,31.2034338 71.5402206,31.5780014 71.3624659,31.8895577 C71.1847112,32.2011139 70.9465199,32.4601607 70.651447,32.666698 C70.3563742,32.8697347 70.0221953,33.0202619 69.6453553,33.1182796 C69.2685153,33.2162973 68.8881202,33.2653061 68.5077251,33.2653061 L64.0816327,33.2653061 L64.0816327,19.5918367 L68.5077251,19.5918367 Z M52.6109413,19.5918367 L53.9638199,25.8299633 L55.2816499,19.5918367 L59.7959184,19.5918367 L59.7959184,33.2653061 L56.6485479,33.2653061 L56.6485479,24.5627345 L54.6647933,33.2653061 L52.6810387,33.2653061 L50.988188,24.5487319 L50.988188,33.2653061 L48.1632653,33.2653061 L48.1632653,19.5918367 L52.6109413,19.5918367 Z M4.44767603,19.5918367 L5.79704976,25.8299633 L7.1148797,19.5918367 L11.6326531,19.5918367 L11.6326531,33.2653061 L8.48528263,33.2653061 L8.48528263,24.5627345 L6.501528,33.2653061 L4.51777336,33.2653061 L2.82141781,24.5487319 L2.82141781,33.2653061 L0,33.2653061 L0,19.5918367 L4.44767603,19.5918367 Z M29.3361148,19.5918367 L30.1739011,27.2302162 L31.1343758,19.5918367 L34.2857143,19.5918367 L31.6146132,33.2653061 L28.5894685,33.2653061 L25.9183673,19.5918367 L29.3361148,19.5918367 Z M19.0887201,22.0685311 C18.8973595,22.0685311 18.7378923,22.1214412 18.6067749,22.2237339 C18.4756574,22.329554 18.4118705,22.4741749 18.4118705,22.6575964 L18.4118705,30.4036281 C18.4118705,30.5870496 18.4756574,30.7316704 18.6067749,30.8339632 C18.7378923,30.936256 18.8973595,30.989166 19.0887201,30.989166 C19.2659058,30.989166 19.4218293,30.9397833 19.5529467,30.8339632 C19.6840642,30.7316704 19.7478511,30.5870496 19.7478511,30.4036281 L19.7478511,22.6575964 C19.7478511,22.4706475 19.6840642,22.329554 19.5529467,22.2237339 C19.4218293,22.1214412 19.2659058,22.0685311 19.0887201,22.0685311 Z M68.0740036,27.6572933 L67.2776625,27.6572933 L67.2776625,30.6818396 L68.0740036,30.6818396 C68.4437334,30.6818396 68.6285983,30.4998067 68.6285983,30.1357409 L68.6285983,28.1858888 C68.6285983,27.993354 68.5823821,27.8568294 68.4828395,27.7763148 C68.3832968,27.6993009 68.2482032,27.6572933 68.0740036,27.6572933 Z M90.3043655,22.1893058 L89.4820922,22.1893058 L89.4820922,25.4028862 L90.3043655,25.4028862 C90.6592783,25.4028862 90.8349777,25.2208533 90.8349777,24.8567876 L90.8349777,22.7354045 C90.8349777,22.3713387 90.6592783,22.1893058 90.3043655,22.1893058 Z M68.0740036,22.1893058 L67.2776625,22.1893058 L67.2776625,25.1298369 L68.0740036,25.1298369 C68.4437334,25.1298369 68.6285983,24.9513046 68.6285983,24.5977408 L68.6285983,22.7354045 C68.6285983,22.3713387 68.4437334,22.1893058 68.0740036,22.1893058 Z M97.755102,19.7959184 C98.3925422,19.7959184 98.9260519,20.010708 99.3556311,20.4402872 C99.7852104,20.8698665 100,21.4033762 100,22.0408163 C100,22.6782565 99.7852104,23.2117662 99.3556311,23.6413454 C98.9260519,24.0709247 98.3925422,24.2857143 97.755102,24.2857143 C97.1176619,24.2857143 96.5841522,24.0709247 96.1545729,23.6413454 C95.7249937,23.2117662 95.5102041,22.6782565 95.5102041,22.0408163 C95.5102041,21.4033762 95.7249937,20.8698665 96.1545729,20.4402872 C96.5841522,20.010708 97.1176619,19.7959184 97.755102,19.7959184 Z M97.755102,20.1319602 C97.2146636,20.1319602 96.7642983,20.3155707 96.404006,20.6793273 C96.0437138,21.0430839 95.8635676,21.4969136 95.8635676,22.037352 C95.8635676,22.5847191 96.0437138,23.0385488 96.404006,23.4023054 C96.7642983,23.766062 97.2146636,23.9496725 97.755102,23.9496725 C98.2955404,23.9496725 98.7424414,23.766062 99.0992693,23.4023054 C99.4560973,23.0420131 99.632779,22.5847191 99.632779,22.0338876 C99.632779,21.4865205 99.4526329,21.0326909 99.0992693,20.6723986 C98.7459058,20.3121063 98.2955404,20.1319602 97.755102,20.1319602 Z M98.0410988,20.8163265 C98.2811948,20.8163265 98.4647977,20.89343 98.5883765,21.0546464 C98.7119554,21.2123581 98.7755102,21.3875933 98.7755102,21.5803521 C98.7755102,21.7731108 98.7154862,21.948346 98.5954382,22.102553 C98.4753902,22.2602647 98.3165031,22.3548918 98.1117153,22.3829294 L98.7578561,23.4693878 L98.3023798,23.4693878 L97.7021397,22.3899388 L97.1442695,22.3899388 L97.1442695,23.4693878 L96.7346939,23.4693878 L96.7346939,20.8163265 L98.0410988,20.8163265 Z M98.0552221,21.1913299 L97.1442695,21.1913299 L97.1442695,22.0394684 L98.0552221,22.0394684 C98.1505543,22.0394684 98.2282325,21.9939072 98.2882565,21.9097943 C98.3482805,21.8256814 98.3765271,21.7205403 98.3765271,21.5943709 C98.3765271,21.4927345 98.3482805,21.4016122 98.2917873,21.3174993 C98.2352941,21.2333864 98.157616,21.1913299 98.0552221,21.1913299 Z M40.9479425,0.830430663 C41.8207564,0.559508383 42.6794356,0.559508383 43.4815763,0.728394999 C43.7253988,0.774135124 43.9020818,0.82339372 43.9974906,0.855059961 C44.4639336,0.981724923 44.8561698,1.15413001 45.1954011,1.34764592 C46.213095,1.87189813 46.8173508,2.74799745 47.5912222,3.17021399 L47.7113666,3.17021399 C48.485238,2.74799745 49.0894938,1.87189813 50.1071877,1.34764592 C50.446419,1.15413001 50.8386552,0.981724923 51.3050982,0.855059961 C51.400507,0.826912191 51.5807236,0.774135124 51.8210125,0.728394999 C52.6231532,0.563026854 53.4818324,0.563026854 54.3546462,0.830430663 C56.6550585,1.53412489 58.7151819,3.289842 60.7823727,4.8766725 C61.2452821,5.20740879 61.6940568,5.53110813 62.1180959,5.83721513 C62.1357642,5.85128901 62.1534325,5.86184442 62.1746345,5.87591831 C62.8389624,6.36146733 63.4290836,6.79423928 63.849589,7.11090169 C63.9626661,7.17775264 64.1499501,7.26219595 64.358436,7.26219595 C64.5421863,7.26219595 64.7153356,7.19886347 64.8672829,7.06868003 C65.0192303,6.94201507 65.1641103,6.81886858 65.2983894,6.7062775 C65.6729573,6.39313357 65.966251,6.14684059 66.142934,5.9744355 C66.3655545,5.75629029 66.5210355,4.65149034 66.5351702,4.44038207 C66.5457711,4.29260629 66.8143292,1.25968414 66.8425985,0.957095624 L66.8461322,0.907837028 L66.858401,0.853793311 C66.8848611,0.786238665 66.949315,0.738950412 67.0228151,0.738950412 C67.07582,0.738950412 67.1252913,0.763579711 67.1570942,0.802282893 C67.1606279,0.802282893 67.1959645,0.862096903 67.1994981,0.890244672 C67.3019742,1.17524084 67.4998592,2.06541404 67.6977441,3.16317704 C68.7684429,9.08828248 68.4292116,7.03701379 68.7684429,9.08828248 C68.7719765,9.12346719 68.7755102,9.15161496 68.7755102,9.17976273 C68.7755102,9.17976273 68.7719765,9.1832812 68.7719765,9.18679967 C68.7861112,9.32402005 68.6836351,9.43309265 68.5988272,9.46827737 C66.6517809,10.3197474 64.5739892,11.160662 62.6163419,11.9875027 C62.5032648,12.0332428 62.3760531,12.0437983 62.2453077,12.0367613 C62.1322306,12.0437983 62.0120861,12.0297244 61.9131437,12.0156505 C61.3371572,11.9100964 60.7717717,11.7517651 60.1957852,11.6497295 C58.828259,11.406955 57.6091465,10.9565907 56.2098174,10.9319614 L56.0366681,10.9319614 C55.8529178,10.9389983 55.6691675,10.9389983 55.4854173,10.9389983 C54.481858,10.9460353 53.4747651,10.8932582 52.4606048,10.8580735 C52.4606048,10.8580735 52.1496428,10.8404811 52.0082964,10.7806671 L47.7467032,8.9510621 C47.7007656,8.92995128 47.6548281,8.91587739 47.5982895,8.91587739 C47.5346836,8.91939586 47.4852124,8.92995128 47.4428085,8.9510621 C46.0187438,9.55623914 44.6017463,10.1754901 43.1776816,10.7806671 C43.0363352,10.8404811 42.7253732,10.8580735 42.7253732,10.8580735 C41.5734003,10.8967767 40.424961,10.9601091 39.2765217,10.9319614 C37.7711828,10.8897397 36.336517,11.3893626 34.8735821,11.646211 C34.2975956,11.7482467 33.7286764,11.9065779 33.1562236,12.012132 C32.965406,12.0473167 32.7463191,12.0613906 32.5696361,11.9875027 C32.4353571,11.9312072 32.290477,11.8678747 32.1385297,11.8045422 C30.3257624,11.033997 28.5129952,10.2564149 26.7072952,9.46827737 C26.6224874,9.43309265 26.5200113,9.32402005 26.5341459,9.18679967 C26.5306122,9.1832812 26.5306122,9.17976273 26.5306122,9.17976273 C26.5306122,9.15161496 26.5306122,9.12346719 26.5376796,9.08828248 C26.8804445,7.03349532 26.5376796,9.08828248 27.611912,3.16317704 C27.8097969,2.06541404 28.0041482,1.17524084 28.1066243,0.890244672 C28.1136916,0.862096903 28.1490282,0.802282893 28.1490282,0.802282893 C28.1808312,0.763579711 28.2303024,0.738950412 28.2833073,0.738950412 C28.3751824,0.738950412 28.4493893,0.812838307 28.4599903,0.907837028 L28.4635239,0.957095624 C28.4917932,1.25616567 28.763885,4.29260629 28.774486,4.44038207 C28.7886206,4.65149034 28.9405679,5.75629029 29.1631885,5.9744355 C29.3398715,6.14332212 29.6331652,6.39313357 30.0077331,6.7062775 C30.1455458,6.81886858 30.2904258,6.94201507 30.4388395,7.06868003 C30.5907869,7.19886347 30.7604025,7.26219595 30.9476865,7.26219595 C31.1561724,7.26219595 31.3434563,7.17775264 31.4565334,7.11090169 C31.8805726,6.79423928 32.4706937,6.36146733 33.1385553,5.87591831 C33.1491563,5.86184442 33.1668246,5.85128901 33.1880265,5.83721513 C33.6120657,5.53110813 34.0643741,5.20740879 34.5237498,4.8766725 C36.5874069,3.289842 38.6510639,1.53764337 40.9479425,0.830430663 Z" id="path-1"></path>
    </defs>
    <g id="Page-1" stroke="none" stroke-width="1" fill="none" fill-rule="evenodd">
        <g id="mo-funded">
            <g id="Combined-Shape" fill="#000000" fill-rule="nonzero">
                <path d="M13.4135667,40.8163265 L13.4135667,44.8066682 C13.4135667,45.4064543 13.5421784,45.8298327 13.8029741,46.0697472 C14.0601974,46.3131898 14.424597,46.433147 14.8890278,46.433147 C15.3534587,46.433147 15.7178583,46.3096616 15.9822266,46.0697472 C16.2430224,45.8263046 16.3752065,45.4064543 16.3752065,44.8066682 L16.3823516,44.8066682 L16.3823516,40.8163265 L17.3469388,40.8163265 L17.3469388,44.8066682 C17.3469388,45.6992911 17.125441,46.3449432 16.686018,46.7471527 C16.2465949,47.145834 15.6499799,47.3469388 14.8926004,47.3469388 C14.1530836,47.3469388 13.5636136,47.1493622 13.1170455,46.7471527 C12.6704774,46.3449432 12.4489796,45.6992911 12.4489796,44.8066682 L12.4489796,40.8163265 L13.4135667,40.8163265 Z M64.3877551,40.6122449 C64.7803485,40.6122449 65.1347248,40.6766233 65.4543583,40.80538 C65.7739918,40.9377134 66.0345626,41.1129656 66.239545,41.3275602 C66.4445274,41.5457314 66.614767,41.8032449 66.7537381,42.1001008 C66.8927092,42.3969567 66.9899889,42.7009657 67.0525259,43.0121278 C67.1115886,43.3197134 67.1428571,43.6416053 67.1428571,43.9778035 C67.1428571,44.3104252 67.1115886,44.6323171 67.0525259,44.9434793 C66.9899889,45.2546414 66.8927092,45.5586504 66.7537381,45.8555063 C66.614767,46.1559387 66.4445274,46.4134523 66.239545,46.6280469 C66.0345626,46.846218 65.7739918,47.0214703 65.4543583,47.1502271 C65.1347248,47.2825604 64.7803485,47.3469388 64.3877551,47.3469388 C63.9951617,47.3469388 63.6407854,47.2825604 63.3211519,47.1502271 C63.0015184,47.0178937 62.7409476,46.846218 62.5359652,46.6280469 C62.3309828,46.4098757 62.1607432,46.1523622 62.0217721,45.8555063 C61.882801,45.5586504 61.782047,45.2546414 61.7229843,44.9434793 C61.6604473,44.6358937 61.6326531,44.3140018 61.6326531,43.9778035 C61.6326531,43.6451819 61.6604473,43.32329 61.7229843,43.0121278 C61.7855213,42.7009657 61.882801,42.3969567 62.0217721,42.1001008 C62.1607432,41.8032449 62.3309828,41.5457314 62.5359652,41.3275602 C62.7409476,41.1093891 63.0015184,40.9377134 63.3211519,40.80538 C63.6407854,40.6766233 63.9951617,40.6122449 64.3877551,40.6122449 Z M82.8947602,40.6122449 C83.4634638,40.6122449 83.9326442,40.7374251 84.3094103,40.9877854 C84.682622,41.2381458 84.9456473,41.5457314 85.094932,41.9033891 L84.2169959,42.3111188 C84.0499393,42.0428756 83.8651106,41.8497404 83.6660644,41.7245602 C83.4670182,41.5993801 83.2075472,41.5385783 82.8947602,41.5385783 C82.5890821,41.5385783 82.3189479,41.6101098 82.0914665,41.760326 C81.8639851,41.9069657 81.6862652,42.1072539 81.5654157,42.3540377 C81.4410118,42.6008215 81.3485975,42.858335 81.2917271,43.1301549 C81.2313024,43.3983981 81.2028672,43.6773711 81.2028672,43.9706504 C81.2028672,44.6144342 81.3450431,45.1831099 81.6365037,45.6731009 C81.9279642,46.1630919 82.3473831,46.4062991 82.8947602,46.4062991 C83.438583,46.4062991 83.8757738,46.1273261 84.2063328,45.5801099 L85.1020408,45.9234613 C84.6968395,46.8748307 83.9610794,47.3469388 82.8947602,47.3469388 C82.5073309,47.3469388 82.159,47.2825604 81.8462131,47.1502271 C81.5334261,47.0178937 81.2775096,46.846218 81.0784633,46.6280469 C80.8794171,46.4098757 80.708806,46.1523622 80.5737389,45.8555063 C80.4386718,45.5586504 80.3462575,45.2510648 80.2893872,44.9434793 C80.2325168,44.6358937 80.2040816,44.3140018 80.2040816,43.9778035 C80.2040816,43.5808035 80.2538432,43.1945333 80.3533663,42.8154161 C80.4528894,42.436299 80.6021741,42.0786413 80.8012203,41.7424431 C81.003821,41.4026683 81.2810639,41.1308485 81.6436125,40.9234071 C82.0026066,40.7159656 82.418471,40.6122449 82.8947602,40.6122449 Z M72.244898,40.8163265 L72.244898,45.0818642 C72.244898,45.5087708 72.1861943,45.8756987 72.0584274,46.1861763 C71.9306606,46.4966538 71.7614559,46.7295119 71.5508132,46.891807 C71.3401706,47.054102 71.1157153,47.1705311 70.8878069,47.2410942 C70.6564453,47.3116572 70.4112711,47.3469388 70.1557374,47.3469388 C69.7033737,47.3469388 69.2993543,47.2446223 68.9540385,47.0364613 C68.6052695,46.8283002 68.3428295,46.5284071 68.1632653,46.1367821 L68.9713043,45.7345726 C69.1923064,46.2002889 69.5859664,46.433147 70.1557374,46.433147 C70.5010532,46.433147 70.780759,46.3273024 70.9948548,46.1156132 C71.2054974,45.903924 71.3125453,45.5158271 71.3125453,44.9548507 L71.3125453,40.8163265 L72.244898,40.8163265 Z M91.2244898,40.8163265 L91.2244898,41.7201166 L89.4458399,41.7201166 L89.4458399,47.1428571 L88.5133438,47.1428571 L88.5133438,41.7201166 L86.7346939,41.7201166 L86.7346939,40.8163265 L91.2244898,40.8163265 Z M41.4045792,40.8163265 C41.948402,40.8163265 42.4246912,40.9067055 42.8334469,41.0874636 C43.2457569,41.2682216 43.5656527,41.5115497 43.8002429,41.8174479 C44.0348331,42.1268222 44.2089985,42.4605293 44.3191849,42.8255214 C44.4329256,43.1870375 44.4897959,43.5728863 44.4897959,43.983068 C44.4897959,44.375869 44.4329256,44.7443373 44.3262937,45.0989011 C44.2161073,45.4499888 44.0490507,45.7836959 43.8215693,46.1000224 C43.5940879,46.416349 43.2706377,46.6701054 42.8476645,46.8578157 C42.4246912,47.049002 41.93063,47.1428571 41.3654809,47.1428571 L39.5918367,47.1428571 L39.5918367,40.8163265 L41.4045792,40.8163265 Z M10.6122449,40.8163265 L10.6122449,41.702736 L7.66283109,41.702736 L7.66283109,43.4373178 L9.56723115,43.4373178 L9.56723115,44.3237273 L7.66283109,44.3237273 L7.66283109,47.1428571 L6.73469388,47.1428571 L6.73469388,40.8163265 L10.6122449,40.8163265 Z M51.1493583,40.8163265 C51.8758337,40.8163265 52.4118738,41.0040368 52.7504255,41.3794573 C53.0960303,41.7514017 53.2653061,42.2102489 53.2653061,42.752523 C53.2653061,43.2565598 53.0889771,43.7084548 52.7327926,44.0977798 C52.376608,44.4905808 51.8476211,44.6852433 51.1458317,44.6852433 L49.5236051,44.6852433 L49.5236051,47.1428571 L48.5714286,47.1428571 L48.5714286,40.8163265 L51.1493583,40.8163265 Z M57.7609803,40.8163265 C58.4751153,40.8163265 58.9951165,40.9936084 59.3140506,41.3481722 C59.6364513,41.702736 59.7959184,42.151155 59.7959184,42.6864768 C59.7959184,43.0897062 59.6815181,43.4581745 59.4492509,43.7953577 C59.2169837,44.1290648 58.8772496,44.3550123 58.4265819,44.4766764 L59.7231182,47.1428571 L58.6519157,47.1428571 L57.4073795,44.556627 L56.038043,44.556627 L56.038043,47.1428571 L55.1020408,47.1428571 L55.1020408,40.8163265 L57.7609803,40.8163265 Z M20.3616599,40.8163265 L23.0878825,45.036331 C23.155416,45.1440906 23.2442759,45.3039919 23.3544622,45.5229872 C23.3331359,45.3422292 23.3260271,45.1823279 23.3260271,45.0432832 L23.3260271,40.8163265 L24.2857143,40.8163265 L24.2857143,47.1428571 L23.379343,47.1428571 L20.5784781,42.8498542 C20.4896182,42.7142857 20.4043127,42.5578605 20.3190071,42.3771025 C20.3367791,42.6690962 20.3474423,42.8255214 20.3474423,42.8498542 L20.3474423,47.1428571 L19.3877551,47.1428571 L19.3877551,40.8163265 L20.3616599,40.8163265 Z M28.3433548,40.8163265 C28.8871775,40.8163265 29.3634667,40.9067055 29.7722224,41.0874636 C30.1845324,41.2682216 30.5044282,41.5115497 30.7390184,41.8174479 C30.9736086,42.1268222 31.1442197,42.4605293 31.2579604,42.8255214 C31.3717011,43.1870375 31.4285714,43.5728863 31.4285714,43.983068 C31.4285714,44.375869 31.3717011,44.7443373 31.2650692,45.0989011 C31.1548829,45.4499888 30.9878262,45.7836959 30.7603448,46.1000224 C30.5328634,46.416349 30.2094132,46.6701054 29.78644,46.8578157 C29.3634667,47.049002 28.8694055,47.1428571 28.3042564,47.1428571 L26.5306122,47.1428571 L26.5306122,40.8163265 L28.3433548,40.8163265 Z M37.3546887,40.8163265 L37.3546887,41.702736 L34.39938,41.702736 L34.39938,43.4373178 L36.3075863,43.4373178 L36.3075863,44.3237273 L34.39938,44.3237273 L34.39938,46.2599237 L37.5510204,46.2599237 L37.5510204,47.1428571 L33.4693878,47.1428571 L33.4693878,40.8163265 L37.3546887,40.8163265 Z M78.3750969,40.8163265 L78.3750969,41.702736 L75.4197882,41.702736 L75.4197882,43.4373178 L77.3279945,43.4373178 L77.3279945,44.3237273 L75.4197882,44.3237273 L75.4197882,46.2599237 L78.5714286,46.2599237 L78.5714286,47.1428571 L74.4897959,47.1428571 L74.4897959,40.8163265 L78.3750969,40.8163265 Z M64.3877551,41.5457314 C64.0750701,41.5457314 63.7971279,41.6244161 63.5574028,41.7746323 C63.3176776,41.9284251 63.1300667,42.1287134 62.9980441,42.3754972 C62.8660216,42.622281 62.7687418,42.8833711 62.7062048,43.1516143 C62.6436678,43.4234342 62.6123993,43.6988306 62.6123993,43.9849567 C62.6123993,44.2818126 62.6436678,44.5679387 62.7062048,44.8433351 C62.7687418,45.1187315 62.8660216,45.376245 62.9980441,45.6194522 C63.1300667,45.8590829 63.3176776,46.052218 63.5574028,46.1988577 C63.7971279,46.3454973 64.0750701,46.4170288 64.3877551,46.4170288 C64.7004401,46.4170288 64.9783823,46.3383442 65.2181074,46.1881279 C65.4578326,46.0343351 65.6454435,45.8340468 65.7774661,45.5872631 C65.9094886,45.3404793 66.0067684,45.0793892 66.0693054,44.8111459 C66.1353167,44.5429027 66.1665852,44.2639297 66.1665852,43.9778035 C66.1665852,43.6809477 66.1318424,43.3948216 66.0693054,43.1194251 C66.0067684,42.8440287 65.9094886,42.5865152 65.7774661,42.343308 C65.6454435,42.1036774 65.4578326,41.9105422 65.2181074,41.7639026 C64.9783823,41.6172629 64.7004401,41.5457314 64.3877551,41.5457314 Z M28.5672818,41.6992599 L27.4938539,41.6992599 L27.4938539,46.2529715 L28.4642043,46.2529715 C28.8160896,46.2529715 29.1253221,46.1869253 29.3883475,46.0513568 C29.6513729,45.9157883 29.8575279,45.7350303 30.0068126,45.5090828 C30.1560973,45.2831352 30.2627292,45.0432832 30.3302627,44.7860507 C30.3977963,44.5322942 30.4333402,44.2611572 30.4333402,43.9761157 C30.4333402,43.3434627 30.2733924,42.8046647 29.9606054,42.363198 C29.6478185,41.9217313 29.1821925,41.6992599 28.5672818,41.6992599 Z M41.6320607,41.6992599 L40.5586327,41.6992599 L40.5586327,46.2529715 L41.5289831,46.2529715 C41.8808685,46.2529715 42.190101,46.1869253 42.4531264,46.0513568 C42.7161518,45.9157883 42.9223068,45.7350303 43.0715915,45.5090828 C43.2208762,45.2831352 43.3275081,45.0432832 43.3950416,44.7860507 C43.4625752,44.5322942 43.4945647,44.2611572 43.4981191,43.9761157 C43.4981191,43.3434627 43.3381713,42.8046647 43.0253843,42.363198 C42.7125974,41.9217313 42.2469714,41.6992599 41.6320607,41.6992599 Z M51.202257,41.7201166 L49.5236051,41.7201166 L49.5236051,43.7814532 L51.202257,43.7814532 C51.5690213,43.7814532 51.8405679,43.6806459 52.0133703,43.4790312 C52.1896993,43.2774165 52.2743372,43.0340884 52.2743372,42.752523 C52.2743372,42.481386 52.1932259,42.241534 52.0239501,42.032967 C51.8546743,41.8244001 51.579601,41.7201166 51.202257,41.7201166 Z M57.7783137,41.7201166 L56.038043,41.7201166 L56.038043,43.652837 L57.7783137,43.652837 C58.1388479,43.652837 58.4057818,43.562458 58.5721822,43.3782238 C58.7420493,43.1939897 58.8252494,42.9610899 58.8252494,42.6864768 C58.8252494,42.422292 58.7455159,42.1928684 58.5860489,42.0051581 C58.4265819,41.8139717 58.1561812,41.7201166 57.7783137,41.7201166 Z M19.0922638,19.3877551 C19.6628019,19.3877551 20.1872717,19.4794659 20.6692169,19.6699421 C21.1476184,19.8604182 21.5657768,20.1002771 21.923692,20.3930461 C22.2780635,20.6822877 22.558017,21.0103301 22.7600087,21.3736458 C22.9620005,21.7334341 23.0612245,22.0861678 23.0612245,22.4318468 L23.0612245,30.632905 C23.0612245,30.9750567 22.9620005,31.3313177 22.7600087,31.6911061 C22.558017,32.0508944 22.2780635,32.3789368 21.923692,32.6717057 C21.5657768,32.9609473 21.1476184,33.2043336 20.6692169,33.3912824 C20.1872717,33.5782313 19.6628019,33.6734694 19.0922638,33.6734694 C18.5217257,33.6734694 17.9901685,33.5817586 17.5046795,33.3912824 C17.0191906,33.2008062 16.5974885,32.9609473 16.2395733,32.6681784 C15.8852018,32.3754094 15.6052483,32.0473671 15.4032566,31.6875787 C15.2012648,31.3277904 15.1020408,30.9750567 15.1020408,30.6293777 L15.1020408,22.4318468 C15.1020408,22.0861678 15.2012648,21.7334341 15.4032566,21.3736458 C15.6052483,21.0138574 15.8852018,20.6858151 16.2395733,20.3930461 C16.5974885,20.1002771 17.0156469,19.8604182 17.5046795,19.6699421 C17.9937122,19.4829932 18.5217257,19.3877551 19.0922638,19.3877551 Z M90.733072,19.5918367 C91.1125828,19.5918367 91.4850655,19.6408456 91.8575483,19.7388633 C92.2300311,19.8333804 92.560346,19.9874082 92.852007,20.1904448 C93.1401541,20.3969821 93.3755913,20.6560289 93.5548047,20.9675852 C93.7305041,21.2826421 93.8218678,21.6537091 93.8218678,22.0877875 L93.8218678,25.0633249 C93.8218678,25.3923843 93.7164482,25.7319456 93.5126368,26.0785082 C93.3053115,26.4250708 93.0031085,26.6911188 92.6060278,26.8731517 C92.8801189,27.9793515 94.2505744,33.1497853 94.2857143,33.2653061 L91.3023382,33.2653061 L90.2551696,27.8288243 L89.4820922,27.8288243 L89.4820922,33.2653061 L86.3265306,33.2653061 L86.3265306,19.5918367 L90.733072,19.5918367 Z M44.0816327,19.5918367 L44.0816327,22.0177749 L40.9710299,22.0177749 L40.9710299,24.9583059 L43.0354028,24.9583059 L43.0354028,27.555775 L40.9710299,27.555775 L40.9710299,30.667837 L44.0816327,30.667837 L44.0816327,33.2653061 L37.755102,33.2653061 L37.755102,19.5918367 L44.0816327,19.5918367 Z M82.244898,19.5918367 L82.244898,22.0177749 L79.1325116,22.0177749 L79.1325116,24.9583059 L81.1957395,24.9583059 L81.1957395,27.555775 L79.1325116,27.555775 L79.1325116,30.667837 L82.244898,30.667837 L82.244898,33.2653061 L75.9183673,33.2653061 L75.9183673,19.5918367 L82.244898,19.5918367 Z M68.5077251,19.5918367 C68.8916753,19.5918367 69.2720704,19.6443462 69.6453553,19.7388633 C70.0186402,19.8333804 70.3563742,19.9874082 70.651447,20.1904448 C70.9465199,20.3969821 71.1847112,20.6560289 71.3624659,20.9675852 C71.5437757,21.2826421 71.6326531,21.6537091 71.6326531,22.0877875 L71.6326531,24.7202629 C71.6326531,25.0353198 71.5260002,25.3363742 71.3198048,25.6164248 C71.1100542,25.8964753 70.7972059,26.1275171 70.3812598,26.3095499 C70.800761,26.4915828 71.1100542,26.7191239 71.3198048,26.9921732 C71.5295553,27.2652225 71.6326531,27.5697775 71.6326531,27.898837 L71.6326531,30.7693554 C71.6326531,31.2034338 71.5402206,31.5780014 71.3624659,31.8895577 C71.1847112,32.2011139 70.9465199,32.4601607 70.651447,32.666698 C70.3563742,32.8697347 70.0221953,33.0202619 69.6453553,33.1182796 C69.2685153,33.2162973 68.8881202,33.2653061 68.5077251,33.2653061 L64.0816327,33.2653061 L64.0816327,19.5918367 L68.5077251,19.5918367 Z M52.6109413,19.5918367 L53.9638199,25.8299633 L55.2816499,19.5918367 L59.7959184,19.5918367 L59.7959184,33.2653061 L56.6485479,33.2653061 L56.6485479,24.5627345 L54.6647933,33.2653061 L52.6810387,33.2653061 L50.988188,24.5487319 L50.988188,33.2653061 L48.1632653,33.2653061 L48.1632653,19.5918367 L52.6109413,19.5918367 Z M4.44767603,19.5918367 L5.79704976,25.8299633 L7.1148797,19.5918367 L11.6326531,19.5918367 L11.6326531,33.2653061 L8.48528263,33.2653061 L8.48528263,24.5627345 L6.501528,33.2653061 L4.51777336,33.2653061 L2.82141781,24.5487319 L2.82141781,33.2653061 L0,33.2653061 L0,19.5918367 L4.44767603,19.5918367 Z M29.3361148,19.5918367 L30.1739011,27.2302162 L31.1343758,19.5918367 L34.2857143,19.5918367 L31.6146132,33.2653061 L28.5894685,33.2653061 L25.9183673,19.5918367 L29.3361148,19.5918367 Z M19.0887201,22.0685311 C18.8973595,22.0685311 18.7378923,22.1214412 18.6067749,22.2237339 C18.4756574,22.329554 18.4118705,22.4741749 18.4118705,22.6575964 L18.4118705,30.4036281 C18.4118705,30.5870496 18.4756574,30.7316704 18.6067749,30.8339632 C18.7378923,30.936256 18.8973595,30.989166 19.0887201,30.989166 C19.2659058,30.989166 19.4218293,30.9397833 19.5529467,30.8339632 C19.6840642,30.7316704 19.7478511,30.5870496 19.7478511,30.4036281 L19.7478511,22.6575964 C19.7478511,22.4706475 19.6840642,22.329554 19.5529467,22.2237339 C19.4218293,22.1214412 19.2659058,22.0685311 19.0887201,22.0685311 Z M68.0740036,27.6572933 L67.2776625,27.6572933 L67.2776625,30.6818396 L68.0740036,30.6818396 C68.4437334,30.6818396 68.6285983,30.4998067 68.6285983,30.1357409 L68.6285983,28.1858888 C68.6285983,27.993354 68.5823821,27.8568294 68.4828395,27.7763148 C68.3832968,27.6993009 68.2482032,27.6572933 68.0740036,27.6572933 Z M90.3043655,22.1893058 L89.4820922,22.1893058 L89.4820922,25.4028862 L90.3043655,25.4028862 C90.6592783,25.4028862 90.8349777,25.2208533 90.8349777,24.8567876 L90.8349777,22.7354045 C90.8349777,22.3713387 90.6592783,22.1893058 90.3043655,22.1893058 Z M68.0740036,22.1893058 L67.2776625,22.1893058 L67.2776625,25.1298369 L68.0740036,25.1298369 C68.4437334,25.1298369 68.6285983,24.9513046 68.6285983,24.5977408 L68.6285983,22.7354045 C68.6285983,22.3713387 68.4437334,22.1893058 68.0740036,22.1893058 Z M97.755102,19.7959184 C98.3925422,19.7959184 98.9260519,20.010708 99.3556311,20.4402872 C99.7852104,20.8698665 100,21.4033762 100,22.0408163 C100,22.6782565 99.7852104,23.2117662 99.3556311,23.6413454 C98.9260519,24.0709247 98.3925422,24.2857143 97.755102,24.2857143 C97.1176619,24.2857143 96.5841522,24.0709247 96.1545729,23.6413454 C95.7249937,23.2117662 95.5102041,22.6782565 95.5102041,22.0408163 C95.5102041,21.4033762 95.7249937,20.8698665 96.1545729,20.4402872 C96.5841522,20.010708 97.1176619,19.7959184 97.755102,19.7959184 Z M97.755102,20.1319602 C97.2146636,20.1319602 96.7642983,20.3155707 96.404006,20.6793273 C96.0437138,21.0430839 95.8635676,21.4969136 95.8635676,22.037352 C95.8635676,22.5847191 96.0437138,23.0385488 96.404006,23.4023054 C96.7642983,23.766062 97.2146636,23.9496725 97.755102,23.9496725 C98.2955404,23.9496725 98.7424414,23.766062 99.0992693,23.4023054 C99.4560973,23.0420131 99.632779,22.5847191 99.632779,22.0338876 C99.632779,21.4865205 99.4526329,21.0326909 99.0992693,20.6723986 C98.7459058,20.3121063 98.2955404,20.1319602 97.755102,20.1319602 Z M98.0410988,20.8163265 C98.2811948,20.8163265 98.4647977,20.89343 98.5883765,21.0546464 C98.7119554,21.2123581 98.7755102,21.3875933 98.7755102,21.5803521 C98.7755102,21.7731108 98.7154862,21.948346 98.5954382,22.102553 C98.4753902,22.2602647 98.3165031,22.3548918 98.1117153,22.3829294 L98.7578561,23.4693878 L98.3023798,23.4693878 L97.7021397,22.3899388 L97.1442695,22.3899388 L97.1442695,23.4693878 L96.7346939,23.4693878 L96.7346939,20.8163265 L98.0410988,20.8163265 Z M98.0552221,21.1913299 L97.1442695,21.1913299 L97.1442695,22.0394684 L98.0552221,22.0394684 C98.1505543,22.0394684 98.2282325,21.9939072 98.2882565,21.9097943 C98.3482805,21.8256814 98.3765271,21.7205403 98.3765271,21.5943709 C98.3765271,21.4927345 98.3482805,21.4016122 98.2917873,21.3174993 C98.2352941,21.2333864 98.157616,21.1913299 98.0552221,21.1913299 Z M40.9479425,0.830430663 C41.8207564,0.559508383 42.6794356,0.559508383 43.4815763,0.728394999 C43.7253988,0.774135124 43.9020818,0.82339372 43.9974906,0.855059961 C44.4639336,0.981724923 44.8561698,1.15413001 45.1954011,1.34764592 C46.213095,1.87189813 46.8173508,2.74799745 47.5912222,3.17021399 L47.7113666,3.17021399 C48.485238,2.74799745 49.0894938,1.87189813 50.1071877,1.34764592 C50.446419,1.15413001 50.8386552,0.981724923 51.3050982,0.855059961 C51.400507,0.826912191 51.5807236,0.774135124 51.8210125,0.728394999 C52.6231532,0.563026854 53.4818324,0.563026854 54.3546462,0.830430663 C56.6550585,1.53412489 58.7151819,3.289842 60.7823727,4.8766725 C61.2452821,5.20740879 61.6940568,5.53110813 62.1180959,5.83721513 C62.1357642,5.85128901 62.1534325,5.86184442 62.1746345,5.87591831 C62.8389624,6.36146733 63.4290836,6.79423928 63.849589,7.11090169 C63.9626661,7.17775264 64.1499501,7.26219595 64.358436,7.26219595 C64.5421863,7.26219595 64.7153356,7.19886347 64.8672829,7.06868003 C65.0192303,6.94201507 65.1641103,6.81886858 65.2983894,6.7062775 C65.6729573,6.39313357 65.966251,6.14684059 66.142934,5.9744355 C66.3655545,5.75629029 66.5210355,4.65149034 66.5351702,4.44038207 C66.5457711,4.29260629 66.8143292,1.25968414 66.8425985,0.957095624 L66.8461322,0.907837028 L66.858401,0.853793311 C66.8848611,0.786238665 66.949315,0.738950412 67.0228151,0.738950412 C67.07582,0.738950412 67.1252913,0.763579711 67.1570942,0.802282893 C67.1606279,0.802282893 67.1959645,0.862096903 67.1994981,0.890244672 C67.3019742,1.17524084 67.4998592,2.06541404 67.6977441,3.16317704 C68.7684429,9.08828248 68.4292116,7.03701379 68.7684429,9.08828248 C68.7719765,9.12346719 68.7755102,9.15161496 68.7755102,9.17976273 C68.7755102,9.17976273 68.7719765,9.1832812 68.7719765,9.18679967 C68.7861112,9.32402005 68.6836351,9.43309265 68.5988272,9.46827737 C66.6517809,10.3197474 64.5739892,11.160662 62.6163419,11.9875027 C62.5032648,12.0332428 62.3760531,12.0437983 62.2453077,12.0367613 C62.1322306,12.0437983 62.0120861,12.0297244 61.9131437,12.0156505 C61.3371572,11.9100964 60.7717717,11.7517651 60.1957852,11.6497295 C58.828259,11.406955 57.6091465,10.9565907 56.2098174,10.9319614 L56.0366681,10.9319614 C55.8529178,10.9389983 55.6691675,10.9389983 55.4854173,10.9389983 C54.481858,10.9460353 53.4747651,10.8932582 52.4606048,10.8580735 C52.4606048,10.8580735 52.1496428,10.8404811 52.0082964,10.7806671 L47.7467032,8.9510621 C47.7007656,8.92995128 47.6548281,8.91587739 47.5982895,8.91587739 C47.5346836,8.91939586 47.4852124,8.92995128 47.4428085,8.9510621 C46.0187438,9.55623914 44.6017463,10.1754901 43.1776816,10.7806671 C43.0363352,10.8404811 42.7253732,10.8580735 42.7253732,10.8580735 C41.5734003,10.8967767 40.424961,10.9601091 39.2765217,10.9319614 C37.7711828,10.8897397 36.336517,11.3893626 34.8735821,11.646211 C34.2975956,11.7482467 33.7286764,11.9065779 33.1562236,12.012132 C32.965406,12.0473167 32.7463191,12.0613906 32.5696361,11.9875027 C32.4353571,11.9312072 32.290477,11.8678747 32.1385297,11.8045422 C30.3257624,11.033997 28.5129952,10.2564149 26.7072952,9.46827737 C26.6224874,9.43309265 26.5200113,9.32402005 26.5341459,9.18679967 C26.5306122,9.1832812 26.5306122,9.17976273 26.5306122,9.17976273 C26.5306122,9.15161496 26.5306122,9.12346719 26.5376796,9.08828248 C26.8804445,7.03349532 26.5376796,9.08828248 27.611912,3.16317704 C27.8097969,2.06541404 28.0041482,1.17524084 28.1066243,0.890244672 C28.1136916,0.862096903 28.1490282,0.802282893 28.1490282,0.802282893 C28.1808312,0.763579711 28.2303024,0.738950412 28.2833073,0.738950412 C28.3751824,0.738950412 28.4493893,0.812838307 28.4599903,0.907837028 L28.4635239,0.957095624 C28.4917932,1.25616567 28.763885,4.29260629 28.774486,4.44038207 C28.7886206,4.65149034 28.9405679,5.75629029 29.1631885,5.9744355 C29.3398715,6.14332212 29.6331652,6.39313357 30.0077331,6.7062775 C30.1455458,6.81886858 30.2904258,6.94201507 30.4388395,7.06868003 C30.5907869,7.19886347 30.7604025,7.26219595 30.9476865,7.26219595 C31.1561724,7.26219595 31.3434563,7.17775264 31.4565334,7.11090169 C31.8805726,6.79423928 32.4706937,6.36146733 33.1385553,5.87591831 C33.1491563,5.86184442 33.1668246,5.85128901 33.1880265,5.83721513 C33.6120657,5.53110813 34.0643741,5.20740879 34.5237498,4.8766725 C36.5874069,3.289842 38.6510639,1.53764337 40.9479425,0.830430663 Z" id="path-1"></path>
            </g>
            <g id="color/brand/secondary_white-Clipped">
                <mask id="mask-2" fill="white">
                    <use xlink:href="#path-1"></use>
                </mask>
                <g id="path-1"></g>
                <g id="color/brand/secondary_white" mask="url(#mask-2)" fill="#FFFFFF" fill-rule="nonzero">
                    <rect id="Rectangle" x="0" y="0" width="100" height="47.3469388"></rect>
                </g>
            </g>
        </g>
    </g>
</svg>