<svg xmlns="http://www.w3.org/2000/svg" width="108" height="48"><path d="M14.487 40.816v4c0 .6.14 1.023.42 1.263s.67.363 1.173.363.895-.123 1.18-.363.424-.663.424-1.263h.008v-4h1.042v4c0 .893-.24 1.538-.714 1.94s-1.12.6-1.937.6c-.8 0-1.435-.198-1.918-.6s-.722-1.048-.722-1.94v-4h1.042zm55.052-.204a3.27 3.27 0 0 1 1.152.193 2.47 2.47 0 0 1 .848.522c.22.218.405.476.555.773a3.79 3.79 0 0 1 .323.912c.064.308.098.63.098.966s-.034.655-.098.966a3.79 3.79 0 0 1-.323.912c-.15.3-.334.558-.555.773s-.503.393-.848.522a3.19 3.19 0 0 1-1.152.197 3.19 3.19 0 0 1-1.152-.197c-.345-.132-.627-.304-.848-.522s-.405-.476-.555-.773-.26-.6-.323-.912-.098-.63-.098-.966a4.54 4.54 0 0 1 .098-.966 3.79 3.79 0 0 1 .323-.912c.15-.297.334-.554.555-.773s.503-.4.848-.522a3.27 3.27 0 0 1 1.152-.193zm19.988 0c.614 0 1.12.125 1.528.376s.687.558.848.916l-.948.408a1.86 1.86 0 0 0-.595-.587c-.215-.125-.495-.186-.833-.186-.33 0-.622.072-.868.222s-.438.347-.568.594-.234.504-.296.776-.096.547-.096.84c0 .644.154 1.212.468 1.702s.768.733 1.36.733 1.06-.28 1.416-.826l.967.343c-.438.95-1.232 1.423-2.384 1.423-.418 0-.795-.064-1.132-.197s-.614-.304-.83-.522-.4-.476-.545-.773-.246-.604-.307-.912-.092-.63-.092-.966c0-.397.054-.783.16-1.162s.27-.737.484-1.073.518-.612.9-.82.837-.31 1.35-.31zm-11.502.204v4.266c0 .427-.063.794-.2 1.104s-.32.543-.548.706a2.35 2.35 0 0 1-.716.349c-.25.07-.515.106-.79.106-.49 0-.925-.102-1.298-.3a2.03 2.03 0 0 1-.854-.9l.873-.402c.24.466.664.7 1.28.7.373 0 .675-.106.906-.318s.343-.6.343-1.16v-4.14h1.007zm20.498 0v.904h-1.92v5.423h-1.007V41.72h-1.92v-.904h4.85zm-53.806 0c.587 0 1.102.1 1.543.27s.79.424 1.044.73.44.643.56 1.008.184.747.184 1.158c0 .393-.06.76-.177 1.116a3.41 3.41 0 0 1-.545 1.001c-.246.316-.595.57-1.052.758s-1 .285-1.6.285H42.76v-6.327h1.958zm-33.256 0v.886H8.276v1.735h2.057v.886H8.276v2.82H7.273v-6.327h4.188zm43.78 0c.785 0 1.364.188 1.73.563a1.86 1.86 0 0 1 .556 1.373c0 .504-.2.956-.575 1.345s-.956.587-1.714.587h-1.752v2.458h-1.028v-6.327h2.784zm7.14 0c.77 0 1.333.177 1.677.532s.52.803.52 1.338c0 .403-.124.772-.374 1.11s-.618.56-1.104.68l1.4 2.666h-1.157L62 44.557h-1.48v2.586H59.5v-6.327h2.872zm-40.39 0l2.944 4.22a6.12 6.12 0 0 1 .288.487c-.023-.18-.03-.34-.03-.48v-4.227h1.036v6.327h-.98l-3.025-4.293c-.096-.136-.188-.292-.28-.473l.03.473v4.293H20.94v-6.327h1.052zm8.62 0c.587 0 1.102.1 1.543.27s.79.424 1.044.73a3.17 3.17 0 0 1 .56 1.008c.123.362.184.747.184 1.158 0 .393-.06.76-.177 1.116a3.41 3.41 0 0 1-.545 1.001c-.246.316-.595.57-1.052.758s-1 .285-1.6.285h-1.916v-6.327h1.958zm9.732 0v.886H37.15v1.735h2.06v.886h-2.06v1.936h3.404v.883h-4.408v-6.327h4.196zm44.302 0v.886h-3.192v1.735h2.06v.886h-2.06v1.936h3.404v.883H80.45v-6.327h4.196zm-15.106.73a1.76 1.76 0 0 0-.897.229c-.26.154-.462.354-.604.6a3.03 3.03 0 0 0-.315.776 3.43 3.43 0 0 0-.101.833 3.59 3.59 0 0 0 .101.858 2.88 2.88 0 0 0 .315.776 1.61 1.61 0 0 0 .604.579 1.79 1.79 0 0 0 .897.218 1.76 1.76 0 0 0 .897-.229c.26-.154.462-.354.604-.6a3.03 3.03 0 0 0 .315-.776c.07-.268.105-.547.105-.833a3.59 3.59 0 0 0-.105-.858 2.88 2.88 0 0 0-.315-.776 1.61 1.61 0 0 0-.604-.579 1.79 1.79 0 0 0-.897-.218zm-38.686.154h-1.16v4.554h1.048c.38 0 .714-.066.998-.202s.507-.316.668-.542.276-.466.35-.723.11-.525.11-.8c0-.633-.173-1.17-.51-1.613s-.84-.664-1.505-.664zm14.1 0h-1.16v4.554h1.048c.38 0 .714-.066.998-.202s.507-.316.668-.542.276-.466.35-.723.107-.525.11-.8c0-.633-.173-1.17-.51-1.613s-.84-.664-1.505-.664zm10.336.02h-1.813v2.06h1.813c.396 0 .69-.1.876-.302a1.02 1.02 0 0 0 .282-.727c0-.27-.088-.51-.27-.72s-.48-.313-.887-.313zm7.102 0h-1.88v1.933h1.88c.39 0 .678-.1.857-.275s.273-.417.273-.692c0-.264-.086-.494-.258-.68s-.464-.285-.872-.285zM20.62 19.388c.616 0 1.183.092 1.703.282s.968.43 1.355.723.685.617.903.98.325.713.325 1.058v8.2c0 .342-.107.698-.325 1.058s-.52.688-.903.98-.838.533-1.355.72-1.087.282-1.703.282-1.2-.092-1.715-.282-.98-.43-1.366-.723-.685-.62-.903-.98-.325-.713-.325-1.058v-8.198c0-.346.107-.698.325-1.058s.52-.688.903-.98.838-.533 1.366-.723 1.098-.282 1.715-.282zm77.372.204c.4 0 .812.05 1.214.147s.76.25 1.074.452.565.466.76.777.288.686.288 1.12v2.976c0 .33-.114.67-.334 1.015s-.55.613-.98.795l1.814 6.392h-3.222l-1.13-5.436h-.835v5.436h-3.408V19.592h4.76zm-50.384 0v2.426h-3.36v2.94h2.23v2.597h-2.23v3.112h3.36v2.597h-6.833V19.592h6.833zm41.216 0v2.426h-3.36v2.94h2.228v2.597h-2.228v3.112h3.36v2.597h-6.833V19.592h6.833zm-14.836 0a5.38 5.38 0 0 1 1.229.147c.403.095.768.25 1.087.452s.576.466.768.777.292.686.292 1.12v2.632c0 .315-.115.616-.338.896s-.564.51-1.014.693c.453.182.787.4 1.014.683a1.39 1.39 0 0 1 .338.907v2.87c0 .434-.1.81-.292 1.12s-.45.57-.768.777a3.55 3.55 0 0 1-1.087.452 5.24 5.24 0 0 1-1.229.147h-4.78V19.592h4.78zm-17.17 0l1.46 6.238 1.423-6.238h4.875v13.673h-3.4v-8.703l-2.142 8.703h-2.142l-1.828-8.717v8.717h-3.05V19.592h4.803zm-52.016 0L6.26 25.83l1.423-6.238h4.88v13.673h-3.4v-8.703l-2.142 8.703H4.88L3.047 24.55v8.717H0V19.592h4.803zm26.88 0l.905 7.638 1.037-7.638h3.403l-2.885 13.673h-3.267l-2.885-13.673h3.69zM20.616 22.07c-.207 0-.38.053-.52.155a.51.51 0 0 0-.21.434v7.746a.5.5 0 0 0 .21.43c.142.102.314.155.52.155.19 0 .36-.05.5-.155a.5.5 0 0 0 .21-.43v-7.746c0-.187-.07-.328-.2-.434s-.3-.155-.5-.155zm52.904 5.59h-.86v3.025h.86c.4 0 .6-.182.6-.546v-1.95c0-.193-.05-.33-.157-.4s-.253-.12-.442-.12zm24.01-5.468h-.888v3.214h.888c.383 0 .573-.182.573-.546v-2.12c0-.364-.2-.546-.573-.546zm-24.01 0h-.86v2.94h.86c.4 0 .6-.18.6-.532v-1.862c0-.364-.2-.546-.6-.546zm32.056-2.393c.688 0 1.265.215 1.73.644a2.09 2.09 0 0 1 .696 1.601 2.09 2.09 0 0 1-.696 1.601c-.464.43-1.04.644-1.73.644s-1.265-.215-1.73-.644a2.09 2.09 0 0 1-.696-1.601 2.09 2.09 0 0 1 .696-1.601c.464-.43 1.04-.644 1.73-.644zm0 .336c-.584 0-1.07.184-1.46.547s-.584.818-.584 1.358c0 .547.195 1 .584 1.365s.876.547 1.46.547 1.066-.184 1.452-.547.576-.818.576-1.368-.195-1-.576-1.36-.868-.54-1.452-.54zm.31.684c.26 0 .458.077.59.238s.202.333.202.526a.79.79 0 0 1-.194.522c-.13.158-.3.252-.522.28l.698 1.086h-.492l-.648-1.08h-.602v1.08h-.442v-2.653h1.41zm.015.375h-.984v.848h.984c.103 0 .187-.046.252-.13a.5.5 0 0 0 .095-.315.46.46 0 0 0-.092-.277c-.06-.084-.145-.126-.255-.126zM44.224.83c.943-.27 1.87-.27 2.736-.102.263.046.454.095.557.127a5.74 5.74 0 0 1 1.294.493c1.1.524 1.752 1.4 2.587 1.823h.13c.836-.422 1.488-1.298 2.587-1.823A5.74 5.74 0 0 1 55.41.855l.557-.127c.866-.165 1.794-.165 2.736.102 2.484.704 4.71 2.46 6.942 4.046l1.443.96c.02.014.038.025.06.04l1.81 1.235c.122.067.324.15.55.15a.87.87 0 0 0 .55-.194l.466-.362.912-.732c.24-.218.408-1.323.424-1.534l.336-3.533.013-.054c.03-.068.098-.115.178-.115.057 0 .11.025.145.063.004 0 .042.06.046.088.11.285.324 1.175.538 2.273l1.156 5.925.008.09c.01.144-.1.253-.19.29l-6.46 2.52c-.122.046-.26.056-.4.05a1.96 1.96 0 0 1-.359-.021l-1.855-.366c-1.477-.243-2.794-.693-4.305-.718h-.187l-.595.007c-1.084.007-2.172-.046-3.267-.08 0 0-.336-.018-.488-.077l-4.603-1.83c-.05-.02-.1-.035-.16-.035a.45.45 0 0 0-.168.035l-4.606 1.83c-.153.06-.488.077-.488.077l-3.725.074c-1.626-.042-3.175.457-4.755.714l-1.855.366c-.206.035-.443.05-.634-.025l-.466-.183-5.866-2.336c-.092-.035-.202-.144-.187-.28-.004-.035-.004-.063.004-.1l1.16-5.925L30.355.9c.008-.028.046-.088.046-.088.034-.04.088-.063.145-.063.1 0 .18.074.19.17l.004.05.336 3.483c.015.21.18 1.316.42 1.534l.912.732.466.362a.86.86 0 0 0 .55.194c.225 0 .427-.084.55-.15L35.8 5.876c.01-.014.03-.025.053-.04l1.443-.96c2.23-1.587 4.457-3.34 6.938-4.046z" fill="#000" fill-rule="nonzero"/></svg>