<?xml version="1.0" encoding="UTF-8"?>
<svg width="128px" height="40px" viewBox="0 0 128 40" version="1.1" xmlns="http://www.w3.org/2000/svg" xmlns:xlink="http://www.w3.org/1999/xlink">
    <!-- Generator: Sketch 48.2 (47327) - http://www.bohemiancoding.com/sketch -->
    <title>TrueNTH_Logo</title>
    <desc>Created with Sketch.</desc>
    <defs></defs>
    <g id="Page-1" stroke="none" stroke-width="1" fill="none" fill-rule="evenodd">
        <g id="TrueNTH_Logo" fill="#000000" fill-rule="nonzero">
            <g id="Group" transform="translate(0.000000, 13.387097)">
                <g transform="translate(0.000000, 0.322581)" id="Shape">
                    <path d="M11.0359799,25.6193548 L6.94351759,25.6193548 C6.52703518,25.6193548 6.33889447,25.4354839 6.33889447,25.0290323 L6.33889447,4.76290323 C6.33889447,4.39516129 6.14914573,4.20967742 5.77125628,4.20967742 L0.654472362,4.20967742 C0.23638191,4.20967742 0.048241206,4.02580645 0.048241206,3.62096774 L0.048241206,0.561290323 C0.048241206,0.193548387 0.23638191,0.00967741935 0.654472362,0.00967741935 L17.3234171,0.00967741935 C17.7013065,0.00967741935 17.9296482,0.193548387 17.9296482,0.561290323 L17.9296482,3.62096774 C17.9296482,4.02580645 17.7029146,4.20967742 17.3234171,4.20967742 L12.2098492,4.20967742 C11.8319598,4.20967742 11.6422111,4.39354839 11.6422111,4.76290323 L11.6422111,25.0290323 C11.6422111,25.4354839 11.4138693,25.6193548 11.0359799,25.6193548"></path>
                    <path d="M26.0357789,4.24677419 C25.5807035,4.24677419 25.4311558,4.46774194 25.4311558,4.83709677 L25.4311558,11.616129 C25.4311558,11.8370968 25.5067337,12.2048387 26.0743719,12.2048387 L28.0442211,12.2048387 C29.9754774,12.0580645 31.4934673,11.2467742 31.4934673,8.22580645 C31.4934673,5.27741935 29.560603,4.24516129 27.7805025,4.24516129 L26.0357789,4.24516129 L26.0357789,4.24677419 Z M37.0219095,25.6193548 L32.5515578,25.6193548 C32.361809,25.6193548 32.0964824,25.4354839 31.9839196,25.1758065 L28.9913568,17.0322581 C28.8771859,16.7016129 28.6118593,16.4435484 28.1567839,16.4435484 L26.1097487,16.4435484 C25.5051256,16.4806452 25.4295477,16.8854839 25.4295477,17.1064516 L25.4295477,25.0290323 C25.4295477,25.3983871 25.238191,25.6193548 24.8603015,25.6193548 L20.7308543,25.6193548 C20.3513568,25.6193548 20.1246231,25.3983871 20.1246231,25.0290323 L20.1246231,0.561290323 C20.1246231,0.193548387 20.3513568,0.00967741935 20.7308543,0.00967741935 L27.8914573,0.00967741935 C33.119196,0.00967741935 36.9093467,2.40483871 36.9093467,8.00483871 C36.9093467,11.616129 35.6213065,13.6435484 34.1435176,14.8225806 C34.0293467,14.933871 33.9537688,15.116129 33.9167839,15.3016129 C33.9167839,15.4483871 33.9167839,15.5951613 33.9939698,15.7435484 L37.478593,24.7354839 C37.5155779,24.8467742 37.5911558,24.9564516 37.5911558,25.0677419 C37.5895477,25.4354839 37.401407,25.6193548 37.0219095,25.6193548 Z"></path>
                    <path d="M56.1897487,19.133871 C56.1897487,23.6290323 53.121608,26.2080645 47.7780905,26.2080645 C42.4361809,26.2080645 39.2924623,23.6290323 39.2924623,19.133871 L39.2924623,0.561290323 C39.2924623,0.193548387 39.4822111,0.00967741935 39.8617085,0.00967741935 L43.9911558,0.00967741935 C44.4076382,0.00967741935 44.598995,0.193548387 44.598995,0.561290323 L44.598995,18.8032258 C44.598995,20.3870968 45.4303518,22.0096774 47.7796985,22.0096774 C50.2046231,22.0096774 50.8864322,20.3887097 50.8864322,18.8032258 L50.8864322,0.561290323 C50.8864322,0.193548387 51.0745729,0.00967741935 51.4926633,0.00967741935 L55.6237186,0.00967741935 C56.001608,0.00967741935 56.1913568,0.193548387 56.1913568,0.561290323 L56.1913568,19.133871 L56.1897487,19.133871 Z"></path>
                    <path d="M72.0530653,0.561290323 L72.0530653,3.62096774 C72.0530653,4.02580645 71.8633166,4.21129032 71.4452261,4.21129032 L64.8152764,4.21129032 C64.4373869,4.21129032 64.2460302,4.39354839 64.2460302,4.76451613 L64.2460302,10.2548387 C64.2460302,10.6241935 64.5869347,10.7709677 64.7782915,10.7709677 L70.4594975,10.7709677 C70.840603,10.7709677 71.0287437,10.9548387 71.0287437,11.3596774 L71.0287437,14.4177419 C71.0287437,14.7870968 70.840603,14.9709677 70.4594975,14.9709677 L64.8168844,14.9709677 C64.438995,14.9709677 64.2476382,15.1548387 64.2476382,15.5225806 L64.2476382,20.8290323 C64.2476382,21.1967742 64.438995,21.3806452 64.8168844,21.3806452 L71.4468342,21.3806452 C71.8649246,21.3806452 72.0546734,21.5645161 72.0546734,21.933871 L72.0546734,25.0290323 C72.0546734,25.4354839 71.8649246,25.6193548 71.4468342,25.6193548 L59.5505528,25.6193548 C59.1324623,25.6193548 58.9443216,25.4354839 58.9443216,25.0290323 L58.9443216,0.561290323 C58.9443216,0.193548387 59.1324623,0.00967741935 59.5505528,0.00967741935 L71.4468342,0.00967741935 C71.8633166,0.00967741935 72.0530653,0.193548387 72.0530653,0.561290323"></path>
                </g>
                <g transform="translate(74.773869, 0.000000)" id="Shape">
                    <path d="M3.48623116,8.43064516 C3.42190955,8.3016129 3.33668342,8.25806452 3.20643216,8.25806452 C3.01507538,8.25806452 2.88482412,8.36612903 2.88482412,8.58225806 L2.88482412,14.9919355 C2.88482412,15.2290323 2.77869347,15.3354839 2.56321608,15.3354839 L0.440603015,15.3354839 C0.204221106,15.3354839 0.0964824121,15.2290323 0.0964824121,14.9919355 L0.0964824121,0.709677419 C0.0964824121,0.493548387 0.204221106,0.387096774 0.419698492,0.387096774 L2.5841206,0.387096774 C2.71276382,0.387096774 2.82050251,0.45 2.88482412,0.6 L6.25045226,7.09516129 C6.29386935,7.20322581 6.4,7.29032258 6.55115578,7.29032258 C6.76663317,7.29032258 6.87276382,7.18225806 6.87276382,6.96774194 L6.87276382,0.709677419 C6.87276382,0.493548387 6.98050251,0.387096774 7.1959799,0.387096774 L9.31698492,0.387096774 C9.55497487,0.387096774 9.66110553,0.493548387 9.66110553,0.709677419 L9.66110553,15.0112903 C9.66110553,15.2274194 9.53246231,15.333871 9.31698492,15.333871 L7.32301508,15.333871 C7.1959799,15.333871 7.08663317,15.2693548 7.02231156,15.1177419 L3.48623116,8.43064516 Z"></path>
                    <path d="M16.2283417,15.6758065 C12.7324623,15.6758065 11.2755779,13.6129032 11.2755779,11.2467742 L11.2755779,4.62258065 C11.2755779,2.25645161 12.7131658,0.0209677419 16.2058291,0.0209677419 C19.7017085,0.0209677419 21.158593,2.08548387 21.158593,4.4516129 L21.158593,11.0741935 C21.158593,13.4403226 19.7226131,15.6758065 16.2283417,15.6758065 Z M14.2970854,11.2048387 C14.2970854,12.1725806 14.7473367,13.2258065 16.2283417,13.2258065 C17.6659296,13.2258065 18.1370854,12.15 18.1370854,11.1612903 L18.1370854,4.49516129 C18.1370854,3.52903226 17.6868342,2.47419355 16.2058291,2.47419355 C14.7714573,2.47419355 14.2970854,3.55 14.2970854,4.53870968 L14.2970854,11.2048387 Z"></path>
                    <path d="M32.3376884,15.333871 L29.8082412,15.333871 C29.7005025,15.333871 29.5493467,15.2274194 29.4866332,15.0758065 L27.7917588,10.3209677 C27.7274372,10.1290323 27.5794975,9.97741935 27.320603,9.97741935 L26.1628141,9.97741935 C25.8186935,9.9983871 25.7768844,10.2354839 25.7768844,10.3645161 L25.7768844,14.9887097 C25.7768844,15.2016129 25.6691457,15.3322581 25.4552764,15.3322581 L23.1171859,15.3322581 C22.9017085,15.3322581 22.7730653,15.2032258 22.7730653,14.9887097 L22.7730653,0.709677419 C22.7730653,0.493548387 22.9017085,0.387096774 23.1171859,0.387096774 L27.1694472,0.387096774 C30.1282412,0.387096774 32.2733668,1.78387097 32.2733668,5.05322581 C32.2733668,7.15967742 31.5449246,8.34354839 30.7087437,9.03225806 C30.6444221,9.09516129 30.601005,9.20322581 30.5801005,9.31129032 C30.5801005,9.39677419 30.5801005,9.48387097 30.6219095,9.57096774 L32.5949749,14.8177419 C32.6174874,14.8822581 32.6592965,14.9467742 32.6592965,15.0129032 C32.6592965,15.2258065 32.5531658,15.333871 32.3376884,15.333871 Z M26.119397,2.85967742 C25.8621106,2.85967742 25.7768844,2.98870968 25.7768844,3.20322581 L25.7768844,7.16129032 C25.7768844,7.29032258 25.8186935,7.50645161 26.1419095,7.50645161 L27.2562814,7.50645161 C28.3513568,7.41935484 29.2084422,6.94677419 29.2084422,5.18225806 C29.2084422,3.46290323 28.1149749,2.85967742 27.1067337,2.85967742 L26.119397,2.85967742 Z"></path>
                    <path d="M38.7746734,15.333871 L36.4574874,15.333871 C36.2211055,15.333871 36.1149749,15.2274194 36.1149749,14.9903226 L36.1149749,3.16129032 C36.1149749,2.94516129 36.0088442,2.83870968 35.7933668,2.83870968 L32.8988945,2.83870968 C32.6625126,2.83870968 32.5547739,2.73064516 32.5547739,2.49354839 L32.5547739,0.709677419 C32.5547739,0.493548387 32.6625126,0.387096774 32.8988945,0.387096774 L42.3332663,0.387096774 C42.5455276,0.387096774 42.6757789,0.493548387 42.6757789,0.709677419 L42.6757789,2.49354839 C42.6757789,2.73064516 42.5471357,2.83870968 42.3332663,2.83870968 L39.438794,2.83870968 C39.2233166,2.83870968 39.1155779,2.94516129 39.1155779,3.16129032 L39.1155779,14.9903226 C39.1171859,15.2258065 38.9901508,15.333871 38.7746734,15.333871 Z"></path>
                    <path d="M46.3292462,15.333871 L43.9911558,15.333871 C43.7547739,15.333871 43.6470352,15.2048387 43.6470352,14.9903226 L43.6470352,0.709677419 C43.6470352,0.493548387 43.7547739,0.387096774 43.9911558,0.387096774 L46.3292462,0.387096774 C46.5415075,0.387096774 46.6508543,0.493548387 46.6508543,0.709677419 L46.6508543,6.34354839 C46.6508543,6.55967742 46.7569849,6.66774194 46.9724623,6.66774194 L49.8878392,6.66774194 C50.1033166,6.66774194 50.2110553,6.55967742 50.2110553,6.34354839 L50.2110553,0.709677419 C50.2110553,0.493548387 50.3171859,0.387096774 50.5326633,0.387096774 L52.8691457,0.387096774 C53.1071357,0.387096774 53.2132663,0.493548387 53.2132663,0.709677419 L53.2132663,14.9903226 C53.2132663,15.2032258 53.1071357,15.333871 52.8691457,15.333871 L50.5326633,15.333871 C50.3171859,15.333871 50.2110553,15.2048387 50.2110553,14.9903226 L50.2110553,9.44032258 C50.2110553,9.22419355 50.1033166,9.11774194 49.8878392,9.11774194 L46.9724623,9.11774194 C46.7569849,9.11774194 46.6508543,9.22419355 46.6508543,9.44032258 L46.6508543,14.9903226 C46.6508543,15.2032258 46.5431156,15.333871 46.3292462,15.333871 Z"></path>
                </g>
            </g>
            <path d="M42.6307538,6.44677419 C42.6307538,6.43225806 42.6291457,6.41612903 42.6259296,6.39677419 C42.4345729,5.2516129 42.6259296,6.39677419 42.0229146,3.09354839 C41.9103518,2.48064516 41.801005,1.98387097 41.7431156,1.82580645 C41.7398995,1.80967742 41.720603,1.77741935 41.718995,1.77741935 C41.6996985,1.75483871 41.6739698,1.74032258 41.6434171,1.74032258 C41.5919598,1.74032258 41.5485427,1.78225806 41.5437186,1.83387097 L41.5421106,1.86129032 C41.5276382,2.02903226 41.3732663,3.72096774 41.3684422,3.80483871 C41.360402,3.92258065 41.2735678,4.54032258 41.1481407,4.65967742 C41.0484422,4.75483871 40.8828141,4.89354839 40.6721608,5.06935484 C40.5965829,5.13225806 40.5145729,5.2 40.4309548,5.27096774 C40.3457286,5.34354839 40.2492462,5.37903226 40.1447236,5.37903226 C40.0257286,5.37903226 39.921206,5.33225806 39.8568844,5.29516129 C39.6188945,5.11774194 39.2876382,4.87741935 38.9113568,4.60645161 L38.9145729,4.60645161 C38.9033166,4.6 38.8936683,4.59193548 38.8840201,4.58548387 C38.6460302,4.41451613 38.3919598,4.23387097 38.1330653,4.0483871 C36.9704523,3.16290323 35.8094472,2.18548387 34.5149749,1.79193548 C34.0229146,1.64193548 33.5405025,1.64193548 33.0886432,1.73548387 C32.9535678,1.76129032 32.8522613,1.79032258 32.799196,1.80645161 C32.5354774,1.87741935 32.3151759,1.97419355 32.1254271,2.08064516 C31.5529648,2.37258065 31.2120603,2.86129032 30.7762814,3.09677419 L30.7087437,3.09677419 C30.2729648,2.86129032 29.9336683,2.37258065 29.359598,2.08064516 C29.1698492,1.97258065 28.9495477,1.87741935 28.6858291,1.80645161 C28.6327638,1.78870968 28.5314573,1.76129032 28.3963819,1.73548387 C27.9445226,1.64193548 27.4621106,1.64193548 26.9700503,1.79193548 C25.6755779,2.18548387 24.5161809,3.16290323 23.3519598,4.0483871 C23.0930653,4.23225806 22.8373869,4.41451613 22.601005,4.58548387 C22.5897487,4.59193548 22.5801005,4.6 22.5688442,4.60645161 L22.5720603,4.60645161 C22.1957789,4.87741935 21.8629146,5.11774194 21.6265327,5.29516129 C21.5622111,5.33225806 21.4576884,5.37903226 21.3386935,5.37903226 C21.2341709,5.37903226 21.1376884,5.34193548 21.0524623,5.27096774 C20.9672362,5.2 20.8868342,5.13225806 20.8096482,5.06935484 C20.598995,4.89354839 20.4333668,4.75645161 20.3336683,4.65967742 C20.2082412,4.53870968 20.121407,3.92096774 20.1133668,3.80483871 C20.1069347,3.72258065 19.9541709,2.02903226 19.9396985,1.86129032 L19.9364824,1.83387097 C19.9316583,1.78064516 19.8882412,1.74032258 19.8367839,1.74032258 C19.8062312,1.74032258 19.7788945,1.75483871 19.761206,1.77741935 C19.761206,1.77741935 19.7403015,1.80967742 19.7386935,1.82580645 C19.680804,1.98548387 19.5714573,2.48064516 19.4588945,3.09354839 C18.8542714,6.39677419 19.0472362,5.25322581 18.8542714,6.39677419 C18.8510553,6.41612903 18.8494472,6.43225806 18.8494472,6.44677419 C18.8494472,6.44677419 18.8510553,6.4483871 18.8510553,6.45 C18.8430151,6.52580645 18.9009045,6.58709677 18.9475377,6.60806452 C19.9638191,7.04677419 20.9833166,7.48064516 22.0044221,7.90967742 C22.0896482,7.94677419 22.1716583,7.98064516 22.2472362,8.01290323 C22.3453266,8.05483871 22.4691457,8.04516129 22.5768844,8.02741935 C22.9001005,7.96774194 23.2201005,7.88064516 23.5433166,7.82419355 C24.3682412,7.68064516 25.1738693,7.4016129 26.0229146,7.42419355 C26.6693467,7.44193548 27.3141709,7.40483871 27.9654271,7.38225806 C27.9654271,7.38225806 28.1407035,7.37258065 28.2194975,7.34032258 C29.0203015,7.0016129 29.8194975,6.65645161 30.6203015,6.31935484 C30.6444221,6.30967742 30.6717588,6.3016129 30.7023116,6.3016129 L30.7055276,6.3016129 C30.7360804,6.30322581 30.7634171,6.30967742 30.7875377,6.31935484 C31.5883417,6.65806452 32.3875377,7.00322581 33.1883417,7.34032258 C33.2671357,7.37258065 33.4424121,7.38225806 33.4424121,7.38225806 C34.0132663,7.40322581 34.5792965,7.43225806 35.1453266,7.42741935 C35.2482412,7.42741935 35.3527638,7.42580645 35.4556784,7.42419355 C35.4878392,7.42419355 35.52,7.42419355 35.5521608,7.42419355 C36.3384925,7.43870968 37.0251256,7.68870968 37.7953769,7.82419355 C38.118593,7.88064516 38.438593,7.96774194 38.761809,8.02741935 C38.8229146,8.03870968 38.8888442,8.04516129 38.9531658,8.04193548 C39.0255276,8.04516129 39.0994975,8.04032258 39.1622111,8.01290323 C40.2653266,7.5516129 41.4327638,7.08225806 42.5310553,6.60806452 C42.5792965,6.58709677 42.6355779,6.52741935 42.6275377,6.45 C42.6307538,6.4483871 42.6307538,6.44677419 42.6307538,6.44677419" id="Shape"></path>
            <path d="M106.341307,4.12903226 L106.341307,1.96935484 L106.891256,1.96935484 C107.127638,1.96935484 107.246633,2.09193548 107.246633,2.33709677 L107.246633,3.76129032 C107.246633,4.00645161 107.129246,4.12903226 106.891256,4.12903226 L106.341307,4.12903226 Z M104.233166,0.222580645 L104.233166,9.41612903 L106.339698,9.41612903 L106.339698,5.76129032 L106.855879,5.76129032 L107.553769,9.41451613 L109.546131,9.41451613 C109.523618,9.33870968 108.607035,5.85967742 108.423719,5.11774194 C108.690653,4.99516129 108.893266,4.81774194 109.02995,4.58387097 C109.168241,4.35 109.235779,4.12258065 109.235779,3.9 L109.235779,1.9 C109.235779,1.60967742 109.176281,1.35806452 109.058894,1.14677419 C108.939899,0.937096774 108.78392,0.762903226 108.589347,0.624193548 C108.394774,0.485483871 108.172864,0.383870968 107.925226,0.319354839 C107.677588,0.25483871 107.426734,0.220967742 107.175879,0.220967742 L104.233166,0.220967742 L104.233166,0.222580645 Z" id="Shape"></path>
            <path d="M111.477387,1.23225806 L112.08201,1.23225806 C112.149548,1.23225806 112.201005,1.25967742 112.239598,1.31612903 C112.276583,1.37258065 112.295879,1.43387097 112.295879,1.5016129 C112.295879,1.58548387 112.276583,1.65645161 112.23799,1.71451613 C112.197789,1.77258065 112.146332,1.8016129 112.08201,1.8016129 L111.477387,1.8016129 L111.477387,1.23225806 Z M111.477387,2.76129032 L111.477387,2.03709677 L111.847236,2.03709677 L112.24603,2.76129032 L112.548342,2.76129032 L112.120603,2.03225806 C112.255678,2.01290323 112.361809,1.95 112.442211,1.84516129 C112.521005,1.74032258 112.561206,1.62258065 112.561206,1.49354839 C112.561206,1.36451613 112.519397,1.24677419 112.437387,1.14032258 C112.353769,1.03387097 112.233166,0.980645161 112.07397,0.980645161 L111.205628,0.980645161 L111.205628,2.76129032 L111.477387,2.76129032 Z M110.562412,1.86451613 C110.562412,1.49677419 110.684623,1.18870968 110.927437,0.941935484 C111.170251,0.69516129 111.475779,0.570967742 111.842412,0.570967742 C112.209045,0.570967742 112.512965,0.693548387 112.754171,0.938709677 C112.995377,1.18387097 113.114372,1.49193548 113.114372,1.86290323 C113.114372,2.23387097 112.993769,2.54193548 112.754171,2.78870968 C112.512965,3.03548387 112.209045,3.15967742 111.842412,3.15967742 C111.475779,3.15967742 111.170251,3.03548387 110.927437,2.78870968 C110.684623,2.54354839 110.562412,2.23548387 110.562412,1.86451613 Z M113.36201,1.86451613 C113.36201,1.43225806 113.217286,1.06935484 112.926231,0.779032258 C112.635176,0.487096774 112.273367,0.340322581 111.842412,0.340322581 C111.411457,0.340322581 111.049648,0.485483871 110.758593,0.779032258 C110.467538,1.07096774 110.321206,1.43225806 110.321206,1.86451613 C110.321206,2.29677419 110.467538,2.65967742 110.758593,2.9516129 C111.049648,3.24354839 111.411457,3.38870968 111.842412,3.38870968 C112.273367,3.38870968 112.633568,3.24354839 112.926231,2.9516129 C113.217286,2.65967742 113.36201,2.29677419 113.36201,1.86451613 Z" id="Shape"></path>
            <polygon id="Shape" points="71.9324623 9.41451613 76.161608 9.41451613 76.161608 7.66774194 74.0824121 7.66774194 74.0824121 5.57741935 75.4605025 5.57741935 75.4605025 3.83064516 74.0824121 3.83064516 74.0824121 1.85322581 76.161608 1.85322581 76.161608 0.222580645 71.9324623 0.222580645"></polygon>
            <polygon id="Shape" points="97.3780905 9.41451613 101.607236 9.41451613 101.607236 7.66774194 99.5280402 7.66774194 99.5280402 5.57741935 100.906131 5.57741935 100.906131 3.83064516 99.5280402 3.83064516 99.5280402 1.85322581 101.607236 1.85322581 101.607236 0.222580645 97.3780905 0.222580645"></polygon>
            <path d="M93.8082412,0.624193548 C93.6136683,0.487096774 93.3917588,0.385483871 93.1441206,0.319354839 C92.8964824,0.25483871 92.6456281,0.222580645 92.3931658,0.222580645 L89.4729648,0.222580645 L89.4729648,9.41451613 L92.3931658,9.41451613 C92.6456281,9.41451613 92.8948744,9.38225806 93.1441206,9.31774194 C93.3917588,9.25322581 93.6136683,9.1516129 93.8082412,9.01290323 C94.0028141,8.87419355 94.158794,8.7 94.2777889,8.49032258 C94.3951759,8.27903226 94.4546734,8.02903226 94.4546734,7.73709677 L94.4546734,5.80645161 C94.4546734,5.58387097 94.3855276,5.38064516 94.2488442,5.19677419 C94.1121608,5.01290323 93.9047236,4.85967742 93.6313568,4.73709677 C93.9063317,4.61451613 94.1121608,4.45967742 94.2488442,4.27096774 C94.3871357,4.08387097 94.4546734,3.88225806 94.4546734,3.66774194 L94.4546734,1.9 C94.4546734,1.60967742 94.3951759,1.35806452 94.2777889,1.14677419 C94.158794,0.937096774 94.0028141,0.762903226 93.8082412,0.624193548 Z M92.4735678,7.31290323 C92.4735678,7.55806452 92.3513568,7.68064516 92.1069347,7.68064516 L91.5794975,7.68064516 L91.5794975,5.64677419 L92.1069347,5.64677419 C92.2211055,5.64677419 92.3111558,5.67419355 92.3754774,5.72741935 C92.439799,5.78064516 92.4735678,5.87258065 92.4735678,6.00322581 L92.4735678,7.31290323 Z M92.4735678,3.58870968 C92.4735678,3.82580645 92.3513568,3.94516129 92.1069347,3.94516129 L91.5794975,3.94516129 L91.5794975,1.96935484 L92.1069347,1.96935484 C92.3513568,1.96935484 92.4735678,2.09193548 92.4735678,2.33709677 L92.4735678,3.58870968 Z" id="Shape"></path>
            <polygon id="Shape" points="82.7513568 4.41612903 81.8460302 0.222580645 78.8695477 0.222580645 78.8695477 9.41451613 80.758995 9.41451613 80.758995 3.55483871 81.8926633 9.41451613 83.2209045 9.41451613 84.5491457 3.56612903 84.5491457 9.41451613 86.6572864 9.41451613 86.6572864 0.222580645 83.6341709 0.222580645"></polygon>
            <polygon id="Shape" points="50.7320603 4.41612903 49.8267337 0.222580645 46.8486432 0.222580645 46.8486432 9.41451613 48.7380905 9.41451613 48.7380905 3.55483871 49.8733668 9.41451613 51.201608 9.41451613 52.5298492 3.56612903 52.5298492 9.41451613 54.6363819 9.41451613 54.6363819 0.222580645 51.6132663 0.222580645"></polygon>
            <path d="M61.3724623,0.722580645 C61.1360804,0.527419355 60.8594975,0.366129032 60.5411055,0.240322581 C60.2227136,0.114516129 59.8737688,0.0516129032 59.4958794,0.0516129032 C59.1179899,0.0516129032 58.7690452,0.114516129 58.4458291,0.240322581 C58.1226131,0.366129032 57.8444221,0.527419355 57.6080402,0.722580645 C57.3716583,0.917741935 57.1867337,1.13548387 57.0532663,1.37741935 C56.919799,1.61935484 56.8522613,1.85483871 56.8522613,2.08387097 L56.8522613,7.55322581 C56.8522613,7.78225806 56.919799,8.01774194 57.0532663,8.25967742 C57.1867337,8.5016129 57.3716583,8.71935484 57.6080402,8.91451613 C57.8444221,9.10967742 58.1226131,9.27096774 58.4458291,9.39677419 C58.7674372,9.52258065 59.1179899,9.58548387 59.4958794,9.58548387 C59.8737688,9.58548387 60.2211055,9.52258065 60.5411055,9.39677419 C60.8594975,9.27096774 61.1360804,9.10967742 61.3724623,8.91451613 C61.6088442,8.71935484 61.7937688,8.5016129 61.9272362,8.25967742 C62.0607035,8.01774194 62.1282412,7.78225806 62.1282412,7.55322581 L62.1282412,2.08387097 C62.1282412,1.85483871 62.0607035,1.61774194 61.9272362,1.37741935 C61.7921608,1.13548387 61.6072362,0.917741935 61.3724623,0.722580645 Z M59.9316583,7.40322581 C59.9316583,7.52580645 59.8882412,7.62258065 59.801407,7.69193548 C59.7145729,7.76129032 59.6132663,7.79516129 59.4942714,7.79516129 C59.3688442,7.79516129 59.2627136,7.76129032 59.1758794,7.69193548 C59.0890452,7.62258065 59.0456281,7.52741935 59.0456281,7.40322581 L59.0456281,2.23387097 C59.0456281,2.11129032 59.0890452,2.01451613 59.1758794,1.94516129 C59.2627136,1.87580645 59.3688442,1.84193548 59.4942714,1.84193548 C59.6116583,1.84193548 59.7145729,1.87580645 59.801407,1.94516129 C59.8882412,2.01451613 59.9316583,2.10967742 59.9316583,2.23387097 L59.9316583,7.40322581 Z" id="Shape"></path>
            <polygon id="Shape" points="66.8992965 5.35806452 66.3396985 0.222580645 64.0498492 0.222580645 65.8379899 9.41451613 67.8641206 9.41451613 69.6522613 0.222580645 67.5425126 0.222580645"></polygon>
        </g>
    </g>
</svg>