<svg xmlns="http://www.w3.org/2000/svg" width="128" height="40" fill="#000" fill-rule="nonzero"><path d="M11.036 39.33H6.944c-.416 0-.605-.184-.605-.6V18.473c0-.368-.2-.553-.568-.553H.654c-.418 0-.606-.184-.606-.6v-3.06c0-.368.188-.552.606-.552h16.67c.378 0 .606.184.606.552v3.06c0 .405-.227.6-.606.6H12.2c-.378 0-.568.184-.568.553V38.74c0 .406-.228.6-.606.6m15-21.383c-.455 0-.605.22-.605.6v6.78c0 .22.076.6.643.6h1.97c1.93-.147 3.45-.958 3.45-3.98 0-2.948-1.933-3.98-3.713-3.98h-1.745v.002zM37.022 39.33h-4.47c-.2 0-.455-.184-.568-.444l-2.993-8.144a.83.83 0 0 0-.835-.589H26.1c-.605.037-.68.442-.68.663v7.923c0 .37-.2.6-.57.6h-4.13c-.38 0-.606-.22-.606-.6V14.27c0-.368.227-.552.606-.552h7.16c5.228 0 9.018 2.395 9.018 7.995 0 3.6-1.288 5.64-2.766 6.818-.114.1-.2.294-.227.48 0 .147 0 .294.077.442l3.485 8.992c.037.1.113.22.113.332-.002.368-.2.552-.57.552zM56.2 32.844c0 4.495-3.068 7.074-8.412 7.074s-8.486-2.58-8.486-7.074V14.27c0-.368.2-.552.57-.552h4.13c.416 0 .608.184.608.552v18.242c0 1.584.83 3.206 3.18 3.206 2.425 0 3.107-1.62 3.107-3.206V14.27c0-.368.188-.552.606-.552h4.13c.378 0 .568.184.568.552v18.574zM72.053 14.27v3.06c0 .405-.2.6-.608.6h-6.63c-.378 0-.57.182-.57.553v5.5c0 .37.34.516.532.516h5.68c.38 0 .57.184.57.6v3.058c0 .37-.188.553-.57.553h-5.643c-.378 0-.57.184-.57.552v5.306c0 .368.2.552.57.552h6.63c.418 0 .608.184.608.553v3.095c0 .406-.2.6-.608.6H59.55c-.418 0-.606-.184-.606-.6V14.27c0-.368.188-.552.606-.552h11.896c.416 0 .606.184.606.552m6.208 7.548c-.064-.13-.15-.173-.28-.173-.2 0-.322.108-.322.324v6.4c0 .237-.106.344-.322.344h-2.123c-.236 0-.344-.106-.344-.344V14.097a.28.28 0 0 1 .323-.323h2.164c.13 0 .236.063.3.213l3.366 6.495c.043.108.15.195.3.195a.28.28 0 0 0 .322-.323v-6.258a.28.28 0 0 1 .323-.323h2.12c.238 0 .344.106.344.323v14.302c0 .216-.13.323-.344.323h-1.994c-.127 0-.236-.065-.3-.216l-3.536-6.687zm12.742 7.245c-3.496 0-4.953-2.063-4.953-4.43V18c0-2.366 1.438-4.602 4.93-4.602s4.953 2.065 4.953 4.43v6.623c0 2.366-1.436 4.602-4.93 4.602zm-1.93-4.47c0 .968.45 2.02 1.93 2.02 1.438 0 1.9-1.076 1.9-2.065v-6.666c0-.966-.45-2.02-1.93-2.02-1.434 0-1.9 1.076-1.9 2.065v6.666zm18.04 4.127h-2.53c-.108 0-.26-.106-.322-.258l-1.695-4.755c-.064-.192-.212-.344-.47-.344h-1.158c-.344.02-.386.258-.386.387v4.624c0 .213-.108.344-.322.344H97.9c-.215 0-.344-.13-.344-.344v-14.28c0-.216.13-.323.344-.323h4.052c2.96 0 5.104 1.397 5.104 4.666 0 2.106-.728 3.3-1.565 3.98-.064.063-.108.17-.13.28a.57.57 0 0 0 .042.26l1.973 5.247c.023.065.064.13.064.195a.28.28 0 0 1-.322.321zm-6.218-12.474c-.257 0-.343.13-.343.344v3.958c0 .13.042.345.365.345h1.114c1.095-.087 1.952-.56 1.952-2.324 0-1.72-1.093-2.323-2.102-2.323h-.987zM113.55 28.72h-2.317c-.236 0-.343-.106-.343-.344v-11.83a.28.28 0 0 0-.322-.323h-2.894c-.236 0-.344-.108-.344-.345v-1.784c0-.216.108-.323.344-.323h9.434c.212 0 .343.106.343.323v1.784c0 .237-.13.345-.343.345h-2.894a.28.28 0 0 0-.323.323v11.83a.3.3 0 0 1-.341.344zm7.553 0h-2.338c-.236 0-.344-.13-.344-.344v-14.28c0-.216.108-.323.344-.323h2.338c.212 0 .322.106.322.323v5.634a.28.28 0 0 0 .322.324h2.915c.215 0 .323-.108.323-.324v-5.634a.28.28 0 0 1 .322-.323h2.336c.238 0 .344.106.344.323v14.28c0 .213-.106.344-.344.344h-2.336c-.215 0-.322-.13-.322-.344v-5.55a.28.28 0 0 0-.323-.323h-2.915a.28.28 0 0 0-.322.323v5.55c0 .213-.108.344-.322.344zM42.63 6.447c0-.015-.002-.03-.005-.05l-.603-3.303-.28-1.268c-.003-.016-.023-.048-.024-.048-.02-.023-.045-.037-.076-.037-.05 0-.095.042-.1.094l-.002.027-.174 1.944c-.008.118-.095.735-.22.855a7.37 7.37 0 0 1-.476.4l-.24.202a.43.43 0 0 1-.286.108.59.59 0 0 1-.288-.084l-.946-.7h.003c-.01-.006-.02-.015-.03-.02l-.75-.537c-1.163-.885-2.324-1.863-3.618-2.256-.492-.15-.974-.15-1.426-.056a2.8 2.8 0 0 0-.289.071c-.264.07-.484.168-.674.274-.572.292-.913.78-1.35 1.016h-.068c-.436-.235-.775-.724-1.35-1.016-.2-.108-.4-.203-.674-.274-.053-.018-.154-.045-.3-.07-.452-.094-.934-.094-1.426.056-1.294.394-2.454 1.37-3.618 2.256l-.75.537c-.01.006-.02.015-.032.02h.003l-.946.7c-.064.037-.17.084-.288.084a.44.44 0 0 1-.286-.108l-.25-.194-.476-.4c-.125-.12-.212-.74-.22-.855l-.177-1.97c-.005-.053-.048-.094-.1-.094a.1.1 0 0 0-.076.037s-.02.032-.023.048c-.058.16-.167.655-.28 1.268l-.605 3.303c-.003.02-.005.035-.005.05-.006.08.05.14.098.16l3.3 1.405c.098.042.222.032.33.015l.966-.203c.825-.144 1.63-.423 2.48-.4l1.943-.042s.175-.01.254-.042l2.4-1.02c.024-.01.05-.018.082-.018h.003a.26.26 0 0 1 .082.018l2.4 1.02a1.1 1.1 0 0 0 .254.042l1.703.045.3-.003h.096c.786.015 1.473.265 2.243.4l.966.203a.92.92 0 0 0 .19.015c.072.003.146-.002.2-.03l3.37-1.405c.048-.02.105-.08.096-.158m63.736-2.33V1.97h.55c.236 0 .355.123.355.368V3.76c0 .245-.117.368-.355.368h-.55zM104.233.223v9.194h2.107V5.76h.516l.698 3.653h1.992l-1.122-4.297a1.31 1.31 0 0 0 .606-.534c.136-.234.206-.46.206-.684v-2c0-.3-.06-.542-.177-.753s-.275-.384-.47-.523-.416-.24-.664-.305a2.97 2.97 0 0 0-.749-.098h-2.943 0zm7.244 1.01h.605c.068 0 .12.027.158.084a.33.33 0 0 1 .056.185.38.38 0 0 1-.058.213.18.18 0 0 1-.156.087h-.605v-.57zm0 1.53v-.724h.37l.4.724h.302l-.428-.73a.48.48 0 0 0 .322-.187c.082-.105.12-.223.12-.352s-.042-.247-.124-.353-.204-.16-.363-.16h-.868v1.78h.272zm-.915-.897c0-.368.122-.676.365-.923a1.23 1.23 0 0 1 .915-.371c.367 0 .67.123.912.368s.36.553.36.924-.12.68-.36.926-.545.37-.912.37a1.23 1.23 0 0 1-.915-.371 1.26 1.26 0 0 1-.365-.924zm2.8 0a1.47 1.47 0 0 0-.436-1.085 1.47 1.47 0 0 0-1.084-.439 1.46 1.46 0 0 0-1.084.44 1.48 1.48 0 0 0-.437 1.085 1.48 1.48 0 0 0 .437 1.087c.3.292.653.437 1.084.437a1.47 1.47 0 0 0 1.084-.437c.3-.292.436-.655.436-1.087z"/><path d="M71.932 9.415h4.23V7.668h-2.08v-2.1h1.378V3.83h-1.378V1.853h2.08V.223h-4.23zm25.446 0h4.23V7.668h-2.08v-2.1h1.378V3.83h-1.378V1.853h2.08V.223h-4.23zm-3.57-8.79a2.07 2.07 0 0 0-.664-.305 2.97 2.97 0 0 0-.751-.097h-2.92v9.192h2.92a2.98 2.98 0 0 0 .751-.097 2 2 0 0 0 .664-.305c.194-.14.35-.313.47-.523a1.49 1.49 0 0 0 .177-.753v-1.93a1 1 0 0 0-.206-.61c-.137-.184-.344-.337-.617-.46.275-.123.48-.277.617-.466a1.01 1.01 0 0 0 .206-.603V1.9c0-.3-.06-.542-.177-.753s-.275-.384-.47-.523zm-1.335 6.7a.32.32 0 0 1-.367.368h-.527V5.647h.527a.41.41 0 0 1 .269.081c.064.053.098.145.098.276v1.3zm0-3.724c0 .237-.122.356-.367.356h-.527V1.97h.527a.32.32 0 0 1 .367.368V3.6zm-9.723.826L81.846.223H78.87v9.192h1.9v-5.86l1.134 5.86h1.328l1.328-5.848v5.848h2.108V.223h-3.023zm-32.018 0L49.827.223H46.85v9.192h1.9v-5.86l1.135 5.86h1.328l1.328-5.848v5.848h2.107V.223h-3.023zM61.372.723a3.06 3.06 0 0 0-.831-.482c-.318-.126-.667-.2-1.045-.2a2.84 2.84 0 0 0-1.05.19 3.09 3.09 0 0 0-.838.482c-.238.195-.42.413-.555.655a1.46 1.46 0 0 0-.201.706v5.47a1.46 1.46 0 0 0 .201.706c.133.242.318.46.555.655a3.05 3.05 0 0 0 .838.482 2.86 2.86 0 0 0 1.05.189c.378 0 .725-.063 1.045-.2a3.06 3.06 0 0 0 .831-.482c.236-.195.42-.413.555-.655a1.46 1.46 0 0 0 .201-.706v-5.47c0-.23-.068-.466-.2-.706a2.3 2.3 0 0 0-.555-.655zm-1.44 6.68a.35.35 0 0 1-.13.289.47.47 0 0 1-.307.103c-.125 0-.232-.034-.318-.103a.35.35 0 0 1-.13-.29v-5.17a.35.35 0 0 1 .13-.289.49.49 0 0 1 .318-.103.48.48 0 0 1 .307.103c.087.07.13.165.13.3v5.17zM66.9 5.358L66.34.223h-2.3l1.788 9.192h2.026L69.652.223h-2.1z"/></svg>