<?xml version="1.0" encoding="UTF-8"?>
<svg width="228px" height="71px" viewBox="0 0 228 71" version="1.1" xmlns="http://www.w3.org/2000/svg" xmlns:xlink="http://www.w3.org/1999/xlink">
    <!-- Generator: Sketch 48.2 (47327) - http://www.bohemiancoding.com/sketch -->
    <title>TrueNTH_Logo_White</title>
    <desc>Created with Sketch.</desc>
    <defs></defs>
    <g id="Page-1" stroke="none" stroke-width="1" fill="none" fill-rule="evenodd">
        <g id="TrueNTH_Logo_White" fill="#FFFFFF" fill-rule="nonzero">
            <g id="Group" transform="translate(0.000000, 23.762097)">
                <g id="Shape" transform="translate(0.000000, 0.572581)">
                    <path d="M19.6578392,45.4743548 L12.3681407,45.4743548 C11.6262814,45.4743548 11.2911558,45.1479839 11.2911558,44.4265323 L11.2911558,8.45415323 C11.2911558,7.80141129 10.9531658,7.47217742 10.2800503,7.47217742 L1.16577889,7.47217742 C0.421055276,7.47217742 0.0859296482,7.14580645 0.0859296482,6.42721774 L0.0859296482,0.996290323 C0.0859296482,0.343548387 0.421055276,0.0171774194 1.16577889,0.0171774194 L30.8573367,0.0171774194 C31.5304523,0.0171774194 31.9371859,0.343548387 31.9371859,0.996290323 L31.9371859,6.42721774 C31.9371859,7.14580645 31.5333166,7.47217742 30.8573367,7.47217742 L21.748794,7.47217742 C21.0756784,7.47217742 20.7376884,7.79854839 20.7376884,8.45415323 L20.7376884,44.4265323 C20.7376884,45.1479839 20.3309548,45.4743548 19.6578392,45.4743548"></path>
                    <path d="M46.3762312,7.53802419 C45.5656281,7.53802419 45.2992462,7.93024194 45.2992462,8.58584677 L45.2992462,20.618629 C45.2992462,21.0108468 45.4338693,21.6635887 46.4449749,21.6635887 L49.9537688,21.6635887 C53.3938191,21.4030645 56.0977387,19.9630242 56.0977387,14.6008065 C56.0977387,9.36741935 52.6548241,7.53516129 49.4840201,7.53516129 L46.3762312,7.53516129 L46.3762312,7.53802419 Z M65.9452764,45.4743548 L57.9824623,45.4743548 C57.6444724,45.4743548 57.1718593,45.1479839 56.9713568,44.6870565 L51.6408543,30.2322581 C51.4374874,29.6453629 50.9648744,29.1872984 50.1542714,29.1872984 L46.5079899,29.1872984 C45.431005,29.2531452 45.2963819,29.9717339 45.2963819,30.3639516 L45.2963819,44.4265323 C45.2963819,45.0821371 44.9555276,45.4743548 44.2824121,45.4743548 L36.9268342,45.4743548 C36.2508543,45.4743548 35.8469849,45.0821371 35.8469849,44.4265323 L35.8469849,0.996290323 C35.8469849,0.343548387 36.2508543,0.0171774194 36.9268342,0.0171774194 L49.6816583,0.0171774194 C58.9935678,0.0171774194 65.7447739,4.26858871 65.7447739,14.2085887 C65.7447739,20.618629 63.4504523,24.2172984 60.8181407,26.3100806 C60.6147739,26.507621 60.4801508,26.831129 60.4142714,27.1603629 C60.4142714,27.4208871 60.4142714,27.6814113 60.5517588,27.9447984 L66.7587437,43.9054839 C66.8246231,44.1030242 66.9592462,44.2977016 66.9592462,44.4952419 C66.9563819,45.1479839 66.6212563,45.4743548 65.9452764,45.4743548 Z"></path>
                    <path d="M100.08799,33.962621 C100.08799,41.9415323 94.6228643,46.5193145 85.1047236,46.5193145 C75.5894472,46.5193145 69.9896985,41.9415323 69.9896985,33.962621 L69.9896985,0.996290323 C69.9896985,0.343548387 70.3276884,0.0171774194 71.0036683,0.0171774194 L78.3592462,0.0171774194 C79.1011055,0.0171774194 79.4419598,0.343548387 79.4419598,0.996290323 L79.4419598,33.3757258 C79.4419598,36.1870968 80.9228141,39.0671774 85.1075879,39.0671774 C89.4269849,39.0671774 90.6414573,36.1899597 90.6414573,33.3757258 L90.6414573,0.996290323 C90.6414573,0.343548387 90.9765829,0.0171774194 91.7213065,0.0171774194 L99.0797487,0.0171774194 C99.7528643,0.0171774194 100.090854,0.343548387 100.090854,0.996290323 L100.090854,33.962621 L100.08799,33.962621 Z"></path>
                    <path d="M128.344523,0.996290323 L128.344523,6.42721774 C128.344523,7.14580645 128.006533,7.47504032 127.261809,7.47504032 L115.452211,7.47504032 C114.779095,7.47504032 114.438241,7.79854839 114.438241,8.45701613 L114.438241,18.2023387 C114.438241,18.8579435 115.045477,19.1184677 115.386332,19.1184677 L125.50598,19.1184677 C126.184824,19.1184677 126.51995,19.4448387 126.51995,20.1634274 L126.51995,25.5914919 C126.51995,26.2470968 126.184824,26.5734677 125.50598,26.5734677 L115.455075,26.5734677 C114.78196,26.5734677 114.441106,26.8998387 114.441106,27.5525806 L114.441106,36.9715323 C114.441106,37.6242742 114.78196,37.9506452 115.455075,37.9506452 L127.264673,37.9506452 C128.009397,37.9506452 128.347387,38.2770161 128.347387,38.932621 L128.347387,44.4265323 C128.347387,45.1479839 128.009397,45.4743548 127.264673,45.4743548 L106.074422,45.4743548 C105.329698,45.4743548 104.994573,45.1479839 104.994573,44.4265323 L104.994573,0.996290323 C104.994573,0.343548387 105.329698,0.0171774194 106.074422,0.0171774194 L127.264673,0.0171774194 C128.006533,0.0171774194 128.344523,0.343548387 128.344523,0.996290323"></path>
                </g>
                <g id="Shape" transform="translate(133.190955, 0.000000)">
                    <path d="M6.20984925,14.9643952 C6.09527638,14.7353629 5.94346734,14.6580645 5.71145729,14.6580645 C5.37060302,14.6580645 5.13859296,14.849879 5.13859296,15.2335081 L5.13859296,26.6106855 C5.13859296,27.0315323 4.94954774,27.2204839 4.56572864,27.2204839 L0.784824121,27.2204839 C0.363768844,27.2204839 0.171859296,27.0315323 0.171859296,26.6106855 L0.171859296,1.25967742 C0.171859296,0.876048387 0.363768844,0.687096774 0.74758794,0.687096774 L4.60296482,0.687096774 C4.83211055,0.687096774 5.0240201,0.79875 5.13859296,1.065 L11.1336181,12.5939113 C11.2109548,12.7857258 11.4,12.9403226 11.6692462,12.9403226 C12.0530653,12.9403226 12.2421106,12.7485081 12.2421106,12.3677419 L12.2421106,1.25967742 C12.2421106,0.876048387 12.4340201,0.687096774 12.8178392,0.687096774 L16.5958794,0.687096774 C17.019799,0.687096774 17.2088442,0.876048387 17.2088442,1.25967742 L17.2088442,26.6450403 C17.2088442,27.0286694 16.9796985,27.217621 16.5958794,27.217621 L13.0441206,27.217621 C12.8178392,27.217621 12.6230653,27.1031048 12.5084925,26.8339919 L6.20984925,14.9643952 Z"></path>
                    <path d="M28.9067337,27.8245565 C22.6796985,27.8245565 20.0846231,24.1629032 20.0846231,19.9630242 L20.0846231,8.20508065 C20.0846231,4.00520161 22.6453266,0.0372177419 28.8666332,0.0372177419 C35.0936683,0.0372177419 37.6887437,3.70173387 37.6887437,7.9016129 L37.6887437,19.6566935 C37.6887437,23.8565726 35.1309045,27.8245565 28.9067337,27.8245565 Z M25.4666834,19.8885887 C25.4666834,21.6063306 26.2686935,23.4758065 28.9067337,23.4758065 C31.4674372,23.4758065 32.3066834,21.56625 32.3066834,19.8112903 L32.3066834,7.97891129 C32.3066834,6.26403226 31.5046734,4.39169355 28.8666332,4.39169355 C26.3116583,4.39169355 25.4666834,6.30125 25.4666834,8.05620968 L25.4666834,19.8885887 Z"></path>
                    <path d="M57.6015075,27.217621 L53.0959296,27.217621 C52.9040201,27.217621 52.6347739,27.0286694 52.5230653,26.7595565 L49.5040704,18.3197177 C49.3894975,17.9790323 49.1259799,17.7099194 48.6648241,17.7099194 L46.6025126,17.7099194 C45.9895477,17.7471371 45.9150754,18.1679839 45.9150754,18.3970161 L45.9150754,26.6049597 C45.9150754,26.9828629 45.7231658,27.2147581 45.3422111,27.2147581 L41.1774874,27.2147581 C40.7936683,27.2147581 40.5645226,26.9857258 40.5645226,26.6049597 L40.5645226,1.25967742 C40.5645226,0.876048387 40.7936683,0.687096774 41.1774874,0.687096774 L48.3955779,0.687096774 C53.6659296,0.687096774 57.4869347,3.16637097 57.4869347,8.96947581 C57.4869347,12.7084274 56.189397,14.8097984 54.6999497,16.0322581 C54.5853769,16.1439113 54.5080402,16.3357258 54.470804,16.5275403 C54.470804,16.6792742 54.470804,16.833871 54.5452764,16.9884677 L58.059799,26.3014919 C58.0998995,26.4160081 58.1743719,26.5305242 58.1743719,26.6479032 C58.1743719,27.0258065 57.9853266,27.217621 57.6015075,27.217621 Z M46.5251759,5.07592742 C46.0668844,5.07592742 45.9150754,5.30495968 45.9150754,5.68572581 L45.9150754,12.7112903 C45.9150754,12.9403226 45.9895477,13.3239516 46.5652764,13.3239516 L48.5502513,13.3239516 C50.5008543,13.1693548 52.0275377,12.3305242 52.0275377,9.19850806 C52.0275377,6.14665323 50.079799,5.07592742 48.2838693,5.07592742 L46.5251759,5.07592742 Z"></path>
                    <path d="M69.0673869,27.217621 L64.9398995,27.217621 C64.5188442,27.217621 64.329799,27.0286694 64.329799,26.6078226 L64.329799,5.61129032 C64.329799,5.22766129 64.1407538,5.03870968 63.7569347,5.03870968 L58.6011558,5.03870968 C58.1801005,5.03870968 57.988191,4.84689516 57.988191,4.42604839 L57.988191,1.25967742 C57.988191,0.876048387 58.1801005,0.687096774 58.6011558,0.687096774 L75.4061307,0.687096774 C75.7842211,0.687096774 76.0162312,0.876048387 76.0162312,1.25967742 L76.0162312,4.42604839 C76.0162312,4.84689516 75.7870854,5.03870968 75.4061307,5.03870968 L70.2503518,5.03870968 C69.8665327,5.03870968 69.6746231,5.22766129 69.6746231,5.61129032 L69.6746231,26.6078226 C69.6774874,27.0258065 69.451206,27.217621 69.0673869,27.217621 Z"></path>
                    <path d="M82.5239698,27.217621 L78.3592462,27.217621 C77.938191,27.217621 77.7462814,26.9885887 77.7462814,26.6078226 L77.7462814,1.25967742 C77.7462814,0.876048387 77.938191,0.687096774 78.3592462,0.687096774 L82.5239698,0.687096774 C82.9020603,0.687096774 83.0968342,0.876048387 83.0968342,1.25967742 L83.0968342,11.2597984 C83.0968342,11.6434274 83.2858794,11.8352419 83.6696985,11.8352419 L88.8627136,11.8352419 C89.2465327,11.8352419 89.4384422,11.6434274 89.4384422,11.2597984 L89.4384422,1.25967742 C89.4384422,0.876048387 89.6274874,0.687096774 90.0113065,0.687096774 L94.1731658,0.687096774 C94.5970854,0.687096774 94.7861307,0.876048387 94.7861307,1.25967742 L94.7861307,26.6078226 C94.7861307,26.9857258 94.5970854,27.217621 94.1731658,27.217621 L90.0113065,27.217621 C89.6274874,27.217621 89.4384422,26.9885887 89.4384422,26.6078226 L89.4384422,16.7565726 C89.4384422,16.3729435 89.2465327,16.1839919 88.8627136,16.1839919 L83.6696985,16.1839919 C83.2858794,16.1839919 83.0968342,16.3729435 83.0968342,16.7565726 L83.0968342,26.6078226 C83.0968342,26.9857258 82.9049246,27.217621 82.5239698,27.217621 Z"></path>
                </g>
            </g>
            <path d="M75.9360302,11.4430242 C75.9360302,11.4172581 75.9331658,11.388629 75.9274372,11.3542742 C75.5865829,9.3216129 75.9274372,11.3542742 74.8533166,5.49104839 C74.6528141,4.40314516 74.4580402,3.52137097 74.3549246,3.24080645 C74.349196,3.21217742 74.3148241,3.15491935 74.3119598,3.15491935 C74.2775879,3.11483871 74.2317588,3.08907258 74.1773367,3.08907258 C74.0856784,3.08907258 74.0083417,3.16350806 73.9997487,3.25512097 L73.9968844,3.30379032 C73.9711055,3.60153226 73.6961307,6.60471774 73.6875377,6.75358871 C73.6732161,6.96258065 73.5185427,8.05907258 73.2951256,8.27092742 C73.1175377,8.43983871 72.8225126,8.68604839 72.4472864,8.99810484 C72.3126633,9.10975806 72.1665829,9.23 72.0176382,9.35596774 C71.8658291,9.48479839 71.6939698,9.54778226 71.5077889,9.54778226 C71.2958291,9.54778226 71.1096482,9.46475806 70.9950754,9.39891129 C70.5711558,9.08399194 69.9811055,8.65741935 69.3108543,8.17645161 L69.3165829,8.17645161 C69.2965327,8.165 69.2793467,8.15068548 69.2621608,8.13923387 C68.8382412,7.83576613 68.3856784,7.51512097 67.9245226,7.1858871 C65.8536181,5.61415323 63.7855779,3.87923387 61.479799,3.18068548 C60.6033166,2.91443548 59.7440201,2.91443548 58.9391457,3.08048387 C58.6985427,3.12629032 58.5180905,3.17782258 58.4235678,3.20645161 C57.9538191,3.33241935 57.561407,3.50419355 57.2234171,3.69314516 C56.2037186,4.21133065 55.5964824,5.07879032 54.8202513,5.49677419 L54.6999497,5.49677419 C53.9237186,5.07879032 53.3193467,4.21133065 52.2967839,3.69314516 C51.958794,3.50133065 51.5663819,3.33241935 51.0966332,3.20645161 C51.0021106,3.17495968 50.8216583,3.12629032 50.5810553,3.08048387 C49.7761809,2.91443548 48.9168844,2.91443548 48.040402,3.18068548 C45.7346231,3.87923387 43.6694472,5.61415323 41.5956784,7.1858871 C41.1345226,7.51225806 40.6790955,7.83576613 40.2580402,8.13923387 C40.2379899,8.15068548 40.220804,8.165 40.2007538,8.17645161 L40.2064824,8.17645161 C39.5362312,8.65741935 38.9433166,9.08399194 38.5222613,9.39891129 C38.4076884,9.46475806 38.2215075,9.54778226 38.0095477,9.54778226 C37.8233668,9.54778226 37.6515075,9.48193548 37.4996985,9.35596774 C37.3478894,9.23 37.2046734,9.10975806 37.0671859,8.99810484 C36.6919598,8.68604839 36.3969347,8.44270161 36.2193467,8.27092742 C35.9959296,8.05620968 35.8412563,6.95971774 35.8269347,6.75358871 C35.8154774,6.60758065 35.5433668,3.60153226 35.5175879,3.30379032 L35.5118593,3.25512097 C35.5032663,3.16064516 35.4259296,3.08907258 35.3342714,3.08907258 C35.2798492,3.08907258 35.2311558,3.11483871 35.1996482,3.15491935 C35.1996482,3.15491935 35.1624121,3.21217742 35.1595477,3.24080645 C35.0564322,3.52423387 34.8616583,4.40314516 34.6611558,5.49104839 C33.5841709,11.3542742 33.9278894,9.32447581 33.5841709,11.3542742 C33.5784422,11.388629 33.5755779,11.4172581 33.5755779,11.4430242 C33.5755779,11.4430242 33.5784422,11.4458871 33.5784422,11.44875 C33.5641206,11.5833065 33.6672362,11.6920968 33.7503015,11.7293145 C35.5605528,12.5080242 37.3765327,13.2781452 39.1953769,14.0396774 C39.3471859,14.1055242 39.4932663,14.1656452 39.6278894,14.2229032 C39.8026131,14.2973387 40.0231658,14.2801613 40.2150754,14.2486694 C40.790804,14.1427419 41.360804,13.9881452 41.9365327,13.8879435 C43.4059296,13.6331452 44.8409548,13.1378629 46.3533166,13.1779435 C47.5047739,13.2094355 48.6533668,13.1435887 49.8134171,13.1035081 C49.8134171,13.1035081 50.1256281,13.0863306 50.2659799,13.0290726 C51.6924121,12.4278629 53.1159799,11.8152016 54.5424121,11.2168548 C54.5853769,11.1996774 54.6340704,11.1853629 54.6884925,11.1853629 L54.6942211,11.1853629 C54.7486432,11.1882258 54.7973367,11.1996774 54.8403015,11.2168548 C56.2667337,11.8180645 57.6903015,12.4307258 59.1167337,13.0290726 C59.2570854,13.0863306 59.5692965,13.1035081 59.5692965,13.1035081 C60.5861307,13.1407258 61.5943719,13.1922581 62.6026131,13.1836694 C62.7859296,13.1836694 62.9721106,13.1808065 63.1554271,13.1779435 C63.2127136,13.1779435 63.27,13.1779435 63.3272864,13.1779435 C64.7279397,13.2037097 65.951005,13.6474597 67.3230151,13.8879435 C67.8987437,13.9881452 68.4687437,14.1427419 69.0444724,14.2486694 C69.1533166,14.2687097 69.2707538,14.2801613 69.3853266,14.2744355 C69.5142211,14.2801613 69.6459799,14.2715726 69.7576884,14.2229032 C71.7226131,13.4041129 73.8021106,12.5710081 75.7584422,11.7293145 C75.8443719,11.6920968 75.9446231,11.5861694 75.9303015,11.44875 C75.9360302,11.4458871 75.9360302,11.4430242 75.9360302,11.4430242" id="Shape"></path>
            <path d="M189.420452,7.32903226 L189.420452,3.49560484 L190.40005,3.49560484 C190.821106,3.49560484 191.033065,3.71318548 191.033065,4.14834677 L191.033065,6.67629032 C191.033065,7.11145161 190.82397,7.32903226 190.40005,7.32903226 L189.420452,7.32903226 Z M185.665327,0.395080645 L185.665327,16.713629 L189.417588,16.713629 L189.417588,10.2262903 L190.337035,10.2262903 L191.580151,16.7107661 L195.129045,16.7107661 C195.088945,16.5762097 193.456281,10.4009274 193.129749,9.08399194 C193.605226,8.86641129 193.966131,8.55149194 194.209598,8.13637097 C194.45593,7.72125 194.576231,7.31758065 194.576231,6.9225 L194.576231,3.3725 C194.576231,2.85717742 194.470251,2.41056452 194.261156,2.03552419 C194.049196,1.66334677 193.771357,1.35415323 193.424774,1.10794355 C193.078191,0.861733871 192.682915,0.681370968 192.241809,0.566854839 C191.800704,0.45233871 191.353869,0.392217742 190.907035,0.392217742 L185.665327,0.392217742 L185.665327,0.395080645 Z" id="Shape"></path>
            <path d="M198.569095,2.18725806 L199.64608,2.18725806 C199.766382,2.18725806 199.85804,2.23592742 199.926784,2.33612903 C199.992663,2.43633065 200.027035,2.54512097 200.027035,2.6653629 C200.027035,2.81423387 199.992663,2.94020161 199.92392,3.04326613 C199.852312,3.14633065 199.760653,3.1978629 199.64608,3.1978629 L198.569095,3.1978629 L198.569095,2.18725806 Z M198.569095,4.90129032 L198.569095,3.61584677 L199.227889,3.61584677 L199.938241,4.90129032 L200.476734,4.90129032 L199.714824,3.60725806 C199.955427,3.57290323 200.144472,3.46125 200.287688,3.27516129 C200.42804,3.08907258 200.499648,2.88008065 200.499648,2.65104839 C200.499648,2.42201613 200.425176,2.21302419 200.279095,2.02407258 C200.130151,1.83512097 199.915327,1.74064516 199.631759,1.74064516 L198.085025,1.74064516 L198.085025,4.90129032 L198.569095,4.90129032 Z M196.939296,3.30951613 C196.939296,2.65677419 197.156985,2.10995968 197.589497,1.67193548 C198.02201,1.23391129 198.566231,1.01346774 199.219296,1.01346774 C199.872362,1.01346774 200.413719,1.23104839 200.843367,1.66620968 C201.273015,2.10137097 201.484975,2.64818548 201.484975,3.30665323 C201.484975,3.96512097 201.270151,4.51193548 200.843367,4.94995968 C200.413719,5.38798387 199.872362,5.60842742 199.219296,5.60842742 C198.566231,5.60842742 198.02201,5.38798387 197.589497,4.94995968 C197.156985,4.51479839 196.939296,3.96798387 196.939296,3.30951613 Z M201.92608,3.30951613 C201.92608,2.54225806 201.668291,1.89810484 201.149849,1.38278226 C200.631407,0.864596774 199.986935,0.604072581 199.219296,0.604072581 C198.451658,0.604072581 197.807186,0.861733871 197.288744,1.38278226 C196.770302,1.90096774 196.509648,2.54225806 196.509648,3.30951613 C196.509648,4.07677419 196.770302,4.72092742 197.288744,5.2391129 C197.807186,5.75729839 198.451658,6.01495968 199.219296,6.01495968 C199.986935,6.01495968 200.628543,5.75729839 201.149849,5.2391129 C201.668291,4.72092742 201.92608,4.07677419 201.92608,3.30951613 Z" id="Shape"></path>
            <polygon id="Shape" points="128.129698 16.7107661 135.662864 16.7107661 135.662864 13.6102419 131.959296 13.6102419 131.959296 9.89991935 134.41402 9.89991935 134.41402 6.79939516 131.959296 6.79939516 131.959296 3.28947581 135.662864 3.28947581 135.662864 0.395080645 128.129698 0.395080645"></polygon>
            <polygon id="Shape" points="173.454724 16.7107661 180.987889 16.7107661 180.987889 13.6102419 177.284322 13.6102419 177.284322 9.89991935 179.739045 9.89991935 179.739045 6.79939516 177.284322 6.79939516 177.284322 3.28947581 180.987889 3.28947581 180.987889 0.395080645 173.454724 0.395080645"></polygon>
            <path d="M167.09593,1.10794355 C166.749347,0.864596774 166.35407,0.684233871 165.912965,0.566854839 C165.471859,0.45233871 165.025025,0.395080645 164.575327,0.395080645 L159.373719,0.395080645 L159.373719,16.7107661 L164.575327,16.7107661 C165.025025,16.7107661 165.468995,16.6535081 165.912965,16.5389919 C166.35407,16.4244758 166.749347,16.2441129 167.09593,15.9979032 C167.442513,15.7516935 167.720352,15.4425 167.932312,15.0703226 C168.141407,14.6952823 168.247387,14.2515323 168.247387,13.7333468 L168.247387,10.3064516 C168.247387,9.91137097 168.124221,9.55064516 167.880754,9.22427419 C167.637286,8.89790323 167.267789,8.62592742 166.780854,8.40834677 C167.270653,8.19076613 167.637286,7.91592742 167.880754,7.58096774 C168.127085,7.24887097 168.247387,6.89100806 168.247387,6.51024194 L168.247387,3.3725 C168.247387,2.85717742 168.141407,2.41056452 167.932312,2.03552419 C167.720352,1.66334677 167.442513,1.35415323 167.09593,1.10794355 Z M164.718543,12.9804032 C164.718543,13.4155645 164.500854,13.6331452 164.065477,13.6331452 L163.12598,13.6331452 L163.12598,10.0230242 L164.065477,10.0230242 C164.268844,10.0230242 164.429246,10.0716935 164.543819,10.1661694 C164.658392,10.2606452 164.718543,10.4238306 164.718543,10.6557258 L164.718543,12.9804032 Z M164.718543,6.36995968 C164.718543,6.79080645 164.500854,7.00266129 164.065477,7.00266129 L163.12598,7.00266129 L163.12598,3.49560484 L164.065477,3.49560484 C164.500854,3.49560484 164.718543,3.71318548 164.718543,4.14834677 L164.718543,6.36995968 Z" id="Shape"></path>
            <polygon id="Shape" points="147.400854 7.83862903 145.788241 0.395080645 140.486382 0.395080645 140.486382 16.7107661 143.85196 16.7107661 143.85196 6.30983871 145.871307 16.7107661 148.237236 16.7107661 150.603166 6.32987903 150.603166 16.7107661 154.358291 16.7107661 154.358291 0.395080645 148.973367 0.395080645"></polygon>
            <polygon id="Shape" points="90.3664824 7.83862903 88.7538693 0.395080645 83.4491457 0.395080645 83.4491457 16.7107661 86.8147236 16.7107661 86.8147236 6.30983871 88.8369347 16.7107661 91.2028643 16.7107661 93.568794 6.32987903 93.568794 16.7107661 97.3210553 16.7107661 97.3210553 0.395080645 91.9361307 0.395080645"></polygon>
            <path d="M109.319698,1.28258065 C108.898643,0.936169355 108.40598,0.649879032 107.838844,0.426572581 C107.271709,0.203266129 106.650151,0.0916129032 105.977035,0.0916129032 C105.30392,0.0916129032 104.682362,0.203266129 104.106633,0.426572581 C103.530905,0.649879032 103.035377,0.936169355 102.614322,1.28258065 C102.193266,1.62899194 101.863869,2.01548387 101.626131,2.44491935 C101.388392,2.87435484 101.26809,3.29233871 101.26809,3.69887097 L101.26809,13.4069758 C101.26809,13.8135081 101.388392,14.2314919 101.626131,14.6609274 C101.863869,15.0903629 102.193266,15.4768548 102.614322,15.8232661 C103.035377,16.1696774 103.530905,16.4559677 104.106633,16.6792742 C104.679497,16.9025806 105.30392,17.0142339 105.977035,17.0142339 C106.650151,17.0142339 107.268844,16.9025806 107.838844,16.6792742 C108.40598,16.4559677 108.898643,16.1696774 109.319698,15.8232661 C109.740754,15.4768548 110.070151,15.0903629 110.307889,14.6609274 C110.545628,14.2314919 110.66593,13.8135081 110.66593,13.4069758 L110.66593,3.69887097 C110.66593,3.29233871 110.545628,2.87149194 110.307889,2.44491935 C110.067286,2.01548387 109.737889,1.62899194 109.319698,1.28258065 Z M106.753266,13.1407258 C106.753266,13.3583065 106.67593,13.5300806 106.521256,13.6531855 C106.366583,13.7762903 106.186131,13.8364113 105.974171,13.8364113 C105.750754,13.8364113 105.561709,13.7762903 105.407035,13.6531855 C105.252362,13.5300806 105.175025,13.3611694 105.175025,13.1407258 L105.175025,3.96512097 C105.175025,3.74754032 105.252362,3.57576613 105.407035,3.45266129 C105.561709,3.32955645 105.750754,3.26943548 105.974171,3.26943548 C106.183266,3.26943548 106.366583,3.32955645 106.521256,3.45266129 C106.67593,3.57576613 106.753266,3.74467742 106.753266,3.96512097 L106.753266,13.1407258 Z" id="Shape"></path>
            <polygon id="Shape" points="119.164372 9.51056452 118.167588 0.395080645 114.088794 0.395080645 117.27392 16.7107661 120.882965 16.7107661 124.06809 0.395080645 120.310101 0.395080645"></polygon>
        </g>
    </g>
</svg>