<?xml version="1.0" encoding="UTF-8"?>
<svg width="142px" height="44px" viewBox="0 0 142 44" version="1.1" xmlns="http://www.w3.org/2000/svg" xmlns:xlink="http://www.w3.org/1999/xlink">
    <!-- Generator: Sketch 48.2 (47327) - http://www.bohemiancoding.com/sketch -->
    <title>TrueNTH_Logo_White</title>
    <desc>Created with Sketch.</desc>
    <defs></defs>
    <g id="Page-1" stroke="none" stroke-width="1" fill="none" fill-rule="evenodd">
        <g id="TrueNTH_Logo_White" fill="#FFFFFF" fill-rule="nonzero">
            <g id="Group" transform="translate(0.000000, 14.725806)">
                <g id="Shape" transform="translate(0.000000, 0.354839)">
                    <path d="M12.2430402,28.1812903 L7.70296482,28.1812903 C7.24092965,28.1812903 7.03221106,27.9790323 7.03221106,27.5319355 L7.03221106,5.23919355 C7.03221106,4.83467742 6.82170854,4.63064516 6.40248744,4.63064516 L0.726055276,4.63064516 C0.262236181,4.63064516 0.0535175879,4.4283871 0.0535175879,3.98306452 L0.0535175879,0.617419355 C0.0535175879,0.212903226 0.262236181,0.0106451613 0.726055276,0.0106451613 L19.2181658,0.0106451613 C19.6373869,0.0106451613 19.8907035,0.212903226 19.8907035,0.617419355 L19.8907035,3.98306452 C19.8907035,4.4283871 19.6391709,4.63064516 19.2181658,4.63064516 L13.5453015,4.63064516 C13.1260804,4.63064516 12.9155779,4.83290323 12.9155779,5.23919355 L12.9155779,27.5319355 C12.9155779,27.9790323 12.6622613,28.1812903 12.2430402,28.1812903"></path>
                    <path d="M28.8834422,4.67145161 C28.378593,4.67145161 28.2126884,4.91451613 28.2126884,5.32080645 L28.2126884,12.7777419 C28.2126884,13.0208065 28.2965327,13.4253226 28.9262563,13.4253226 L31.1115578,13.4253226 C33.2540452,13.263871 34.9380653,12.3714516 34.9380653,9.0483871 C34.9380653,5.80516129 32.793794,4.66967742 30.818995,4.66967742 L28.8834422,4.66967742 L28.8834422,4.67145161 Z M41.0711809,28.1812903 L36.1118844,28.1812903 C35.9013819,28.1812903 35.6070352,27.9790323 35.4821608,27.6933871 L32.1622864,18.7354839 C32.0356281,18.3717742 31.7412814,18.0879032 31.2364322,18.0879032 L28.9655025,18.0879032 C28.2947487,18.1287097 28.2109045,18.5740323 28.2109045,18.8170968 L28.2109045,27.5319355 C28.2109045,27.9382258 27.9986181,28.1812903 27.579397,28.1812903 L22.9982915,28.1812903 C22.5772864,28.1812903 22.3257538,27.9382258 22.3257538,27.5319355 L22.3257538,0.617419355 C22.3257538,0.212903226 22.5772864,0.0106451613 22.9982915,0.0106451613 L30.9420854,0.0106451613 C36.741608,0.0106451613 40.9463065,2.64532258 40.9463065,8.80532258 C40.9463065,12.7777419 39.5173869,15.0079032 37.8779648,16.3048387 C37.7513065,16.4272581 37.6674623,16.6277419 37.6264322,16.8317742 C37.6264322,16.9932258 37.6264322,17.1546774 37.7120603,17.3179032 L41.5778141,27.2090323 C41.6188442,27.3314516 41.7026884,27.4520968 41.7026884,27.5745161 C41.7009045,27.9790323 41.4921859,28.1812903 41.0711809,28.1812903 Z"></path>
                    <path d="M62.3355025,21.0472581 C62.3355025,25.9919355 58.9317839,28.828871 53.0038191,28.828871 C47.0776382,28.828871 43.5900754,25.9919355 43.5900754,21.0472581 L43.5900754,0.617419355 C43.5900754,0.212903226 43.8005779,0.0106451613 44.2215829,0.0106451613 L48.8026884,0.0106451613 C49.2647236,0.0106451613 49.4770101,0.212903226 49.4770101,0.617419355 L49.4770101,20.6835484 C49.4770101,22.4258065 50.3992965,24.2106452 53.005603,24.2106452 C55.6957538,24.2106452 56.4521357,22.4275806 56.4521357,20.6835484 L56.4521357,0.617419355 C56.4521357,0.212903226 56.6608543,0.0106451613 57.1246734,0.0106451613 L61.7075628,0.0106451613 C62.1267839,0.0106451613 62.3372864,0.212903226 62.3372864,0.617419355 L62.3372864,21.0472581 L62.3355025,21.0472581 Z"></path>
                    <path d="M79.9338693,0.617419355 L79.9338693,3.98306452 C79.9338693,4.4283871 79.7233668,4.63241935 79.2595477,4.63241935 L71.9044472,4.63241935 C71.4852261,4.63241935 71.2729397,4.83290323 71.2729397,5.24096774 L71.2729397,11.2803226 C71.2729397,11.6866129 71.6511307,11.8480645 71.8634171,11.8480645 L78.166005,11.8480645 C78.588794,11.8480645 78.7975126,12.0503226 78.7975126,12.4956452 L78.7975126,15.8595161 C78.7975126,16.2658065 78.588794,16.4680645 78.166005,16.4680645 L71.9062312,16.4680645 C71.4870101,16.4680645 71.2747236,16.6703226 71.2747236,17.0748387 L71.2747236,22.9119355 C71.2747236,23.3164516 71.4870101,23.5187097 71.9062312,23.5187097 L79.2613317,23.5187097 C79.7251508,23.5187097 79.9356533,23.7209677 79.9356533,24.1272581 L79.9356533,27.5319355 C79.9356533,27.9790323 79.7251508,28.1812903 79.2613317,28.1812903 L66.0638945,28.1812903 C65.6000754,28.1812903 65.3913568,27.9790323 65.3913568,27.5319355 L65.3913568,0.617419355 C65.3913568,0.212903226 65.6000754,0.0106451613 66.0638945,0.0106451613 L79.2613317,0.0106451613 C79.7233668,0.0106451613 79.9338693,0.212903226 79.9338693,0.617419355"></path>
                </g>
                <g id="Shape" transform="translate(82.952261, 0.000000)">
                    <path d="M3.86753769,9.27370968 C3.7961809,9.13177419 3.70163317,9.08387097 3.55713568,9.08387097 C3.34484925,9.08387097 3.20035176,9.20274194 3.20035176,9.44048387 L3.20035176,16.491129 C3.20035176,16.7519355 3.08261307,16.8690323 2.84356784,16.8690323 L0.48879397,16.8690323 C0.226557789,16.8690323 0.107035176,16.7519355 0.107035176,16.491129 L0.107035176,0.780645161 C0.107035176,0.542903226 0.226557789,0.425806452 0.465603015,0.425806452 L2.86675879,0.425806452 C3.00947236,0.425806452 3.12899497,0.495 3.20035176,0.66 L6.93409548,7.80467742 C6.98226131,7.92354839 7.1,8.01935484 7.26768844,8.01935484 C7.50673367,8.01935484 7.62447236,7.90048387 7.62447236,7.66451613 L7.62447236,0.780645161 C7.62447236,0.542903226 7.74399497,0.425806452 7.9830402,0.425806452 L10.3360302,0.425806452 C10.6000503,0.425806452 10.7177889,0.542903226 10.7177889,0.780645161 L10.7177889,16.5124194 C10.7177889,16.7501613 10.5750754,16.8672581 10.3360302,16.8672581 L8.12396985,16.8672581 C7.9830402,16.8672581 7.86173367,16.7962903 7.79037688,16.6295161 L3.86753769,9.27370968 Z"></path>
                    <path d="M18.0033166,17.2433871 C14.1250754,17.2433871 12.5088442,14.9741935 12.5088442,12.3714516 L12.5088442,5.08483871 C12.5088442,2.48209677 14.1036683,0.0230645161 17.9783417,0.0230645161 C21.8565829,0.0230645161 23.4728141,2.29403226 23.4728141,4.89677419 L23.4728141,12.1816129 C23.4728141,14.7843548 21.8797739,17.2433871 18.0033166,17.2433871 Z M15.8608291,12.3253226 C15.8608291,13.3898387 16.3603266,14.5483871 18.0033166,14.5483871 C19.5981407,14.5483871 20.1208291,13.365 20.1208291,12.2774194 L20.1208291,4.94467742 C20.1208291,3.88193548 19.6213317,2.7216129 17.9783417,2.7216129 C16.3870854,2.7216129 15.8608291,3.905 15.8608291,4.99258065 L15.8608291,12.3253226 Z"></path>
                    <path d="M35.8746231,16.8672581 L33.0685176,16.8672581 C32.948995,16.8672581 32.7813065,16.7501613 32.7117337,16.5833871 L30.8314824,11.3530645 C30.7601256,11.1419355 30.596005,10.9751613 30.308794,10.9751613 L29.0243719,10.9751613 C28.6426131,10.9982258 28.5962312,11.2590323 28.5962312,11.4009677 L28.5962312,16.4875806 C28.5962312,16.7217742 28.4767085,16.8654839 28.2394472,16.8654839 L25.6456281,16.8654839 C25.4065829,16.8654839 25.2638693,16.7235484 25.2638693,16.4875806 L25.2638693,0.780645161 C25.2638693,0.542903226 25.4065829,0.425806452 25.6456281,0.425806452 L30.1411055,0.425806452 C33.4235176,0.425806452 35.8032663,1.96225806 35.8032663,5.55854839 C35.8032663,7.87564516 34.9951508,9.17790323 34.0675126,9.93548387 C33.9961558,10.0046774 33.9479899,10.1235484 33.924799,10.2424194 C33.924799,10.3364516 33.924799,10.4322581 33.9711809,10.5280645 L36.1600503,16.2995161 C36.1850251,16.3704839 36.231407,16.4414516 36.231407,16.5141935 C36.231407,16.7483871 36.1136683,16.8672581 35.8746231,16.8672581 Z M28.976206,3.14564516 C28.6907789,3.14564516 28.5962312,3.28758065 28.5962312,3.52354839 L28.5962312,7.87741935 C28.5962312,8.01935484 28.6426131,8.25709677 29.0011809,8.25709677 L30.2374372,8.25709677 C31.4522864,8.16129032 32.4031156,7.64145161 32.4031156,5.70048387 C32.4031156,3.80919355 31.1900503,3.14564516 30.0715327,3.14564516 L28.976206,3.14564516 Z"></path>
                    <path d="M43.0156533,16.8672581 L40.4450251,16.8672581 C40.1827889,16.8672581 40.0650503,16.7501613 40.0650503,16.4893548 L40.0650503,3.47741935 C40.0650503,3.23967742 39.9473116,3.12258065 39.7082663,3.12258065 L36.4972111,3.12258065 C36.2349749,3.12258065 36.1154523,3.00370968 36.1154523,2.74290323 L36.1154523,0.780645161 C36.1154523,0.542903226 36.2349749,0.425806452 36.4972111,0.425806452 L46.9634673,0.425806452 C47.1989447,0.425806452 47.3434422,0.542903226 47.3434422,0.780645161 L47.3434422,2.74290323 C47.3434422,3.00370968 47.2007286,3.12258065 46.9634673,3.12258065 L43.7524121,3.12258065 C43.5133668,3.12258065 43.3938442,3.23967742 43.3938442,3.47741935 L43.3938442,16.4893548 C43.3956281,16.7483871 43.2546985,16.8672581 43.0156533,16.8672581 Z"></path>
                    <path d="M51.3965075,16.8672581 L48.8026884,16.8672581 C48.5404523,16.8672581 48.4209296,16.7253226 48.4209296,16.4893548 L48.4209296,0.780645161 C48.4209296,0.542903226 48.5404523,0.425806452 48.8026884,0.425806452 L51.3965075,0.425806452 C51.6319849,0.425806452 51.7532915,0.542903226 51.7532915,0.780645161 L51.7532915,6.97790323 C51.7532915,7.21564516 51.8710302,7.33451613 52.1100754,7.33451613 L55.3443216,7.33451613 C55.5833668,7.33451613 55.7028894,7.21564516 55.7028894,6.97790323 L55.7028894,0.780645161 C55.7028894,0.542903226 55.8206281,0.425806452 56.0596734,0.425806452 L58.6517085,0.425806452 C58.9157286,0.425806452 59.0334673,0.542903226 59.0334673,0.780645161 L59.0334673,16.4893548 C59.0334673,16.7235484 58.9157286,16.8672581 58.6517085,16.8672581 L56.0596734,16.8672581 C55.8206281,16.8672581 55.7028894,16.7253226 55.7028894,16.4893548 L55.7028894,10.3843548 C55.7028894,10.1466129 55.5833668,10.0295161 55.3443216,10.0295161 L52.1100754,10.0295161 C51.8710302,10.0295161 51.7532915,10.1466129 51.7532915,10.3843548 L51.7532915,16.4893548 C51.7532915,16.7235484 51.6337688,16.8672581 51.3965075,16.8672581 Z"></path>
                </g>
            </g>
            <path d="M47.2934925,7.09145161 C47.2934925,7.07548387 47.2917085,7.05774194 47.2881407,7.03645161 C47.0758543,5.77677419 47.2881407,7.03645161 46.6191709,3.40290323 C46.4942965,2.72870968 46.3729899,2.18225806 46.3087688,2.0083871 C46.305201,1.99064516 46.283794,1.95516129 46.2820101,1.95516129 C46.260603,1.93032258 46.2320603,1.91435484 46.1981658,1.91435484 C46.1410804,1.91435484 46.0929146,1.96048387 46.0875628,2.01725806 L46.0857789,2.04741935 C46.0697236,2.23193548 45.8984673,4.09306452 45.8931156,4.18532258 C45.884196,4.31483871 45.7878643,4.99435484 45.6487186,5.12564516 C45.5381156,5.23032258 45.3543719,5.38290323 45.1206784,5.57629032 C45.0368342,5.64548387 44.9458543,5.72 44.8530905,5.79806452 C44.7585427,5.87790323 44.6515075,5.91693548 44.5355528,5.91693548 C44.4035427,5.91693548 44.2875879,5.86548387 44.2162312,5.82467742 C43.9522111,5.62951613 43.5847236,5.36516129 43.1672864,5.06709677 L43.1708543,5.06709677 C43.1583668,5.06 43.1476633,5.05112903 43.1369598,5.04403226 C42.8729397,4.85596774 42.5910804,4.65725806 42.3038693,4.45322581 C41.0140955,3.47919355 39.7261055,2.40403226 38.2900503,1.97112903 C37.7441709,1.80612903 37.208995,1.80612903 36.7077136,1.90903226 C36.5578643,1.93741935 36.4454774,1.96935484 36.386608,1.98709677 C36.0940452,2.06516129 35.8496482,2.1716129 35.6391457,2.28870968 C35.0040704,2.60983871 34.6258794,3.14741935 34.1424372,3.40645161 L34.0675126,3.40645161 C33.5840704,3.14741935 33.2076633,2.60983871 32.570804,2.28870968 C32.3603015,2.16983871 32.1159045,2.06516129 31.8233417,1.98709677 C31.7644724,1.96758065 31.6520854,1.93741935 31.5022362,1.90903226 C31.0009548,1.80612903 30.4657789,1.80612903 29.9198995,1.97112903 C28.4838442,2.40403226 27.1976382,3.47919355 25.9060804,4.45322581 C25.6188693,4.65548387 25.3352261,4.85596774 25.0729899,5.04403226 C25.0605025,5.05112903 25.049799,5.06 25.0373116,5.06709677 L25.0408794,5.06709677 C24.6234422,5.36516129 24.2541709,5.62951613 23.9919347,5.82467742 C23.9205779,5.86548387 23.8046231,5.91693548 23.6726131,5.91693548 C23.5566583,5.91693548 23.4496231,5.87612903 23.3550754,5.79806452 C23.2605276,5.72 23.1713317,5.64548387 23.0857035,5.57629032 C22.8520101,5.38290323 22.6682663,5.23209677 22.5576633,5.12564516 C22.4185176,4.99258065 22.3221859,4.31306452 22.3132663,4.18532258 C22.3061307,4.09483871 22.1366583,2.23193548 22.120603,2.04741935 L22.1170352,2.01725806 C22.1116834,1.95870968 22.0635176,1.91435484 22.0064322,1.91435484 C21.9725377,1.91435484 21.9422111,1.93032258 21.9225879,1.95516129 C21.9225879,1.95516129 21.899397,1.99064516 21.8976131,2.0083871 C21.833392,2.18403226 21.7120854,2.72870968 21.5872111,3.40290323 C20.9164573,7.03645161 21.1305276,5.77854839 20.9164573,7.03645161 C20.9128894,7.05774194 20.9111055,7.07548387 20.9111055,7.09145161 C20.9111055,7.09145161 20.9128894,7.09322581 20.9128894,7.095 C20.9039698,7.1783871 20.968191,7.24580645 21.0199246,7.26887097 C22.1473618,7.75145161 23.2783668,8.22870968 24.4111558,8.70064516 C24.5057035,8.74145161 24.5966834,8.77870968 24.6805276,8.81419355 C24.7893467,8.86032258 24.9267085,8.84967742 25.0462312,8.83016129 C25.404799,8.76451613 25.759799,8.66870968 26.1183668,8.6066129 C27.0335176,8.44870968 27.9272613,8.14177419 28.8691709,8.1666129 C29.5863065,8.18612903 30.3016583,8.14532258 31.0241457,8.12048387 C31.0241457,8.12048387 31.218593,8.10983871 31.306005,8.07435484 C32.194397,7.70177419 33.081005,7.32209677 33.969397,6.95129032 C33.9961558,6.94064516 34.0264824,6.93177419 34.0603769,6.93177419 L34.0639447,6.93177419 C34.0978392,6.93354839 34.1281658,6.94064516 34.1549246,6.95129032 C35.0433166,7.32387097 35.9299246,7.70354839 36.8183166,8.07435484 C36.9057286,8.10983871 37.1001759,8.12048387 37.1001759,8.12048387 C37.7334673,8.14354839 38.361407,8.17548387 38.9893467,8.17016129 C39.1035176,8.17016129 39.2194724,8.1683871 39.3336432,8.1666129 C39.3693216,8.1666129 39.405,8.1666129 39.4406784,8.1666129 C40.3130151,8.18258065 41.0747487,8.45758065 41.9292462,8.6066129 C42.2878141,8.66870968 42.6428141,8.76451613 43.0013819,8.83016129 C43.0691709,8.84258065 43.1423116,8.84967742 43.2136683,8.84612903 C43.2939447,8.84967742 43.376005,8.84435484 43.4455779,8.81419355 C44.6693467,8.30677419 45.9644724,7.79048387 47.1828894,7.26887097 C47.236407,7.24580645 47.2988442,7.18016129 47.2899246,7.095 C47.2934925,7.09322581 47.2934925,7.09145161 47.2934925,7.09145161" id="Shape"></path>
            <path d="M117.972387,4.54193548 L117.972387,2.16629032 L118.582487,2.16629032 C118.844724,2.16629032 118.976734,2.30112903 118.976734,2.57080645 L118.976734,4.13741935 C118.976734,4.40709677 118.846508,4.54193548 118.582487,4.54193548 L117.972387,4.54193548 Z M115.633668,0.24483871 L115.633668,10.3577419 L117.970603,10.3577419 L117.970603,6.33741935 L118.543241,6.33741935 L119.317462,10.3559677 L121.527739,10.3559677 C121.502764,10.2725806 120.48593,6.44564516 120.282563,5.62951613 C120.578693,5.49467742 120.803467,5.29951613 120.955101,5.04225806 C121.108518,4.785 121.183442,4.53483871 121.183442,4.29 L121.183442,2.09 C121.183442,1.77064516 121.117437,1.49387097 120.987211,1.26145161 C120.855201,1.03080645 120.682161,0.839193548 120.466307,0.686612903 C120.250452,0.534032258 120.004271,0.422258065 119.729548,0.351290323 C119.454824,0.280322581 119.176533,0.243064516 118.898241,0.243064516 L115.633668,0.243064516 L115.633668,0.24483871 Z" id="Shape"></path>
            <path d="M123.670226,1.35548387 L124.34098,1.35548387 C124.415905,1.35548387 124.47299,1.38564516 124.515804,1.44774194 C124.556834,1.50983871 124.578241,1.57725806 124.578241,1.65177419 C124.578241,1.74403226 124.556834,1.82209677 124.51402,1.88596774 C124.469422,1.94983871 124.412337,1.98177419 124.34098,1.98177419 L123.670226,1.98177419 L123.670226,1.35548387 Z M123.670226,3.03741935 L123.670226,2.24080645 L124.080528,2.24080645 L124.52294,3.03741935 L124.858317,3.03741935 L124.383794,2.23548387 C124.533643,2.21419355 124.651382,2.145 124.740578,2.02967742 C124.82799,1.91435484 124.872588,1.78483871 124.872588,1.64290323 C124.872588,1.50096774 124.826206,1.37145161 124.735226,1.25435484 C124.642462,1.13725806 124.508668,1.07870968 124.33206,1.07870968 L123.368744,1.07870968 L123.368744,3.03741935 L123.670226,3.03741935 Z M122.655176,2.05096774 C122.655176,1.64645161 122.790754,1.30758065 123.060126,1.03612903 C123.329497,0.764677419 123.668442,0.628064516 124.075176,0.628064516 C124.48191,0.628064516 124.81907,0.762903226 125.086658,1.03258065 C125.354246,1.30225806 125.486256,1.64112903 125.486256,2.04919355 C125.486256,2.45725806 125.352462,2.79612903 125.086658,3.06758065 C124.81907,3.33903226 124.48191,3.47564516 124.075176,3.47564516 C123.668442,3.47564516 123.329497,3.33903226 123.060126,3.06758065 C122.790754,2.79790323 122.655176,2.45903226 122.655176,2.05096774 Z M125.76098,2.05096774 C125.76098,1.57548387 125.600427,1.17629032 125.277538,0.856935484 C124.954648,0.535806452 124.553266,0.374354839 124.075176,0.374354839 C123.597085,0.374354839 123.195704,0.534032258 122.872814,0.856935484 C122.549925,1.17806452 122.387588,1.57548387 122.387588,2.05096774 C122.387588,2.52645161 122.549925,2.92564516 122.872814,3.24677419 C123.195704,3.56790323 123.597085,3.72758065 124.075176,3.72758065 C124.553266,3.72758065 124.952864,3.56790323 125.277538,3.24677419 C125.600427,2.92564516 125.76098,2.52645161 125.76098,2.05096774 Z" id="Shape"></path>
            <polygon id="Shape" points="79.8000754 10.3559677 84.4917839 10.3559677 84.4917839 8.43451613 82.1851759 8.43451613 82.1851759 6.13516129 83.713995 6.13516129 83.713995 4.21370968 82.1851759 4.21370968 82.1851759 2.03854839 84.4917839 2.03854839 84.4917839 0.24483871 79.8000754 0.24483871"></polygon>
            <polygon id="Shape" points="108.028819 10.3559677 112.720528 10.3559677 112.720528 8.43451613 110.41392 8.43451613 110.41392 6.13516129 111.942739 6.13516129 111.942739 4.21370968 110.41392 4.21370968 110.41392 2.03854839 112.720528 2.03854839 112.720528 0.24483871 108.028819 0.24483871"></polygon>
            <path d="M104.068518,0.686612903 C103.852663,0.535806452 103.606482,0.424032258 103.331759,0.351290323 C103.057035,0.280322581 102.778744,0.24483871 102.498668,0.24483871 L99.2590704,0.24483871 L99.2590704,10.3559677 L102.498668,10.3559677 C102.778744,10.3559677 103.055251,10.3204839 103.331759,10.2495161 C103.606482,10.1785484 103.852663,10.0667742 104.068518,9.91419355 C104.284372,9.7616129 104.457412,9.57 104.589422,9.33935484 C104.719648,9.10693548 104.785653,8.83193548 104.785653,8.51080645 L104.785653,6.38709677 C104.785653,6.14225806 104.708945,5.91870968 104.557312,5.71645161 C104.405678,5.51419355 104.175553,5.34564516 103.872286,5.21080645 C104.177337,5.07596774 104.405678,4.90564516 104.557312,4.69806452 C104.710729,4.49225806 104.785653,4.27048387 104.785653,4.03451613 L104.785653,2.09 C104.785653,1.77064516 104.719648,1.49387097 104.589422,1.26145161 C104.457412,1.03080645 104.284372,0.839193548 104.068518,0.686612903 Z M102.587864,8.04419355 C102.587864,8.31387097 102.452286,8.44870968 102.181131,8.44870968 L101.596005,8.44870968 L101.596005,6.21145161 L102.181131,6.21145161 C102.307789,6.21145161 102.407688,6.2416129 102.479045,6.30016129 C102.550402,6.35870968 102.587864,6.45983871 102.587864,6.60354839 L102.587864,8.04419355 Z M102.587864,3.94758065 C102.587864,4.2083871 102.452286,4.33967742 102.181131,4.33967742 L101.596005,4.33967742 L101.596005,2.16629032 L102.181131,2.16629032 C102.452286,2.16629032 102.587864,2.30112903 102.587864,2.57080645 L102.587864,3.94758065 Z" id="Shape"></path>
            <polygon id="Shape" points="91.8022864 4.85774194 90.7979397 0.24483871 87.4959045 0.24483871 87.4959045 10.3559677 89.5920101 10.3559677 89.5920101 3.91032258 90.8496734 10.3559677 92.323191 10.3559677 93.7967085 3.92274194 93.7967085 10.3559677 96.1354271 10.3559677 96.1354271 0.24483871 92.7816583 0.24483871"></polygon>
            <polygon id="Shape" points="56.2808794 4.85774194 55.2765327 0.24483871 51.9727136 0.24483871 51.9727136 10.3559677 54.0688191 10.3559677 54.0688191 3.91032258 55.3282663 10.3559677 56.8017839 10.3559677 58.2753015 3.92274194 58.2753015 10.3559677 60.6122362 10.3559677 60.6122362 0.24483871 57.2584673 0.24483871"></polygon>
            <path d="M68.0850754,0.79483871 C67.8228392,0.58016129 67.516005,0.402741935 67.1627889,0.264354839 C66.8095729,0.125967742 66.4224623,0.0567741935 66.0032412,0.0567741935 C65.5840201,0.0567741935 65.1969095,0.125967742 64.8383417,0.264354839 C64.4797739,0.402741935 64.1711558,0.58016129 63.9089196,0.79483871 C63.6466834,1.00951613 63.4415327,1.24903226 63.2934673,1.51516129 C63.145402,1.78129032 63.0704774,2.04032258 63.0704774,2.29225806 L63.0704774,8.30854839 C63.0704774,8.56048387 63.145402,8.81951613 63.2934673,9.08564516 C63.4415327,9.35177419 63.6466834,9.59129032 63.9089196,9.80596774 C64.1711558,10.0206452 64.4797739,10.1980645 64.8383417,10.3364516 C65.1951256,10.4748387 65.5840201,10.5440323 66.0032412,10.5440323 C66.4224623,10.5440323 66.8077889,10.4748387 67.1627889,10.3364516 C67.516005,10.1980645 67.8228392,10.0206452 68.0850754,9.80596774 C68.3473116,9.59129032 68.5524623,9.35177419 68.7005276,9.08564516 C68.848593,8.81951613 68.9235176,8.56048387 68.9235176,8.30854839 L68.9235176,2.29225806 C68.9235176,2.04032258 68.848593,1.77951613 68.7005276,1.51516129 C68.5506784,1.24903226 68.3455276,1.00951613 68.0850754,0.79483871 Z M66.4866834,8.14354839 C66.4866834,8.2783871 66.4385176,8.38483871 66.3421859,8.46112903 C66.2458543,8.53741935 66.1334673,8.57467742 66.0014573,8.57467742 C65.8623116,8.57467742 65.7445729,8.53741935 65.6482412,8.46112903 C65.5519095,8.38483871 65.5037437,8.28016129 65.5037437,8.14354839 L65.5037437,2.45725806 C65.5037437,2.32241935 65.5519095,2.21596774 65.6482412,2.13967742 C65.7445729,2.0633871 65.8623116,2.02612903 66.0014573,2.02612903 C66.1316834,2.02612903 66.2458543,2.0633871 66.3421859,2.13967742 C66.4385176,2.21596774 66.4866834,2.32064516 66.4866834,2.45725806 L66.4866834,8.14354839 Z" id="Shape"></path>
            <polygon id="Shape" points="74.216407 5.89387097 73.595603 0.24483871 71.0553015 0.24483871 73.0390201 10.3559677 75.2867588 10.3559677 77.2704774 0.24483871 74.9299749 0.24483871"></polygon>
        </g>
    </g>
</svg>