<?xml version="1.0" encoding="UTF-8"?>
<svg width="132px" height="41px" viewBox="0 0 132 41" version="1.1" xmlns="http://www.w3.org/2000/svg" xmlns:xlink="http://www.w3.org/1999/xlink">
    <!-- Generator: Sketch 48.2 (47327) - http://www.bohemiancoding.com/sketch -->
    <title>TrueNorth-w</title>
    <desc>Created with Sketch.</desc>
    <defs></defs>
    <g id="Page-1" stroke="none" stroke-width="1" fill="none" fill-rule="evenodd">
        <g id="TrueNorth-w" fill="#FFFFFF" fill-rule="nonzero">
            <g id="Group" transform="translate(0.000000, 13.721774)">
                <g transform="translate(0.000000, 0.330645)" id="Shape">
                    <path d="M11.3808543,26.2598387 L7.16050251,26.2598387 C6.73100503,26.2598387 6.53698492,26.071371 6.53698492,25.6547581 L6.53698492,4.88197581 C6.53698492,4.50504032 6.34130653,4.31491935 5.95160804,4.31491935 L0.674924623,4.31491935 C0.243768844,4.31491935 0.0497487437,4.12645161 0.0497487437,3.71149194 L0.0497487437,0.575322581 C0.0497487437,0.198387097 0.243768844,0.00991935484 0.674924623,0.00991935484 L17.8647739,0.00991935484 C18.2544724,0.00991935484 18.4899497,0.198387097 18.4899497,0.575322581 L18.4899497,3.71149194 C18.4899497,4.12645161 18.2561307,4.31491935 17.8647739,4.31491935 L12.591407,4.31491935 C12.2017085,4.31491935 12.0060302,4.5033871 12.0060302,4.88197581 L12.0060302,25.6547581 C12.0060302,26.071371 11.7705528,26.2598387 11.3808543,26.2598387"></path>
                    <path d="M26.849397,4.35294355 C26.3801005,4.35294355 26.2258794,4.57943548 26.2258794,4.95802419 L26.2258794,11.9065323 C26.2258794,12.1330242 26.3038191,12.5099597 26.889196,12.5099597 L28.920603,12.5099597 C30.9122111,12.3595161 32.4776382,11.5279435 32.4776382,8.43145161 C32.4776382,5.40935484 30.4843719,4.35129032 28.6486432,4.35129032 L26.849397,4.35129032 L26.849397,4.35294355 Z M38.1788442,26.2598387 L33.568794,26.2598387 C33.3731156,26.2598387 33.0994975,26.071371 32.9834171,25.8052016 L29.8973367,17.4580645 C29.779598,17.1191532 29.5059799,16.8546371 29.0366834,16.8546371 L26.9256784,16.8546371 C26.3021608,16.8926613 26.2242211,17.307621 26.2242211,17.5341129 L26.2242211,25.6547581 C26.2242211,26.0333468 26.0268844,26.2598387 25.6371859,26.2598387 L21.3786935,26.2598387 C20.9873367,26.2598387 20.7535176,26.0333468 20.7535176,25.6547581 L20.7535176,0.575322581 C20.7535176,0.198387097 20.9873367,0.00991935484 21.3786935,0.00991935484 L28.7630653,0.00991935484 C34.1541709,0.00991935484 38.0627638,2.46495968 38.0627638,8.20495968 C38.0627638,11.9065323 36.7344724,13.9846371 35.2105025,15.1931452 C35.0927638,15.3072177 35.0148241,15.4940323 34.9766834,15.6841532 C34.9766834,15.8345968 34.9766834,15.9850403 35.0562814,16.1371371 L38.649799,25.353871 C38.6879397,25.4679435 38.7658794,25.5803629 38.7658794,25.6944355 C38.7642211,26.071371 38.570201,26.2598387 38.1788442,26.2598387 Z"></path>
                    <path d="M57.9456784,19.6122177 C57.9456784,24.2197581 54.7816583,26.8632661 49.2711558,26.8632661 C43.7623116,26.8632661 40.5203518,24.2197581 40.5203518,19.6122177 L40.5203518,0.575322581 C40.5203518,0.198387097 40.7160302,0.00991935484 41.1073869,0.00991935484 L45.3658794,0.00991935484 C45.7953769,0.00991935484 45.9927136,0.198387097 45.9927136,0.575322581 L45.9927136,19.2733065 C45.9927136,20.8967742 46.8500503,22.5599194 49.2728141,22.5599194 C51.7735176,22.5599194 52.4766332,20.8984274 52.4766332,19.2733065 L52.4766332,0.575322581 C52.4766332,0.198387097 52.6706533,0.00991935484 53.101809,0.00991935484 L57.3619598,0.00991935484 C57.7516583,0.00991935484 57.9473367,0.198387097 57.9473367,0.575322581 L57.9473367,19.6122177 L57.9456784,19.6122177 Z"></path>
                    <path d="M74.3047236,0.575322581 L74.3047236,3.71149194 C74.3047236,4.12645161 74.1090452,4.31657258 73.6778894,4.31657258 L66.8407538,4.31657258 C66.4510553,4.31657258 66.2537186,4.5033871 66.2537186,4.88362903 L66.2537186,10.5112097 C66.2537186,10.8897984 66.6052764,11.0402419 66.8026131,11.0402419 L72.6613568,11.0402419 C73.0543719,11.0402419 73.248392,11.2287097 73.248392,11.6436694 L73.248392,14.7781855 C73.248392,15.1567742 73.0543719,15.3452419 72.6613568,15.3452419 L66.8424121,15.3452419 C66.4527136,15.3452419 66.2553769,15.5337097 66.2553769,15.9106452 L66.2553769,21.3497581 C66.2553769,21.7266935 66.4527136,21.9151613 66.8424121,21.9151613 L73.6795477,21.9151613 C74.1107035,21.9151613 74.3063819,22.103629 74.3063819,22.4822177 L74.3063819,25.6547581 C74.3063819,26.071371 74.1107035,26.2598387 73.6795477,26.2598387 L61.4115075,26.2598387 C60.9803518,26.2598387 60.7863317,26.071371 60.7863317,25.6547581 L60.7863317,0.575322581 C60.7863317,0.198387097 60.9803518,0.00991935484 61.4115075,0.00991935484 L73.6795477,0.00991935484 C74.1090452,0.00991935484 74.3047236,0.198387097 74.3047236,0.575322581"></path>
                </g>
                <g transform="translate(77.110553, 0.000000)" id="Shape">
                    <path d="M3.59517588,8.64141129 C3.52884422,8.50915323 3.44095477,8.46451613 3.30663317,8.46451613 C3.10929648,8.46451613 2.97497487,8.57528226 2.97497487,8.79681452 L2.97497487,15.3667339 C2.97497487,15.6097581 2.86552764,15.718871 2.64331658,15.718871 L0.454371859,15.718871 C0.210603015,15.718871 0.0994974874,15.6097581 0.0994974874,15.3667339 L0.0994974874,0.727419355 C0.0994974874,0.505887097 0.210603015,0.396774194 0.43281407,0.396774194 L2.66487437,0.396774194 C2.79753769,0.396774194 2.90864322,0.46125 2.97497487,0.615 L6.44577889,7.27254032 C6.49055276,7.38330645 6.6,7.47258065 6.7558794,7.47258065 C6.97809045,7.47258065 7.08753769,7.36181452 7.08753769,7.14193548 L7.08753769,0.727419355 C7.08753769,0.505887097 7.19864322,0.396774194 7.42085427,0.396774194 L9.6081407,0.396774194 C9.85356784,0.396774194 9.96301508,0.505887097 9.96301508,0.727419355 L9.96301508,15.3865726 C9.96301508,15.6081048 9.83035176,15.7172177 9.6081407,15.7172177 L7.5518593,15.7172177 C7.42085427,15.7172177 7.30809045,15.6510887 7.24175879,15.4956855 L3.59517588,8.64141129 Z"></path>
                    <path d="M16.7354774,16.0677016 C13.1303518,16.0677016 11.6279397,13.9532258 11.6279397,11.5279435 L11.6279397,4.73814516 C11.6279397,2.3128629 13.1104523,0.0214919355 16.7122613,0.0214919355 C20.3173869,0.0214919355 21.819799,2.13762097 21.819799,4.56290323 L21.819799,11.3510484 C21.819799,13.7763306 20.3389447,16.0677016 16.7354774,16.0677016 Z M14.7438693,11.4849597 C14.7438693,12.4768952 15.208191,13.5564516 16.7354774,13.5564516 C18.2179899,13.5564516 18.7038693,12.45375 18.7038693,11.4403226 L18.7038693,4.60754032 C18.7038693,3.61725806 18.2395477,2.53604839 16.7122613,2.53604839 C15.2330653,2.53604839 14.7438693,3.63875 14.7438693,4.65217742 L14.7438693,11.4849597 Z"></path>
                    <path d="M33.3482412,15.7172177 L30.7397487,15.7172177 C30.6286432,15.7172177 30.4727638,15.6081048 30.4080905,15.4527016 L28.6602513,10.5789919 C28.5939196,10.3822581 28.4413568,10.2268548 28.1743719,10.2268548 L26.980402,10.2268548 C26.6255276,10.2483468 26.5824121,10.491371 26.5824121,10.623629 L26.5824121,15.3634274 C26.5824121,15.5816532 26.4713065,15.7155645 26.2507538,15.7155645 L23.839598,15.7155645 C23.6173869,15.7155645 23.4847236,15.5833065 23.4847236,15.3634274 L23.4847236,0.727419355 C23.4847236,0.505887097 23.6173869,0.396774194 23.839598,0.396774194 L28.0184925,0.396774194 C31.0697487,0.396774194 33.2819095,1.82846774 33.2819095,5.17955645 C33.2819095,7.33866935 32.5307035,8.5521371 31.668392,9.25806452 C31.6020603,9.32254032 31.5572864,9.43330645 31.5357286,9.54407258 C31.5357286,9.63169355 31.5357286,9.72096774 31.5788442,9.81024194 L33.6135678,15.1881855 C33.6367839,15.2543145 33.6798995,15.3204435 33.6798995,15.3882258 C33.6798995,15.6064516 33.5704523,15.7172177 33.3482412,15.7172177 Z M26.9356281,2.93116935 C26.6703015,2.93116935 26.5824121,3.06342742 26.5824121,3.28330645 L26.5824121,7.34032258 C26.5824121,7.47258065 26.6255276,7.6941129 26.9588442,7.6941129 L28.1080402,7.6941129 C29.2373367,7.60483871 30.121206,7.12044355 30.121206,5.31181452 C30.121206,3.54947581 28.9935678,2.93116935 27.9538191,2.93116935 L26.9356281,2.93116935 Z"></path>
                    <path d="M39.9863819,15.7172177 L37.5967839,15.7172177 C37.3530151,15.7172177 37.2435678,15.6081048 37.2435678,15.3650806 L37.2435678,3.24032258 C37.2435678,3.01879032 37.1341206,2.90967742 36.9119095,2.90967742 L33.9269849,2.90967742 C33.6832161,2.90967742 33.5721106,2.79891129 33.5721106,2.5558871 L33.5721106,0.727419355 C33.5721106,0.505887097 33.6832161,0.396774194 33.9269849,0.396774194 L43.6561809,0.396774194 C43.8750754,0.396774194 44.009397,0.505887097 44.009397,0.727419355 L44.009397,2.5558871 C44.009397,2.79891129 43.8767337,2.90967742 43.6561809,2.90967742 L40.6712563,2.90967742 C40.4490452,2.90967742 40.3379397,3.01879032 40.3379397,3.24032258 L40.3379397,15.3650806 C40.339598,15.6064516 40.208593,15.7172177 39.9863819,15.7172177 Z"></path>
                    <path d="M47.7770352,15.7172177 L45.3658794,15.7172177 C45.1221106,15.7172177 45.011005,15.5849597 45.011005,15.3650806 L45.011005,0.727419355 C45.011005,0.505887097 45.1221106,0.396774194 45.3658794,0.396774194 L47.7770352,0.396774194 C47.9959296,0.396774194 48.1086935,0.505887097 48.1086935,0.727419355 L48.1086935,6.5021371 C48.1086935,6.72366935 48.2181407,6.83443548 48.4403518,6.83443548 L51.4468342,6.83443548 C51.6690452,6.83443548 51.7801508,6.72366935 51.7801508,6.5021371 L51.7801508,0.727419355 C51.7801508,0.505887097 51.889598,0.396774194 52.111809,0.396774194 L54.5213065,0.396774194 C54.7667337,0.396774194 54.8761809,0.505887097 54.8761809,0.727419355 L54.8761809,15.3650806 C54.8761809,15.5833065 54.7667337,15.7172177 54.5213065,15.7172177 L52.111809,15.7172177 C51.889598,15.7172177 51.7801508,15.5849597 51.7801508,15.3650806 L51.7801508,9.67633065 C51.7801508,9.45479839 51.6690452,9.34568548 51.4468342,9.34568548 L48.4403518,9.34568548 C48.2181407,9.34568548 48.1086935,9.45479839 48.1086935,9.67633065 L48.1086935,15.3650806 C48.1086935,15.5833065 47.9975879,15.7172177 47.7770352,15.7172177 Z"></path>
                </g>
            </g>
            <path d="M43.9629648,6.60794355 C43.9629648,6.59306452 43.9613065,6.57653226 43.9579899,6.55669355 C43.7606533,5.38290323 43.9579899,6.55669355 43.3361307,3.1708871 C43.2200503,2.54266129 43.1072864,2.03346774 43.0475879,1.87145161 C43.0442714,1.85491935 43.0243719,1.82185484 43.0227136,1.82185484 C43.0028141,1.79870968 42.9762814,1.78383065 42.9447739,1.78383065 C42.8917085,1.78383065 42.8469347,1.82681452 42.8419598,1.87971774 L42.8403015,1.90782258 C42.8253769,2.07975806 42.6661809,3.81399194 42.661206,3.89995968 C42.6529146,4.02064516 42.5633668,4.65383065 42.4340201,4.77616935 C42.331206,4.87370968 42.160402,5.0158871 41.9431658,5.19608871 C41.8652261,5.26056452 41.7806533,5.33 41.6944221,5.40274194 C41.6065327,5.4771371 41.5070352,5.51350806 41.3992462,5.51350806 C41.2765327,5.51350806 41.1687437,5.46556452 41.1024121,5.42754032 C40.8569849,5.24568548 40.5153769,4.99935484 40.1273367,4.7216129 L40.1306533,4.7216129 C40.1190452,4.715 40.1090955,4.70673387 40.0991457,4.70012097 C39.8537186,4.52487903 39.5917085,4.33971774 39.3247236,4.14959677 C38.1257789,3.24197581 36.9284925,2.24012097 35.5935678,1.83673387 C35.0861307,1.68298387 34.5886432,1.68298387 34.1226633,1.77887097 C33.9833668,1.80532258 33.8788945,1.83508065 33.8241709,1.8516129 C33.5522111,1.92435484 33.3250251,2.02354839 33.1293467,2.13266129 C32.538995,2.43189516 32.1874372,2.93282258 31.7380402,3.17419355 L31.668392,3.17419355 C31.218995,2.93282258 30.8690955,2.43189516 30.2770854,2.13266129 C30.081407,2.02189516 29.8542211,1.92435484 29.5822613,1.8516129 C29.5275377,1.83342742 29.4230653,1.80532258 29.2837688,1.77887097 C28.8177889,1.68298387 28.3203015,1.68298387 27.8128643,1.83673387 C26.4779397,2.24012097 25.2823116,3.24197581 24.0817085,4.14959677 C23.8147236,4.33806452 23.5510553,4.52487903 23.3072864,4.70012097 C23.2956784,4.70673387 23.2857286,4.715 23.2741206,4.7216129 L23.2774372,4.7216129 C22.889397,4.99935484 22.5461307,5.24568548 22.3023618,5.42754032 C22.2360302,5.46556452 22.1282412,5.51350806 22.0055276,5.51350806 C21.8977387,5.51350806 21.7982412,5.47548387 21.7103518,5.40274194 C21.6224623,5.33 21.5395477,5.26056452 21.4599497,5.19608871 C21.2427136,5.0158871 21.0719095,4.8753629 20.9690955,4.77616935 C20.8397487,4.65217742 20.750201,4.01899194 20.7419095,3.89995968 C20.7352764,3.81564516 20.5777387,2.07975806 20.5628141,1.90782258 L20.5594975,1.87971774 C20.5545226,1.82516129 20.5097487,1.78383065 20.4566834,1.78383065 C20.4251759,1.78383065 20.3969849,1.79870968 20.3787437,1.82185484 C20.3787437,1.82185484 20.3571859,1.85491935 20.3555276,1.87145161 C20.2958291,2.03512097 20.1830653,2.54266129 20.0669849,3.1708871 C19.4434673,6.55669355 19.6424623,5.38455645 19.4434673,6.55669355 C19.4401508,6.57653226 19.4384925,6.59306452 19.4384925,6.60794355 C19.4384925,6.60794355 19.4401508,6.60959677 19.4401508,6.61125 C19.4318593,6.68895161 19.4915578,6.75177419 19.5396482,6.77326613 C20.5876884,7.22294355 21.6390452,7.66766129 22.6920603,8.10741935 C22.7799497,8.14544355 22.8645226,8.18016129 22.9424623,8.21322581 C23.0436181,8.25620968 23.1713065,8.24629032 23.2824121,8.22810484 C23.6157286,8.16693548 23.9457286,8.07766129 24.2790452,8.01979839 C25.1297487,7.87266129 25.9605528,7.58665323 26.8361307,7.60979839 C27.5027638,7.62798387 28.1677387,7.58995968 28.8393467,7.56681452 C28.8393467,7.56681452 29.0201005,7.55689516 29.1013568,7.52383065 C29.9271859,7.17665323 30.7513568,6.8228629 31.5771859,6.47733871 C31.6020603,6.46741935 31.6302513,6.45915323 31.6617588,6.45915323 L31.6650754,6.45915323 C31.6965829,6.46080645 31.7247739,6.46741935 31.7496482,6.47733871 C32.5754774,6.82451613 33.3996482,7.17830645 34.2254774,7.52383065 C34.3067337,7.55689516 34.4874874,7.56681452 34.4874874,7.56681452 C35.0761809,7.58830645 35.6598995,7.61806452 36.2436181,7.61310484 C36.3497487,7.61310484 36.4575377,7.61145161 36.5636683,7.60979839 C36.5968342,7.60979839 36.63,7.60979839 36.6631658,7.60979839 C37.4740704,7.62467742 38.1821608,7.88092742 38.9764824,8.01979839 C39.309799,8.07766129 39.639799,8.16693548 39.9731156,8.22810484 C40.0361307,8.23967742 40.1041206,8.24629032 40.1704523,8.24298387 C40.2450754,8.24629032 40.3213568,8.24133065 40.3860302,8.21322581 C41.5236181,7.74040323 42.7275377,7.25931452 43.8601508,6.77326613 C43.9098995,6.75177419 43.9679397,6.69060484 43.9596482,6.61125 C43.9629648,6.60959677 43.9629648,6.60794355 43.9629648,6.60794355" id="Shape"></path>
            <path d="M109.664472,4.23225806 L109.664472,2.01858871 L110.231608,2.01858871 C110.475377,2.01858871 110.59809,2.14423387 110.59809,2.39552419 L110.59809,3.85532258 C110.59809,4.1066129 110.477035,4.23225806 110.231608,4.23225806 L109.664472,4.23225806 Z M107.490452,0.228145161 L107.490452,9.65153226 L109.662814,9.65153226 L109.662814,5.90532258 L110.195126,5.90532258 L110.914824,9.64987903 L112.969447,9.64987903 C112.946231,9.57217742 112.001005,6.00616935 111.81196,5.24568548 C112.087236,5.12004032 112.296181,4.93818548 112.437136,4.69846774 C112.579749,4.45875 112.649397,4.22564516 112.649397,3.9975 L112.649397,1.9475 C112.649397,1.64991935 112.58804,1.39201613 112.466985,1.17544355 C112.344271,0.960524194 112.183417,0.781975806 111.982764,0.639798387 C111.782111,0.497620968 111.553266,0.393467742 111.297889,0.32733871 C111.042513,0.261209677 110.783819,0.226491935 110.525126,0.226491935 L107.490452,0.226491935 L107.490452,0.228145161 Z" id="Shape"></path>
            <path d="M114.961055,1.26306452 L115.584573,1.26306452 C115.654221,1.26306452 115.707286,1.29116935 115.747085,1.34903226 C115.785226,1.40689516 115.805126,1.46971774 115.805126,1.53915323 C115.805126,1.62512097 115.785226,1.6978629 115.745427,1.75737903 C115.70397,1.81689516 115.650905,1.84665323 115.584573,1.84665323 L114.961055,1.84665323 L114.961055,1.26306452 Z M114.961055,2.83032258 L114.961055,2.08802419 L115.342462,2.08802419 L115.753719,2.83032258 L116.065477,2.83032258 L115.624372,2.08306452 C115.763668,2.06322581 115.873116,1.99875 115.95603,1.89129032 C116.037286,1.78383065 116.078744,1.66314516 116.078744,1.5308871 C116.078744,1.39862903 116.035628,1.27794355 115.951055,1.16883065 C115.864824,1.05971774 115.740452,1.00516129 115.576281,1.00516129 L114.680804,1.00516129 L114.680804,2.83032258 L114.961055,2.83032258 Z M114.017487,1.91112903 C114.017487,1.53419355 114.143518,1.21842742 114.39392,0.965483871 C114.644322,0.712540323 114.959397,0.585241935 115.337487,0.585241935 C115.715578,0.585241935 116.028995,0.710887097 116.277739,0.962177419 C116.526482,1.21346774 116.649196,1.52923387 116.649196,1.90947581 C116.649196,2.28971774 116.524824,2.60548387 116.277739,2.85842742 C116.028995,3.11137097 115.715578,3.23866935 115.337487,3.23866935 C114.959397,3.23866935 114.644322,3.11137097 114.39392,2.85842742 C114.143518,2.6071371 114.017487,2.29137097 114.017487,1.91112903 Z M116.904573,1.91112903 C116.904573,1.46806452 116.755327,1.09608871 116.455176,0.798508065 C116.155025,0.499274194 115.78191,0.348830645 115.337487,0.348830645 C114.893065,0.348830645 114.51995,0.497620968 114.219799,0.798508065 C113.919648,1.09774194 113.768744,1.46806452 113.768744,1.91112903 C113.768744,2.35419355 113.919648,2.72616935 114.219799,3.02540323 C114.51995,3.3246371 114.893065,3.47342742 115.337487,3.47342742 C115.78191,3.47342742 116.153367,3.3246371 116.455176,3.02540323 C116.755327,2.72616935 116.904573,2.35419355 116.904573,1.91112903 Z" id="Shape"></path>
            <polygon id="Shape" points="74.1803518 9.64987903 78.5416583 9.64987903 78.5416583 7.85943548 76.3974874 7.85943548 76.3974874 5.71685484 77.8186432 5.71685484 77.8186432 3.92641129 76.3974874 3.92641129 76.3974874 1.89955645 78.5416583 1.89955645 78.5416583 0.228145161 74.1803518 0.228145161"></polygon>
            <polygon id="Shape" points="100.421156 9.64987903 104.782462 9.64987903 104.782462 7.85943548 102.638291 7.85943548 102.638291 5.71685484 104.059447 5.71685484 104.059447 3.92641129 102.638291 3.92641129 102.638291 1.89955645 104.782462 1.89955645 104.782462 0.228145161 100.421156 0.228145161"></polygon>
            <path d="M96.7397487,0.639798387 C96.5390955,0.499274194 96.3102513,0.395120968 96.0548744,0.32733871 C95.7994975,0.261209677 95.540804,0.228145161 95.2804523,0.228145161 L92.268995,0.228145161 L92.268995,9.64987903 L95.2804523,9.64987903 C95.540804,9.64987903 95.7978392,9.61681452 96.0548744,9.55068548 C96.3102513,9.48455645 96.5390955,9.38040323 96.7397487,9.23822581 C96.940402,9.09604839 97.1012563,8.9175 97.2239698,8.70258065 C97.3450251,8.48600806 97.4063819,8.22975806 97.4063819,7.93052419 L97.4063819,5.9516129 C97.4063819,5.72346774 97.3350754,5.51516129 97.1941206,5.32669355 C97.0531658,5.13822581 96.8392462,4.98116935 96.5573367,4.85552419 C96.8409045,4.72987903 97.0531658,4.57116935 97.1941206,4.37774194 C97.3367337,4.18596774 97.4063819,3.97931452 97.4063819,3.75943548 L97.4063819,1.9475 C97.4063819,1.64991935 97.3450251,1.39201613 97.2239698,1.17544355 C97.1012563,0.960524194 96.940402,0.781975806 96.7397487,0.639798387 Z M95.3633668,7.49572581 C95.3633668,7.74701613 95.2373367,7.87266129 94.9852764,7.87266129 L94.4413568,7.87266129 L94.4413568,5.78794355 L94.9852764,5.78794355 C95.1030151,5.78794355 95.1958794,5.81604839 95.2622111,5.87060484 C95.3285427,5.92516129 95.3633668,6.01939516 95.3633668,6.15330645 L95.3633668,7.49572581 Z M95.3633668,3.67842742 C95.3633668,3.92145161 95.2373367,4.04379032 94.9852764,4.04379032 L94.4413568,4.04379032 L94.4413568,2.01858871 L94.9852764,2.01858871 C95.2373367,2.01858871 95.3633668,2.14423387 95.3633668,2.39552419 L95.3633668,3.67842742 Z" id="Shape"></path>
            <polygon id="Shape" points="85.3373367 4.52653226 84.4037186 0.228145161 81.3342211 0.228145161 81.3342211 9.64987903 83.2827136 9.64987903 83.2827136 3.64370968 84.451809 9.64987903 85.8215578 9.64987903 87.1913065 3.65528226 87.1913065 9.64987903 89.3653266 9.64987903 89.3653266 0.228145161 86.2477387 0.228145161"></polygon>
            <polygon id="Shape" points="52.3174372 4.52653226 51.3838191 0.228145161 48.3126633 0.228145161 48.3126633 9.64987903 50.2611558 9.64987903 50.2611558 3.64370968 51.4319095 9.64987903 52.8016583 9.64987903 54.171407 3.65528226 54.171407 9.64987903 56.3437688 9.64987903 56.3437688 0.228145161 53.2261809 0.228145161"></polygon>
            <path d="M63.2903518,0.740645161 C63.0465829,0.540604839 62.7613568,0.375282258 62.4330151,0.246330645 C62.1046734,0.117379032 61.7448241,0.0529032258 61.3551256,0.0529032258 C60.9654271,0.0529032258 60.6055779,0.117379032 60.2722613,0.246330645 C59.9389447,0.375282258 59.6520603,0.540604839 59.4082915,0.740645161 C59.1645226,0.940685484 58.9738191,1.16387097 58.8361809,1.41185484 C58.6985427,1.65983871 58.6288945,1.90120968 58.6288945,2.13596774 L58.6288945,7.74205645 C58.6288945,7.97681452 58.6985427,8.21818548 58.8361809,8.46616935 C58.9738191,8.71415323 59.1645226,8.93733871 59.4082915,9.13737903 C59.6520603,9.33741935 59.9389447,9.50274194 60.2722613,9.63169355 C60.6039196,9.76064516 60.9654271,9.82512097 61.3551256,9.82512097 C61.7448241,9.82512097 62.1030151,9.76064516 62.4330151,9.63169355 C62.7613568,9.50274194 63.0465829,9.33741935 63.2903518,9.13737903 C63.5341206,8.93733871 63.7248241,8.71415323 63.8624623,8.46616935 C64.0001005,8.21818548 64.0697487,7.97681452 64.0697487,7.74205645 L64.0697487,2.13596774 C64.0697487,1.90120968 64.0001005,1.65818548 63.8624623,1.41185484 C63.7231658,1.16387097 63.5324623,0.940685484 63.2903518,0.740645161 Z M61.8045226,7.58830645 C61.8045226,7.71395161 61.7597487,7.81314516 61.670201,7.88423387 C61.5806533,7.95532258 61.4761809,7.99004032 61.3534673,7.99004032 C61.2241206,7.99004032 61.1146734,7.95532258 61.0251256,7.88423387 C60.9355779,7.81314516 60.890804,7.71560484 60.890804,7.58830645 L60.890804,2.28971774 C60.890804,2.16407258 60.9355779,2.06487903 61.0251256,1.99379032 C61.1146734,1.92270161 61.2241206,1.88798387 61.3534673,1.88798387 C61.4745226,1.88798387 61.5806533,1.92270161 61.670201,1.99379032 C61.7597487,2.06487903 61.8045226,2.16241935 61.8045226,2.28971774 L61.8045226,7.58830645 Z" id="Shape"></path>
            <polygon id="Shape" points="68.9898995 5.49201613 68.4128141 0.228145161 66.051407 0.228145161 67.8954271 9.64987903 69.9848744 9.64987903 71.8288945 0.228145161 69.6532161 0.228145161"></polygon>
        </g>
    </g>
</svg>