<svg xmlns="http://www.w3.org/2000/svg" width="132" height="41" fill="#fff" fill-rule="nonzero"><path d="M11.38 40.313H7.16c-.43 0-.624-.188-.624-.605V18.935c0-.377-.196-.567-.585-.567H.675c-.43 0-.625-.188-.625-.603V14.63c0-.377.194-.565.625-.565h17.2c.4 0 .625.188.625.565v3.136c0 .415-.234.603-.625.603H12.6c-.4 0-.585.188-.585.567v20.773c0 .417-.235.605-.625.605m15.47-21.907c-.47 0-.624.226-.624.605v6.95c0 .226.078.603.663.603h2.03c1.992-.15 3.557-.982 3.557-4.08 0-3.022-1.993-4.08-3.83-4.08h-1.8v.002zm11.33 21.907h-4.6c-.196 0-.47-.188-.585-.455L29.91 31.51a.85.85 0 0 0-.86-.603h-2.1c-.624.038-.7.453-.7.68v8.12c0 .38-.197.605-.587.605H21.38c-.4 0-.625-.226-.625-.605v-25.08c0-.377.234-.565.625-.565h7.384c5.4 0 9.3 2.455 9.3 8.195 0 3.702-1.328 5.78-2.852 6.988-.118.114-.196.3-.234.5 0 .15 0 .3.08.453l3.594 9.217c.038.114.116.226.116.34-.002.377-.196.565-.587.565zm19.766-6.648c0 4.608-3.164 7.25-8.675 7.25s-8.75-2.644-8.75-7.25V14.628c0-.377.196-.565.587-.565h4.258c.43 0 .627.188.627.565v18.698c0 1.623.857 3.287 3.28 3.287 2.5 0 3.204-1.66 3.204-3.287V14.628c0-.377.194-.565.625-.565h4.26c.4 0 .585.188.585.565l-.002 19.037zm16.36-19.037v3.136c0 .415-.196.605-.627.605H66.84c-.4 0-.587.187-.587.567v5.628c0 .38.352.53.55.53h5.86c.393 0 .587.188.587.603v3.135c0 .38-.194.567-.587.567h-5.82c-.4 0-.587.188-.587.565v5.44c0 .377.197.565.587.565h6.837c.43 0 .627.188.627.567v3.173c0 .417-.196.605-.627.605H61.412c-.43 0-.625-.188-.625-.605V14.63c0-.377.194-.565.625-.565H73.68c.43 0 .625.188.625.565m6.4 7.734c-.066-.132-.154-.177-.3-.177a.3.3 0 0 0-.332.332v6.57c0 .243-.1.352-.332.352h-2.2c-.244 0-.355-.1-.355-.352V14.45c0-.222.1-.33.333-.33h2.232a.3.3 0 0 1 .3.218l3.47 6.658a.32.32 0 0 0 .3.2c.222 0 .332-.1.332-.33V14.45c0-.222.1-.33.333-.33h2.187c.245 0 .355.1.355.33V29.1c0 .222-.133.33-.355.33h-2.056c-.13 0-.244-.066-.3-.222l-3.647-6.854zm13.14 7.437c-3.605 0-5.108-2.114-5.108-4.54v-6.8c0-2.425 1.483-4.717 5.084-4.717s5.108 2.116 5.108 4.54v6.788c0 2.425-1.48 4.717-5.084 4.717zm-1.992-4.583c0 .992.464 2.07 1.992 2.07 1.483 0 1.968-1.103 1.968-2.116v-6.84c0-1-.464-2.07-1.992-2.07-1.48 0-1.968 1.103-1.968 2.116v6.833zm18.606 4.223h-2.608c-.1 0-.267-.1-.332-.265l-1.75-4.875c-.066-.197-.22-.352-.486-.352H104.1c-.355.02-.398.265-.398.397v4.74c0 .218-.1.352-.332.352h-2.4c-.222 0-.355-.132-.355-.352V14.45c0-.222.133-.33.355-.33h4.18c3.05 0 5.263 1.432 5.263 4.783 0 2.16-.75 3.373-1.614 4.08-.066.064-.1.175-.133.286a.58.58 0 0 0 .043.266l2.035 5.378c.023.066.066.132.066.2a.29.29 0 0 1-.332.33zm-6.413-12.786c-.265 0-.353.132-.353.352v4.057c0 .132.043.354.376.354h1.15c1.13-.1 2.013-.574 2.013-2.382 0-1.762-1.128-2.38-2.167-2.38h-1.018zm13.05 12.786h-2.4c-.244 0-.353-.1-.353-.352V16.962c0-.222-.1-.33-.332-.33h-2.985c-.244 0-.355-.1-.355-.354V14.45c0-.222.1-.33.355-.33h9.73c.22 0 .353.1.353.33v1.828c0 .243-.133.354-.353.354h-2.985c-.222 0-.333.1-.333.33v12.125a.31.31 0 0 1-.352.352zm7.79 0h-2.4c-.244 0-.355-.132-.355-.352V14.45c0-.222.1-.33.355-.33h2.4a.29.29 0 0 1 .332.331v5.775c0 .222.1.332.332.332h3.006a.29.29 0 0 0 .333-.332V14.45c0-.222.1-.33.332-.33h2.4c.245 0 .355.1.355.33v14.638c0 .218-.1.352-.355.352h-2.4c-.222 0-.332-.132-.332-.352v-5.7c0-.222-.1-.33-.333-.33h-3.006c-.222 0-.332.1-.332.33v5.7c0 .218-.1.352-.332.352zM43.963 6.608c0-.015-.002-.03-.005-.05l-.622-3.386-.3-1.3a.15.15 0 0 0-.025-.05c-.02-.023-.046-.038-.078-.038-.053 0-.098.043-.103.096l-.002.028-.18 1.992c-.008.12-.098.754-.227.876-.103.098-.274.24-.5.42l-.25.207c-.088.074-.187.1-.295.1-.123 0-.23-.048-.297-.086l-.975-.706h.003c-.012-.007-.022-.015-.032-.02l-.774-.55c-1.2-.908-2.396-1.9-3.73-2.313a2.96 2.96 0 0 0-1.471-.058 2.9 2.9 0 0 0-.298.073c-.272.073-.5.172-.695.28-.6.3-.942.8-1.4 1.042h-.07c-.45-.24-.8-.742-1.4-1.042-.196-.1-.423-.208-.695-.28-.055-.018-.16-.046-.298-.073a2.96 2.96 0 0 0-1.471.058c-1.335.403-2.53 1.405-3.73 2.313l-.774.55c-.012.007-.022.015-.033.02h.003l-.975.706c-.066.038-.174.086-.297.086-.108 0-.207-.038-.295-.1l-.25-.207-.5-.42c-.13-.124-.22-.757-.227-.876l-.183-2.02c-.005-.055-.05-.096-.103-.096-.032 0-.06.015-.078.038 0 0-.022.033-.023.05-.06.164-.172.67-.3 1.3l-.624 3.386a.35.35 0 0 0-.005.05c-.007.08.053.144.1.165l3.403 1.44c.1.043.23.033.34.015l.997-.208c.85-.147 1.682-.433 2.557-.4l2.003-.043s.18-.01.262-.043l2.476-1.046c.025-.01.053-.018.085-.018h.003c.032.002.06.008.085.018l2.476 1.046a1.14 1.14 0 0 0 .262.043l1.756.046.32-.003h.1c.8.015 1.52.27 2.313.4l.997.208a.87.87 0 0 0 .197.015c.075.003.15-.002.216-.03l3.474-1.44c.05-.02.108-.083.1-.162m65.703-2.38V2.02h.567c.244 0 .366.126.366.377v1.46c0 .25-.12.377-.366.377h-.567zM107.5.228V9.65h2.172V5.905h.532l.72 3.745h2.055l-1.157-4.404c.275-.126.484-.308.625-.547s.212-.473.212-.7V1.95a1.56 1.56 0 0 0-.182-.772 1.65 1.65 0 0 0-.484-.536 2.07 2.07 0 0 0-.685-.312 3.08 3.08 0 0 0-.773-.101H107.5V.23zm7.46 1.035h.624c.07 0 .123.028.163.086s.058.12.058.2c0 .086-.02.16-.06.218a.19.19 0 0 1-.16.09h-.624v-.584zm0 1.567v-.742h.38l.4.742h.312l-.44-.747a.49.49 0 0 0 .332-.192.59.59 0 0 0 .123-.36.58.58 0 0 0-.128-.362c-.086-.1-.2-.164-.375-.164h-.895V2.83h.28zm-.944-.92a1.29 1.29 0 0 1 .376-.946c.25-.253.565-.38.944-.38s.692.126.94.377a1.29 1.29 0 0 1 .371.947 1.31 1.31 0 0 1-.37.95c-.246.254-.562.38-.94.38s-.693-.127-.944-.38-.376-.567-.376-.947zm2.887 0c0-.443-.15-.815-.45-1.113a1.52 1.52 0 0 0-1.118-.45 1.52 1.52 0 0 0-1.118.45 1.51 1.51 0 0 0-.45 1.113 1.51 1.51 0 0 0 .451 1.114 1.52 1.52 0 0 0 1.118.448c.444 0 .816-.15 1.118-.448a1.51 1.51 0 0 0 .449-1.114z"/><path d="M74.18 9.65h4.36v-1.8h-2.144V5.717h1.42v-1.8h-1.42V1.9h2.144V.228h-4.36zm26.24 0h4.36v-1.8h-2.144V5.717h1.42v-1.8h-1.42V1.9h2.144V.228h-4.36zm-3.68-9a2.14 2.14 0 0 0-.685-.312 3.08 3.08 0 0 0-.774-.099h-3v9.42h3a3.09 3.09 0 0 0 .774-.099 2.07 2.07 0 0 0 .685-.312 1.65 1.65 0 0 0 .484-.536c.12-.217.182-.473.182-.772V5.95a1.02 1.02 0 0 0-.212-.625c-.14-.188-.355-.346-.637-.47.284-.126.496-.284.637-.478a1.03 1.03 0 0 0 .212-.618V1.948a1.56 1.56 0 0 0-.182-.772A1.65 1.65 0 0 0 96.74.64zm-1.376 6.856a.33.33 0 0 1-.378.377h-.544V5.788h.544c.118 0 .2.028.277.083s.1.15.1.283v1.342zm0-3.817c0 .243-.126.365-.378.365h-.544V2.02h.544a.33.33 0 0 1 .378.377V3.68zm-10.027.848l-.933-4.3h-3.07V9.65h1.948V3.644l1.17 6.006h1.37l1.37-5.995V9.65h2.174V.228h-3.118zm-33.02 0l-.933-4.3h-3.07V9.65h1.948V3.644l1.17 6.006h1.37l1.37-5.995V9.65h2.172V.228h-3.118zM63.3.74a3.16 3.16 0 0 0-.857-.494c-.328-.13-.688-.193-1.078-.193a2.97 2.97 0 0 0-1.083.193c-.333.13-.62.294-.864.494s-.434.423-.572.67a1.49 1.49 0 0 0-.207.724V7.74a1.49 1.49 0 0 0 .207.724c.138.248.328.47.572.67s.53.365.864.494.693.193 1.083.193a2.93 2.93 0 0 0 1.078-.193 3.16 3.16 0 0 0 .857-.494c.244-.2.434-.423.572-.67a1.49 1.49 0 0 0 .207-.724V2.136a1.49 1.49 0 0 0-.207-.724A2.39 2.39 0 0 0 63.3.741zm-1.486 6.848c0 .126-.045.225-.134.296a.49.49 0 0 1-.317.106.51.51 0 0 1-.328-.106c-.1-.07-.134-.17-.134-.296V2.3c0-.126.045-.225.134-.296a.51.51 0 0 1 .328-.106.5.5 0 0 1 .317.106c.1.07.134.17.134.296v5.3zM69 5.492L68.413.228h-2.36l1.844 9.422h2.1L71.83.228h-2.176z"/></svg>