<?xml version="1.0" encoding="utf-8"?>
<!-- Generator: Adobe Illustrator 24.0.0, SVG Export Plug-In . SVG Version: 6.00 Build 0)  -->
<svg version="1.1" id="Layer_1" xmlns="http://www.w3.org/2000/svg" xmlns:xlink="http://www.w3.org/1999/xlink" x="0px" y="0px"
	 viewBox="0 0 795.58 246.5" style="enable-background:new 0 0 795.58 246.5;" xml:space="preserve">
<g>
	<g>
		<g>
			<path d="M68.63,242.84H43.18c-2.59,0-3.76-1.14-3.76-3.66V113.53c0-2.28-1.18-3.43-3.53-3.43H4.07c-2.6,0-3.77-1.14-3.77-3.65
				V87.48c0-2.28,1.17-3.42,3.77-3.42h103.66c2.35,0,3.77,1.14,3.77,3.42v18.97c0,2.51-1.41,3.65-3.77,3.65H75.93
				c-2.35,0-3.53,1.14-3.53,3.43v125.65C72.4,241.7,70.98,242.84,68.63,242.84"/>
			<path d="M161.91,110.33c-2.83,0-3.76,1.37-3.76,3.66v42.03c0,1.37,0.47,3.65,4,3.65h12.25c12.01-0.91,21.45-5.94,21.45-24.67
				c0-18.28-12.02-24.68-23.09-24.68H161.91z M230.23,242.84h-27.8c-1.18,0-2.83-1.14-3.53-2.75l-18.61-50.49
				c-0.71-2.05-2.36-3.65-5.19-3.65h-12.73c-3.76,0.23-4.23,2.74-4.23,4.11v49.12c0,2.29-1.19,3.66-3.54,3.66h-25.68
				c-2.36,0-3.77-1.37-3.77-3.66V87.48c0-2.28,1.41-3.42,3.77-3.42h44.53c32.51,0,56.08,14.85,56.08,49.57
				c0,22.39-8.01,34.96-17.2,42.27c-0.71,0.69-1.18,1.82-1.41,2.97c0,0.91,0,1.82,0.48,2.74l21.67,55.75
				c0.23,0.69,0.7,1.37,0.7,2.06C233.76,241.7,232.59,242.84,230.23,242.84"/>
			<path d="M349.43,202.63c0,27.87-19.08,43.86-52.31,43.86c-33.22,0-52.77-15.99-52.77-43.86V87.48c0-2.28,1.18-3.42,3.54-3.42
				h25.68c2.59,0,3.78,1.14,3.78,3.42v113.1c0,9.82,5.17,19.88,19.78,19.88c15.08,0,19.32-10.05,19.32-19.88V87.48
				c0-2.28,1.17-3.42,3.77-3.42h25.69c2.35,0,3.53,1.14,3.53,3.42V202.63z"/>
			<path d="M448.08,87.48v18.97c0,2.51-1.18,3.66-3.78,3.66h-41.23c-2.35,0-3.54,1.13-3.54,3.43v34.04c0,2.29,2.12,3.2,3.31,3.2
				h35.33c2.37,0,3.54,1.14,3.54,3.65v18.96c0,2.29-1.17,3.43-3.54,3.43h-35.09c-2.35,0-3.54,1.14-3.54,3.42v32.9
				c0,2.28,1.19,3.42,3.54,3.42h41.23c2.6,0,3.78,1.14,3.78,3.43v19.19c0,2.52-1.18,3.66-3.78,3.66h-73.98
				c-2.6,0-3.77-1.14-3.77-3.66V87.48c0-2.28,1.17-3.42,3.77-3.42h73.98C446.9,84.06,448.08,85.2,448.08,87.48"/>
		</g>
		<g>
			<path d="M486.68,134.27c-0.4-0.8-0.93-1.07-1.74-1.07c-1.19,0-2,0.67-2,2.01v39.74c0,1.47-0.66,2.13-2,2.13h-13.2
				c-1.47,0-2.14-0.66-2.14-2.13V86.4c0-1.34,0.67-2,2.01-2h13.46c0.8,0,1.47,0.39,1.87,1.32l20.93,40.27
				c0.27,0.67,0.93,1.21,1.87,1.21c1.34,0,2-0.67,2-2V86.4c0-1.34,0.67-2,2.01-2h13.19c1.48,0,2.14,0.66,2.14,2v88.67
				c0,1.34-0.8,2-2.14,2h-12.4c-0.79,0-1.47-0.4-1.87-1.34L486.68,134.27z"/>
			<path d="M565.92,179.19c-21.74,0-30.8-12.79-30.8-27.46v-41.07c0-14.67,8.94-28.53,30.66-28.53c21.74,0,30.8,12.8,30.8,27.47
				v41.06C596.58,165.33,587.65,179.19,565.92,179.19z M553.91,151.47c0,6,2.8,12.53,12.01,12.53c8.94,0,11.87-6.67,11.87-12.8
				v-41.33c0-5.99-2.8-12.53-12.01-12.53c-8.92,0-11.87,6.67-11.87,12.8V151.47z"/>
			<path d="M666.1,177.07h-15.73c-0.67,0-1.61-0.66-2-1.6l-10.54-29.48c-0.4-1.19-1.32-2.13-2.93-2.13h-7.2
				c-2.14,0.13-2.4,1.6-2.4,2.4v28.67c0,1.32-0.67,2.13-2,2.13h-14.54c-1.34,0-2.14-0.8-2.14-2.13V86.4c0-1.34,0.8-2,2.14-2h25.2
				c18.4,0,31.74,8.66,31.74,28.93c0,13.06-4.53,20.4-9.73,24.67c-0.4,0.39-0.67,1.06-0.8,1.73c0,0.53,0,1.07,0.26,1.61l12.27,32.53
				c0.14,0.4,0.4,0.8,0.4,1.21C668.1,176.4,667.44,177.07,666.1,177.07z M627.43,99.73c-1.6,0-2.13,0.8-2.13,2.13v24.54
				c0,0.8,0.26,2.14,2.27,2.14h6.93c6.81-0.54,12.14-3.47,12.14-14.41c0-10.66-6.8-14.4-13.07-14.4H627.43z"/>
			<path d="M706.13,177.07h-14.41c-1.47,0-2.13-0.66-2.13-2.13V101.6c0-1.34-0.66-2-2-2h-18c-1.47,0-2.14-0.67-2.14-2.14V86.4
				c0-1.34,0.67-2,2.14-2h58.67c1.32,0,2.13,0.66,2.13,2v11.06c0,1.47-0.8,2.14-2.13,2.14h-18c-1.34,0-2.01,0.66-2.01,2v73.34
				C708.26,176.4,707.47,177.07,706.13,177.07z"/>
			<path d="M753.11,177.07h-14.54c-1.47,0-2.14-0.8-2.14-2.13V86.4c0-1.34,0.67-2,2.14-2h14.54c1.32,0,2,0.66,2,2v34.93
				c0,1.34,0.66,2.01,2,2.01h18.13c1.34,0,2.01-0.67,2.01-2.01V86.4c0-1.34,0.66-2,2-2h14.53c1.48,0,2.14,0.66,2.14,2v88.54
				c0,1.32-0.66,2.13-2.14,2.13h-14.53c-1.34,0-2-0.8-2-2.13v-34.41c0-1.34-0.67-2-2.01-2h-18.13c-1.34,0-2,0.66-2,2v34.41
				C755.11,176.26,754.44,177.07,753.11,177.07z"/>
		</g>
	</g>
	<g>
		<path d="M265.11,38.97c0-0.09-0.01-0.19-0.03-0.31c-1.19-7.1,0,0-3.75-20.48c-0.7-3.8-1.38-6.88-1.74-7.86
			c-0.02-0.1-0.14-0.3-0.15-0.3c-0.12-0.14-0.28-0.23-0.47-0.23c-0.32,0-0.59,0.26-0.62,0.58v0v0v0l-0.01,0.17
			c-0.09,1.04-1.05,11.53-1.08,12.05c-0.05,0.73-0.59,4.56-1.37,5.3c-0.62,0.59-1.65,1.45-2.96,2.54c-0.47,0.39-0.98,0.81-1.5,1.25
			c-0.53,0.45-1.13,0.67-1.78,0.67c-0.74,0-1.39-0.29-1.79-0.52c-1.48-1.1-3.54-2.59-5.88-4.27l0.02,0
			c-0.07-0.04-0.13-0.09-0.19-0.13c-1.48-1.06-3.06-2.18-4.67-3.33c-7.23-5.49-14.45-11.55-22.5-13.99
			c-3.06-0.93-6.06-0.93-8.87-0.35c-0.84,0.16-1.47,0.34-1.8,0.44c-1.64,0.44-3.01,1.04-4.19,1.7c-3.56,1.81-5.68,4.84-8.39,6.3
			h-0.42c-2.71-1.46-4.82-4.49-8.39-6.3c-1.18-0.67-2.55-1.26-4.19-1.7c-0.33-0.11-0.96-0.28-1.8-0.44
			c-2.81-0.58-5.81-0.58-8.87,0.35c-8.05,2.44-15.26,8.5-22.5,13.99c-1.61,1.14-3.2,2.27-4.67,3.33c-0.07,0.04-0.13,0.09-0.2,0.13
			l0.02,0c-2.34,1.68-4.41,3.17-5.88,4.27c-0.4,0.23-1.05,0.52-1.79,0.52c-0.65,0-1.25-0.23-1.78-0.67
			c-0.53-0.44-1.03-0.86-1.51-1.25c-1.31-1.09-2.34-1.94-2.96-2.54c-0.78-0.75-1.32-4.58-1.37-5.3c-0.04-0.51-0.99-11.01-1.08-12.05
			l-0.02-0.17v0v0v0c-0.03-0.33-0.3-0.58-0.62-0.58c-0.19,0-0.36,0.09-0.47,0.23c0,0-0.13,0.2-0.14,0.3
			c-0.36,0.99-1.04,4.06-1.74,7.86c-3.76,20.48-2.56,13.39-3.76,20.48c-0.02,0.12-0.03,0.22-0.03,0.31c0,0,0.01,0.01,0.01,0.02
			c-0.05,0.47,0.31,0.85,0.6,0.98c6.32,2.72,12.66,5.41,19.01,8.07c0.53,0.23,1.04,0.44,1.51,0.64c0.61,0.26,1.38,0.2,2.05,0.09
			c2.01-0.37,4-0.91,6.01-1.26c5.13-0.89,10.14-2.62,15.42-2.48c4.02,0.11,8.03-0.12,12.08-0.26c0,0,1.09-0.06,1.58-0.26
			c4.98-2.1,9.95-4.24,14.93-6.33c0.15-0.06,0.32-0.11,0.51-0.11h0.02c0.19,0.01,0.36,0.05,0.51,0.11c4.98,2.1,9.95,4.24,14.93,6.33
			c0.49,0.2,1.58,0.26,1.58,0.26c3.55,0.13,7.07,0.31,10.59,0.28c0.64,0,1.29-0.01,1.93-0.02c0.2,0,0.4,0,0.6,0
			c4.89,0.09,9.16,1.64,13.95,2.48c2.01,0.35,4,0.89,6.01,1.26c0.38,0.07,0.79,0.11,1.19,0.09c0.45,0.02,0.91-0.01,1.3-0.18
			c6.86-2.86,14.12-5.77,20.95-8.71c0.3-0.13,0.65-0.5,0.6-0.98C265.11,38.98,265.11,38.97,265.11,38.97"/>
	</g>
	<path d="M661.31,24.6V11.21h3.42c1.47,0,2.21,0.76,2.21,2.28v8.83c0,1.52-0.73,2.28-2.21,2.28H661.31z M648.2,0.38v57h13.1V34.72
		h3.21l4.34,22.65h12.39c-0.14-0.47-5.84-22.04-6.98-26.64c1.66-0.76,2.92-1.86,3.77-3.31c0.86-1.45,1.28-2.86,1.28-4.24v-12.4
		c0-1.8-0.37-3.36-1.1-4.67c-0.74-1.3-1.71-2.38-2.92-3.24c-1.21-0.86-2.59-1.49-4.13-1.89c-1.54-0.4-3.1-0.61-4.66-0.61H648.2z"/>
	<path d="M693.25,6.64h3.76c0.42,0,0.74,0.17,0.98,0.52c0.23,0.35,0.35,0.73,0.35,1.15c0,0.52-0.12,0.96-0.36,1.32
		c-0.25,0.36-0.57,0.54-0.97,0.54h-3.76V6.64z M693.25,16.12v-4.49h2.3l2.48,4.49h1.88l-2.66-4.52c0.84-0.12,1.5-0.51,2-1.16
		c0.49-0.65,0.74-1.38,0.74-2.18c0-0.8-0.26-1.53-0.77-2.19c-0.52-0.66-1.27-0.99-2.26-0.99h-5.4v11.04H693.25z M687.56,10.56
		c0-2.28,0.76-4.19,2.27-5.72c1.51-1.53,3.41-2.3,5.69-2.3c2.28,0,4.17,0.76,5.67,2.28c1.5,1.52,2.24,3.43,2.24,5.73
		c0,2.3-0.75,4.21-2.24,5.74c-1.5,1.53-3.39,2.3-5.67,2.3c-2.28,0-4.18-0.77-5.69-2.3C688.32,14.77,687.56,12.86,687.56,10.56
		 M704.97,10.56c0-2.68-0.9-4.93-2.71-6.73c-1.81-1.81-4.06-2.72-6.74-2.72c-2.68,0-4.93,0.9-6.74,2.72
		c-1.81,1.81-2.72,4.05-2.72,6.73c0,2.68,0.91,4.93,2.72,6.74c1.81,1.81,4.06,2.71,6.74,2.71c2.68,0,4.92-0.9,6.74-2.71
		C704.07,15.49,704.97,13.24,704.97,10.56"/>
	<polygon points="447.33,57.37 473.63,57.37 473.63,46.54 460.7,46.54 460.7,33.58 469.27,33.58 469.27,22.75 460.7,22.75 
		460.7,10.49 473.63,10.49 473.63,0.38 447.33,0.38 	"/>
	<polygon points="605.57,57.37 631.87,57.37 631.87,46.54 618.94,46.54 618.94,33.58 627.51,33.58 627.51,22.75 618.94,22.75 
		618.94,10.49 631.87,10.49 631.87,0.38 605.57,0.38 	"/>
	<path d="M583.37,2.87c-1.21-0.85-2.59-1.48-4.13-1.89c-1.54-0.4-3.1-0.6-4.67-0.6h-18.16v56.99h18.16c1.57,0,3.12-0.2,4.67-0.6
		c1.54-0.4,2.92-1.03,4.13-1.89c1.21-0.86,2.18-1.94,2.92-3.24c0.73-1.31,1.1-2.86,1.1-4.67V35c0-1.38-0.43-2.64-1.28-3.78
		c-0.85-1.14-2.14-2.09-3.84-2.85c1.71-0.76,2.99-1.72,3.84-2.89c0.86-1.16,1.28-2.41,1.28-3.74V10.78c0-1.8-0.37-3.36-1.1-4.67
		C585.55,4.81,584.58,3.73,583.37,2.87z M575.07,44.34c0,1.52-0.76,2.28-2.28,2.28h-3.28V34.01h3.28c0.71,0,1.27,0.17,1.67,0.5
		c0.4,0.33,0.61,0.9,0.61,1.71V44.34z M575.07,21.25c0,1.47-0.76,2.21-2.28,2.21h-3.28V11.21h3.28c1.52,0,2.28,0.76,2.28,2.28V21.25
		z"/>
	<polygon points="514.61,26.38 508.98,0.38 490.47,0.38 490.47,57.37 502.22,57.37 502.22,21.04 509.27,57.37 517.53,57.37 
		525.79,21.11 525.79,57.37 538.9,57.37 538.9,0.38 520.1,0.38 	"/>
	<polygon points="315.49,26.38 309.86,0.38 291.34,0.38 291.34,57.37 303.09,57.37 303.09,21.04 310.15,57.37 318.41,57.37 
		326.67,21.11 326.67,57.37 339.77,57.37 339.77,0.38 320.97,0.38 	"/>
	<path d="M381.66,3.48c-1.47-1.21-3.19-2.21-5.17-2.99c-1.98-0.78-4.15-1.17-6.5-1.17c-2.35,0-4.52,0.39-6.53,1.17
		c-2.01,0.78-3.74,1.78-5.21,2.99c-1.47,1.21-2.62,2.56-3.45,4.06c-0.83,1.5-1.25,2.96-1.25,4.38v33.91c0,1.42,0.42,2.88,1.25,4.38
		c0.83,1.5,1.98,2.85,3.45,4.06c1.47,1.21,3.2,2.21,5.21,2.99c2,0.78,4.18,1.17,6.53,1.17c2.35,0,4.51-0.39,6.5-1.17
		c1.98-0.78,3.7-1.78,5.17-2.99c1.47-1.21,2.62-2.56,3.45-4.06c0.83-1.5,1.25-2.96,1.25-4.38V11.92c0-1.42-0.42-2.89-1.25-4.38
		C384.27,6.04,383.12,4.69,381.66,3.48z M372.7,44.9c0,0.76-0.27,1.36-0.81,1.79c-0.54,0.43-1.17,0.64-1.91,0.64
		c-0.78,0-1.44-0.21-1.98-0.64c-0.54-0.43-0.81-1.02-0.81-1.79V12.85c0-0.76,0.27-1.36,0.81-1.79c0.54-0.43,1.2-0.64,1.98-0.64
		c0.73,0,1.37,0.21,1.91,0.64c0.54,0.43,0.81,1.02,0.81,1.79V44.9z"/>
	<polygon points="416.03,32.22 412.55,0.38 398.31,0.38 409.43,57.37 422.03,57.37 433.15,0.38 420.03,0.38 	"/>
</g>
</svg>
