<svg xmlns="http://www.w3.org/2000/svg" viewBox="0 0 795.58 246.5" fill="#fff"><path d="M68.63 242.84H43.18c-2.6 0-3.76-1.14-3.76-3.66V113.53c0-2.28-1.18-3.43-3.53-3.43H4.07c-2.6 0-3.77-1.14-3.77-3.65V87.48c0-2.28 1.17-3.42 3.77-3.42h103.66c2.35 0 3.77 1.14 3.77 3.42v18.97c0 2.5-1.4 3.65-3.77 3.65h-31.8c-2.35 0-3.53 1.14-3.53 3.43v125.65c0 2.52-1.42 3.66-3.77 3.66m93.27-132.5c-2.83 0-3.76 1.37-3.76 3.66v42.03c0 1.37.47 3.65 4 3.65h12.25c12-.9 21.45-5.94 21.45-24.67 0-18.28-12.02-24.68-23.1-24.68H161.9zm68.32 132.5h-27.8c-1.18 0-2.83-1.14-3.53-2.75l-18.6-50.5c-.7-2.05-2.36-3.65-5.2-3.65h-12.73c-3.76.23-4.23 2.74-4.23 4.1v49.12c0 2.3-1.2 3.66-3.54 3.66H128.9c-2.36 0-3.77-1.37-3.77-3.66V87.48c0-2.28 1.4-3.42 3.77-3.42h44.53c32.5 0 56.08 14.85 56.08 49.57 0 22.4-8 34.96-17.2 42.27-.7.7-1.18 1.82-1.4 2.97 0 .9 0 1.82.48 2.74l21.67 55.75c.23.7.7 1.37.7 2.06-.01 2.28-1.18 3.42-3.54 3.42m119.2-40.2c0 27.87-19.08 43.86-52.3 43.86s-52.77-16-52.77-43.86V87.48c0-2.28 1.18-3.42 3.54-3.42h25.68c2.6 0 3.78 1.14 3.78 3.42v113.1c0 9.82 5.17 19.88 19.78 19.88 15.08 0 19.32-10.05 19.32-19.88V87.48c0-2.28 1.17-3.42 3.77-3.42h25.7c2.35 0 3.53 1.14 3.53 3.42v115.15zm98.65-115.15v18.97c0 2.5-1.18 3.66-3.78 3.66h-41.23c-2.35 0-3.54 1.13-3.54 3.43v34.04c0 2.3 2.12 3.2 3.3 3.2h35.33c2.37 0 3.54 1.14 3.54 3.65v18.96c0 2.3-1.17 3.43-3.54 3.43h-35.1c-2.35 0-3.54 1.14-3.54 3.42v32.9c0 2.28 1.2 3.42 3.54 3.42h41.23c2.6 0 3.78 1.14 3.78 3.43v19.2c0 2.52-1.18 3.66-3.78 3.66H370.3c-2.6 0-3.77-1.14-3.77-3.66V87.48c0-2.28 1.17-3.42 3.77-3.42h73.98c2.6 0 3.77 1.14 3.77 3.42m38.62 46.8c-.4-.8-.93-1.07-1.74-1.07-1.2 0-2 .67-2 2v39.74c0 1.47-.66 2.13-2 2.13h-13.2c-1.47 0-2.14-.66-2.14-2.13V86.4c0-1.34.67-2 2-2h13.46c.8 0 1.47.4 1.87 1.32L503.87 126c.27.67.93 1.2 1.87 1.2 1.34 0 2-.67 2-2V86.4c0-1.34.67-2 2-2h13.2c1.48 0 2.14.66 2.14 2v88.67c0 1.34-.8 2-2.14 2h-12.4c-.8 0-1.47-.4-1.87-1.34l-22-41.46zm79.24 44.93c-21.74 0-30.8-12.8-30.8-27.46v-41.07c0-14.67 8.94-28.53 30.66-28.53 21.74 0 30.8 12.8 30.8 27.47v41.06c0 14.67-8.93 28.53-30.66 28.53zm-12-27.72c0 6 2.8 12.53 12 12.53 8.94 0 11.87-6.67 11.87-12.8v-41.33c0-6-2.8-12.53-12-12.53-8.92 0-11.87 6.67-11.87 12.8v41.33zm112.18 25.6h-15.73c-.67 0-1.6-.66-2-1.6L637.83 146c-.4-1.2-1.32-2.13-2.93-2.13h-7.2c-2.14.13-2.4 1.6-2.4 2.4v28.67c0 1.32-.67 2.13-2 2.13h-14.54c-1.34 0-2.14-.8-2.14-2.13V86.4c0-1.34.8-2 2.14-2h25.2c18.4 0 31.74 8.66 31.74 28.93 0 13.06-4.53 20.4-9.73 24.67-.4.4-.67 1.06-.8 1.73 0 .53 0 1.07.26 1.6l12.27 32.53c.14.4.4.8.4 1.2 0 1.32-.66 2-2 2zm-38.67-77.34c-1.6 0-2.13.8-2.13 2.13v24.54c0 .8.26 2.14 2.27 2.14h6.93c6.8-.54 12.14-3.47 12.14-14.4 0-10.66-6.8-14.4-13.07-14.4h-6.14zm78.7 77.34h-14.4c-1.47 0-2.13-.66-2.13-2.13V101.6c0-1.34-.66-2-2-2h-18c-1.47 0-2.14-.67-2.14-2.14V86.4c0-1.34.67-2 2.14-2h58.67c1.32 0 2.13.66 2.13 2v11.06c0 1.47-.8 2.14-2.13 2.14h-18c-1.34 0-2 .66-2 2v73.34c.01 1.46-.78 2.13-2.12 2.13zm46.97 0h-14.54c-1.47 0-2.14-.8-2.14-2.13V86.4c0-1.34.67-2 2.14-2h14.54c1.32 0 2 .66 2 2v34.93c0 1.34.66 2 2 2h18.13c1.34 0 2-.67 2-2V86.4c0-1.34.66-2 2-2h14.53c1.48 0 2.14.66 2.14 2v88.54c0 1.32-.66 2.13-2.14 2.13h-14.53c-1.34 0-2-.8-2-2.13v-34.4c0-1.34-.67-2-2-2H757.1c-1.34 0-2 .66-2 2v34.4c0 1.32-.67 2.13-2 2.13zm-488-138.1c0-.1-.01-.2-.03-.3l-3.75-20.48-1.74-7.86a1.01 1.01 0 0 0-.15-.3c-.12-.14-.28-.23-.47-.23a.63.63 0 0 0-.62.58h0l-.01.17-1.08 12.05c-.05.73-.6 4.56-1.37 5.3-.62.6-1.65 1.45-2.96 2.54l-1.5 1.25c-.53.45-1.13.67-1.78.67-.74 0-1.4-.3-1.8-.52l-5.88-4.27h.02c-.07-.04-.13-.1-.2-.13l-4.67-3.33c-7.23-5.5-14.45-11.55-22.5-14-3.06-.93-6.06-.93-8.87-.35-.84.16-1.47.34-1.8.44a18.1 18.1 0 0 0-4.19 1.7c-3.56 1.8-5.68 4.84-8.4 6.3h-.42c-2.7-1.46-4.82-4.5-8.4-6.3a17.67 17.67 0 0 0-4.19-1.7c-.33-.1-.96-.28-1.8-.44-2.8-.58-5.8-.58-8.87.35-8.05 2.44-15.26 8.5-22.5 14l-4.67 3.33c-.07.04-.13.1-.2.13h.02l-5.88 4.27c-.4.23-1.05.52-1.8.52-.65 0-1.25-.23-1.78-.67l-1.5-1.25c-1.3-1.1-2.34-1.94-2.96-2.54-.78-.75-1.32-4.58-1.37-5.3l-1.05-12.23a.63.63 0 0 0-.62-.58c-.2 0-.36.1-.47.23 0 0-.13.2-.14.3-.36 1-1.04 4.06-1.74 7.86l-3.76 20.48c-.02.12-.03.22-.03.3 0 0 .01.01.01.02-.05.47.3.85.6.98l20.52 8.7c.6.26 1.38.2 2.05.1 2-.37 4-.9 6-1.26 5.13-.9 10.14-2.62 15.42-2.48 4.02.1 8.03-.12 12.08-.26 0 0 1.1-.06 1.58-.26l14.93-6.33a1.35 1.35 0 0 1 .5-.1h.02a1.59 1.59 0 0 1 .51.11l14.93 6.33c.5.2 1.58.26 1.58.26 3.55.13 7.07.3 10.6.28l1.93-.02h.6c4.9.1 9.16 1.64 13.95 2.48 2 .35 4 .9 6 1.26a5.22 5.22 0 0 0 1.19.09c.45.02.9-.01 1.3-.18l20.95-8.7c.3-.13.65-.5.6-.98.02-.01.02-.02.02-.02M661.3 24.6V11.2h3.42c1.47 0 2.2.76 2.2 2.28v8.83c0 1.52-.73 2.28-2.2 2.28h-3.42zM648.2.38v57h13.1V34.72h3.2l4.34 22.65h12.4c-.14-.47-5.84-22.04-6.98-26.64 1.66-.76 2.92-1.86 3.77-3.3.86-1.45 1.28-2.86 1.28-4.24V10.8c0-1.8-.37-3.36-1.1-4.67a9.97 9.97 0 0 0-2.92-3.24c-1.2-.86-2.6-1.5-4.13-1.9s-3.1-.6-4.66-.6h-18.3zm45.05 6.26H697c.42 0 .74.17.98.52a2.05 2.05 0 0 1 .35 1.15c0 .52-.12.96-.36 1.32-.25.36-.57.54-.97.54h-3.76V6.64zm0 9.48v-4.5h2.3l2.48 4.5h1.88l-2.66-4.52a2.95 2.95 0 0 0 2-1.16c.5-.65.74-1.38.74-2.18s-.26-1.53-.77-2.2c-.52-.66-1.27-1-2.26-1h-5.4V16.1h1.7zm-5.7-5.56c0-2.28.76-4.2 2.27-5.72s3.4-2.3 5.7-2.3 4.17.76 5.67 2.28 2.24 3.43 2.24 5.73-.75 4.2-2.24 5.74c-1.5 1.53-3.4 2.3-5.67 2.3s-4.18-.77-5.7-2.3c-1.5-1.52-2.27-3.43-2.27-5.73m17.4 0c0-2.68-.9-4.93-2.7-6.73S698.2 1.1 695.5 1.1s-4.93.9-6.74 2.72c-1.8 1.8-2.72 4.05-2.72 6.73s.9 4.93 2.72 6.74 4.06 2.7 6.74 2.7 4.92-.9 6.74-2.7c1.8-1.8 2.7-4.06 2.7-6.74"/><path d="M447.33 57.37h26.3V46.54H460.7V33.58h8.57V22.75h-8.57V10.5h12.93V.38h-26.3zm158.24 0h26.3V46.54h-12.93V33.58h8.57V22.75h-8.57V10.5h12.93V.38h-26.3zm-22.2-54.5c-1.2-.85-2.6-1.48-4.13-1.9-1.54-.4-3.1-.6-4.67-.6H556.4v57h18.16a18.58 18.58 0 0 0 4.67-.6c1.54-.4 2.92-1.03 4.13-1.9a9.97 9.97 0 0 0 2.92-3.24c.73-1.3 1.1-2.86 1.1-4.67V35c0-1.38-.43-2.64-1.28-3.78s-2.14-2.1-3.84-2.85c1.7-.76 3-1.72 3.84-2.9.86-1.16 1.28-2.4 1.28-3.74V10.78c0-1.8-.37-3.36-1.1-4.67a9.97 9.97 0 0 0-2.92-3.24zm-8.3 41.47c0 1.52-.76 2.28-2.28 2.28h-3.28V34h3.28c.7 0 1.27.17 1.67.5s.6.9.6 1.7v8.12zm0-23.1c0 1.47-.76 2.2-2.28 2.2h-3.28V11.2h3.28c1.52 0 2.28.76 2.28 2.28v7.76zm-60.47 5.14l-5.63-26h-18.5v57h11.75V21.04l7.05 36.33h8.26l8.26-36.26v36.26h13.1v-57h-18.8zm-199.1 0l-5.63-26h-18.52v57h11.75V21.04l7.06 36.33h8.26l8.26-36.26v36.26h13.1v-57h-18.8zm66.16-22.9c-1.47-1.2-3.2-2.2-5.17-3S372.34-.68 370-.68s-4.52.4-6.53 1.17-3.74 1.78-5.2 3-2.62 2.56-3.45 4.06-1.25 2.96-1.25 4.38v33.9c0 1.42.42 2.88 1.25 4.38s1.98 2.85 3.45 4.06 3.2 2.2 5.2 3c2 .78 4.18 1.17 6.53 1.17s4.5-.4 6.5-1.17c1.98-.78 3.7-1.78 5.17-3s2.62-2.56 3.45-4.06 1.25-2.96 1.25-4.38v-33.9c0-1.42-.42-2.9-1.25-4.38-.84-1.5-2-2.85-3.45-4.06zM372.7 44.9c0 .76-.27 1.36-.8 1.8s-1.17.64-1.9.64c-.78 0-1.44-.2-1.98-.64s-.8-1.02-.8-1.8V12.85c0-.76.27-1.36.8-1.8s1.2-.64 1.98-.64c.73 0 1.37.2 1.9.64s.8 1.02.8 1.8V44.9zm43.33-12.68L412.55.38H398.3l11.12 57h12.6l11.12-57h-13.12z"/></svg>